<svg width="15" height="24" viewBox="0 0 15 24" fill="none" xmlns="http://www.w3.org/2000/svg">
<mask id="path-1-inside-1_2190_303" fill="white">
<path d="M9.26497 17.4413L13.2811 10.9836C13.2942 10.9627 13.3052 10.9407 13.3138 10.918C14.0073 9.78705 14.3735 8.49512 14.3735 7.17615C14.3735 3.21922 11.1542 0 7.19731 0C3.24038 0 0.0208934 3.21922 0.0208934 7.17615C0.0208934 8.49539 0.387603 9.78785 1.08165 10.9196C1.08968 10.9394 1.09906 10.9587 1.11031 10.9774L4.98232 17.4574C1.97659 17.8822 0 19.1182 0 20.6174C0 22.4751 3.15681 23.9299 7.1866 23.9299C11.2164 23.9299 14.3732 22.4748 14.3732 20.6174C14.3735 19.1112 12.3047 17.8477 9.26497 17.4413ZM1.80301 10.5577C1.16281 9.53873 0.824493 8.3695 0.824493 7.17615C0.824493 3.66227 3.68317 0.8036 7.19731 0.8036C10.7112 0.8036 13.5699 3.66227 13.5699 7.17615C13.5699 8.37003 13.2315 9.53927 12.5916 10.5577C12.5782 10.5791 12.5672 10.6014 12.5584 10.6244L8.31539 17.4462C8.25163 17.5439 8.23904 17.5662 8.16109 17.6942L7.08963 19.4171L1.8389 10.63C1.82953 10.6051 1.81748 10.5807 1.80301 10.5577ZM7.18686 23.1263C3.42521 23.1263 0.803868 21.8038 0.803868 20.6174C0.803868 19.5406 2.77805 18.5259 5.43341 18.2117L6.73792 20.3951C6.80998 20.5154 6.93909 20.5896 7.07918 20.5906C7.08025 20.5906 7.08159 20.5906 7.08266 20.5906C7.22142 20.5906 7.35053 20.5189 7.42392 20.401L8.7954 18.1959C11.4931 18.4882 13.5696 19.5286 13.5696 20.6174C13.5699 21.8041 10.9485 23.1263 7.18686 23.1263Z"/>
</mask>
<path d="M9.26497 17.4413L13.2811 10.9836C13.2942 10.9627 13.3052 10.9407 13.3138 10.918C14.0073 9.78705 14.3735 8.49512 14.3735 7.17615C14.3735 3.21922 11.1542 0 7.19731 0C3.24038 0 0.0208934 3.21922 0.0208934 7.17615C0.0208934 8.49539 0.387603 9.78785 1.08165 10.9196C1.08968 10.9394 1.09906 10.9587 1.11031 10.9774L4.98232 17.4574C1.97659 17.8822 0 19.1182 0 20.6174C0 22.4751 3.15681 23.9299 7.1866 23.9299C11.2164 23.9299 14.3732 22.4748 14.3732 20.6174C14.3735 19.1112 12.3047 17.8477 9.26497 17.4413ZM1.80301 10.5577C1.16281 9.53873 0.824493 8.3695 0.824493 7.17615C0.824493 3.66227 3.68317 0.8036 7.19731 0.8036C10.7112 0.8036 13.5699 3.66227 13.5699 7.17615C13.5699 8.37003 13.2315 9.53927 12.5916 10.5577C12.5782 10.5791 12.5672 10.6014 12.5584 10.6244L8.31539 17.4462C8.25163 17.5439 8.23904 17.5662 8.16109 17.6942L7.08963 19.4171L1.8389 10.63C1.82953 10.6051 1.81748 10.5807 1.80301 10.5577ZM7.18686 23.1263C3.42521 23.1263 0.803868 21.8038 0.803868 20.6174C0.803868 19.5406 2.77805 18.5259 5.43341 18.2117L6.73792 20.3951C6.80998 20.5154 6.93909 20.5896 7.07918 20.5906C7.08025 20.5906 7.08159 20.5906 7.08266 20.5906C7.22142 20.5906 7.35053 20.5189 7.42392 20.401L8.7954 18.1959C11.4931 18.4882 13.5696 19.5286 13.5696 20.6174C13.5699 21.8041 10.9485 23.1263 7.18686 23.1263Z" fill="#6A48CA"/>
<path d="M9.26497 17.4413L8.4158 16.9132L7.59847 18.2275L9.13247 18.4325L9.26497 17.4413ZM13.2811 10.9836L12.4343 10.4517L12.4319 10.4555L13.2811 10.9836ZM13.3138 10.918L12.4613 10.3952L12.4115 10.4765L12.3779 10.5656L13.3138 10.918ZM1.08165 10.9196L2.00838 10.5439L1.97733 10.4673L1.93411 10.3968L1.08165 10.9196ZM1.11031 10.9774L1.96873 10.4645L1.9678 10.4629L1.11031 10.9774ZM4.98232 17.4574L5.12227 18.4476L6.613 18.2369L5.84075 16.9445L4.98232 17.4574ZM14.3732 20.6174L13.3732 20.6173V20.6174H14.3732ZM1.80301 10.5577L2.6499 10.0259L2.64976 10.0257L1.80301 10.5577ZM12.5916 10.5577L11.7449 10.0257L11.7436 10.0277L12.5916 10.5577ZM12.5584 10.6244L13.4075 11.1526L13.4579 11.0716L13.492 10.9826L12.5584 10.6244ZM8.31539 17.4462L9.15304 17.9924L9.15889 17.9834L9.16453 17.9743L8.31539 17.4462ZM8.16109 17.6942L9.01032 18.2223L9.01526 18.2142L8.16109 17.6942ZM7.08963 19.4171L6.23121 19.9301L7.07258 21.3381L7.93881 19.9452L7.08963 19.4171ZM1.8389 10.63L0.90299 10.9822L0.934539 11.0661L0.980485 11.143L1.8389 10.63ZM5.43341 18.2117L6.29186 17.6988L5.95947 17.1425L5.3159 17.2186L5.43341 18.2117ZM6.73792 20.3951L5.87947 20.908L5.88009 20.909L6.73792 20.3951ZM7.07918 20.5906L7.07153 21.5906H7.07918V20.5906ZM7.42392 20.401L8.27279 20.9296L8.27308 20.9291L7.42392 20.401ZM8.7954 18.1959L8.9031 17.2017L8.27821 17.134L7.94625 17.6678L8.7954 18.1959ZM13.5696 20.6174H12.5696V20.6177L13.5696 20.6174ZM9.26497 17.4413L10.1141 17.9694L14.1303 11.5117L13.2811 10.9836L12.4319 10.4555L8.4158 16.9132L9.26497 17.4413ZM13.2811 10.9836L14.1279 11.5156C14.1752 11.4402 14.2166 11.3582 14.2497 11.2703L13.3138 10.918L12.3779 10.5656C12.3939 10.5233 12.4132 10.4853 12.4343 10.4517L13.2811 10.9836ZM13.3138 10.918L14.1663 11.4407C14.9555 10.1537 15.3735 8.68102 15.3735 7.17615H14.3735H13.3735C13.3735 8.30923 13.0591 9.42042 12.4613 10.3952L13.3138 10.918ZM14.3735 7.17615H15.3735C15.3735 2.66694 11.7065 -1 7.19731 -1V0V1C10.602 1 13.3735 3.77151 13.3735 7.17615H14.3735ZM7.19731 0V-1C2.68815 -1 -0.979107 2.66689 -0.979107 7.17615H0.0208934H1.02089C1.02089 3.77156 3.79262 1 7.19731 1V0ZM0.0208934 7.17615H-0.979107C-0.979107 8.68153 -0.560495 10.1547 0.229178 11.4424L1.08165 10.9196L1.93411 10.3968C1.3357 9.42101 1.02089 8.30926 1.02089 7.17615H0.0208934ZM1.08165 10.9196L0.154906 11.2953C0.179959 11.3571 0.211782 11.4236 0.252815 11.4919L1.11031 10.9774L1.9678 10.4629C1.98633 10.4938 1.9994 10.5217 2.00838 10.5439L1.08165 10.9196ZM1.11031 10.9774L0.251883 11.4904L4.1239 17.9704L4.98232 17.4574L5.84075 16.9445L1.96873 10.4645L1.11031 10.9774ZM4.98232 17.4574L4.84237 16.4673C3.25131 16.6921 1.85703 17.1403 0.829943 17.7891C-0.182403 18.4286 -1 19.3805 -1 20.6174H0H1C1 20.3551 1.1707 19.9394 1.89808 19.48C2.61072 19.0298 3.7076 18.6475 5.12227 18.4476L4.98232 17.4574ZM0 20.6174H-1C-1 22.1628 0.282568 23.242 1.66355 23.8785C3.11858 24.5491 5.06552 24.9299 7.1866 24.9299V23.9299V22.9299C5.27789 22.9299 3.63153 22.5833 2.5007 22.0621C1.29584 21.5068 1 20.9298 1 20.6174H0ZM7.1866 23.9299V24.9299C9.3077 24.9299 11.2546 24.549 12.7097 23.8783C14.0906 23.2418 15.3732 22.1626 15.3732 20.6174H14.3732H13.3732C13.3732 20.9296 13.0774 21.5066 11.8725 22.062C10.7416 22.5832 9.09528 22.9299 7.1866 22.9299V23.9299ZM14.3732 20.6174L15.3732 20.6176C15.3734 19.3624 14.5145 18.4032 13.4852 17.7665C12.4326 17.1154 11.0085 16.6655 9.39747 16.4502L9.26497 17.4413L9.13247 18.4325C10.5612 18.6235 11.6913 19.0086 12.433 19.4674C13.198 19.9406 13.3732 20.3663 13.3732 20.6173L14.3732 20.6174ZM1.80301 10.5577L2.64976 10.0257C2.10881 9.16471 1.82449 8.17962 1.82449 7.17615H0.824493H-0.175507C-0.175507 8.55937 0.216811 9.91276 0.956265 11.0897L1.80301 10.5577ZM0.824493 7.17615H1.82449C1.82449 4.21459 4.23542 1.8036 7.19731 1.8036V0.8036V-0.1964C3.13091 -0.1964 -0.175507 3.10996 -0.175507 7.17615H0.824493ZM7.19731 0.8036V1.8036C10.1589 1.8036 12.5699 4.21456 12.5699 7.17615H13.5699H14.5699C14.5699 3.10999 11.2635 -0.1964 7.19731 -0.1964V0.8036ZM13.5699 7.17615H12.5699C12.5699 8.18025 12.2855 9.1653 11.7449 10.0257L12.5916 10.5577L13.4383 11.0897C14.1776 9.91323 14.5699 8.55981 14.5699 7.17615H13.5699ZM12.5916 10.5577L11.7436 10.0277C11.6953 10.1049 11.656 10.1848 11.6248 10.2661L12.5584 10.6244L13.492 10.9826C13.4785 11.0179 13.4611 11.0533 13.4396 11.0877L12.5916 10.5577ZM12.5584 10.6244L11.7092 10.0962L7.46624 16.918L8.31539 17.4462L9.16453 17.9743L13.4075 11.1526L12.5584 10.6244ZM8.31539 17.4462L7.47773 16.9C7.40363 17.0136 7.38199 17.0509 7.30693 17.1742L8.16109 17.6942L9.01526 18.2142C9.0961 18.0814 9.09963 18.0743 9.15304 17.9924L8.31539 17.4462ZM8.16109 17.6942L7.31191 17.1661L6.24045 18.889L7.08963 19.4171L7.93881 19.9452L9.01028 18.2223L8.16109 17.6942ZM7.08963 19.4171L7.94805 18.9042L2.69732 10.1171L1.8389 10.63L0.980485 11.143L6.23121 19.9301L7.08963 19.4171ZM1.8389 10.63L2.77482 10.2778C2.74185 10.1902 2.69998 10.1057 2.6499 10.0259L1.80301 10.5577L0.95612 11.0895C0.934975 11.0558 0.917204 11.02 0.90299 10.9822L1.8389 10.63ZM7.18686 23.1263V22.1263C5.4132 22.1263 3.95507 21.8131 2.97627 21.3966C2.48376 21.187 2.15338 20.9687 1.96287 20.7867C1.76242 20.5953 1.80387 20.534 1.80387 20.6174H0.803868H-0.196132C-0.196132 21.294 0.172988 21.8429 0.581591 22.2331C1.00013 22.6328 1.56019 22.9676 2.19322 23.2369C3.4655 23.7783 5.19887 24.1263 7.18686 24.1263V23.1263ZM0.803868 20.6174H1.80387C1.80387 20.67 1.77785 20.6328 1.89675 20.5008C2.0172 20.3671 2.23635 20.196 2.5828 20.0166C3.27312 19.659 4.30646 19.352 5.55092 19.2048L5.43341 18.2117L5.3159 17.2186C3.90499 17.3856 2.62356 17.7431 1.66296 18.2406C1.18394 18.4887 0.743588 18.7928 0.410898 19.1621C0.0766545 19.533 -0.196132 20.0264 -0.196132 20.6174H0.803868ZM5.43341 18.2117L4.57496 18.7246L5.87947 20.908L6.73792 20.3951L7.59637 19.8822L6.29186 17.6988L5.43341 18.2117ZM6.73792 20.3951L5.88009 20.909C6.13034 21.3267 6.58063 21.5869 7.07153 21.5906L7.07918 20.5906L7.08683 19.5907C7.29754 19.5923 7.48962 19.704 7.59575 19.8812L6.73792 20.3951ZM7.07918 20.5906V21.5906C7.07918 21.5906 7.07919 21.5906 7.07919 21.5906C7.07919 21.5906 7.07919 21.5906 7.07919 21.5906C7.0792 21.5906 7.0792 21.5906 7.0792 21.5906C7.0792 21.5906 7.0792 21.5906 7.07921 21.5906C7.07921 21.5906 7.07921 21.5906 7.07921 21.5906C7.07921 21.5906 7.07922 21.5906 7.07922 21.5906C7.07922 21.5906 7.07922 21.5906 7.07923 21.5906C7.07923 21.5906 7.07923 21.5906 7.07923 21.5906C7.07923 21.5906 7.07924 21.5906 7.07924 21.5906C7.07924 21.5906 7.07924 21.5906 7.07924 21.5906C7.07925 21.5906 7.07925 21.5906 7.07925 21.5906C7.07925 21.5906 7.07925 21.5906 7.07926 21.5906C7.07926 21.5906 7.07926 21.5906 7.07926 21.5906C7.07927 21.5906 7.07927 21.5906 7.07927 21.5906C7.07927 21.5906 7.07927 21.5906 7.07928 21.5906C7.07928 21.5906 7.07928 21.5906 7.07928 21.5906C7.07928 21.5906 7.07929 21.5906 7.07929 21.5906C7.07929 21.5906 7.07929 21.5906 7.0793 21.5906C7.0793 21.5906 7.0793 21.5906 7.0793 21.5906C7.0793 21.5906 7.07931 21.5906 7.07931 21.5906C7.07931 21.5906 7.07931 21.5906 7.07931 21.5906C7.07932 21.5906 7.07932 21.5906 7.07932 21.5906C7.07932 21.5906 7.07932 21.5906 7.07933 21.5906C7.07933 21.5906 7.07933 21.5906 7.07933 21.5906C7.07934 21.5906 7.07934 21.5906 7.07934 21.5906C7.07934 21.5906 7.07934 21.5906 7.07935 21.5906C7.07935 21.5906 7.07935 21.5906 7.07935 21.5906C7.07935 21.5906 7.07936 21.5906 7.07936 21.5906C7.07936 21.5906 7.07936 21.5906 7.07937 21.5906C7.07937 21.5906 7.07937 21.5906 7.07937 21.5906C7.07937 21.5906 7.07938 21.5906 7.07938 21.5906C7.07938 21.5906 7.07938 21.5906 7.07938 21.5906C7.07939 21.5906 7.07939 21.5906 7.07939 21.5906C7.07939 21.5906 7.0794 21.5906 7.0794 21.5906C7.0794 21.5906 7.0794 21.5906 7.0794 21.5906C7.07941 21.5906 7.07941 21.5906 7.07941 21.5906C7.07941 21.5906 7.07942 21.5906 7.07942 21.5906C7.07942 21.5906 7.07942 21.5906 7.07942 21.5906C7.07943 21.5906 7.07943 21.5906 7.07943 21.5906C7.07943 21.5906 7.07943 21.5906 7.07944 21.5906C7.07944 21.5906 7.07944 21.5906 7.07944 21.5906C7.07945 21.5906 7.07945 21.5906 7.07945 21.5906C7.07945 21.5906 7.07945 21.5906 7.07946 21.5906C7.07946 21.5906 7.07946 21.5906 7.07946 21.5906C7.07946 21.5906 7.07947 21.5906 7.07947 21.5906C7.07947 21.5906 7.07947 21.5906 7.07948 21.5906C7.07948 21.5906 7.07948 21.5906 7.07948 21.5906C7.07948 21.5906 7.07949 21.5906 7.07949 21.5906C7.07949 21.5906 7.07949 21.5906 7.0795 21.5906C7.0795 21.5906 7.0795 21.5906 7.0795 21.5906C7.0795 21.5906 7.07951 21.5906 7.07951 21.5906C7.07951 21.5906 7.07951 21.5906 7.07952 21.5906C7.07952 21.5906 7.07952 21.5906 7.07952 21.5906C7.07952 21.5906 7.07953 21.5906 7.07953 21.5906C7.07953 21.5906 7.07953 21.5906 7.07954 21.5906C7.07954 21.5906 7.07954 21.5906 7.07954 21.5906C7.07954 21.5906 7.07955 21.5906 7.07955 21.5906C7.07955 21.5906 7.07955 21.5906 7.07955 21.5906C7.07956 21.5906 7.07956 21.5906 7.07956 21.5906C7.07956 21.5906 7.07957 21.5906 7.07957 21.5906C7.07957 21.5906 7.07957 21.5906 7.07957 21.5906C7.07958 21.5906 7.07958 21.5906 7.07958 21.5906C7.07958 21.5906 7.07959 21.5906 7.07959 21.5906C7.07959 21.5906 7.07959 21.5906 7.07959 21.5906C7.0796 21.5906 7.0796 21.5906 7.0796 21.5906C7.0796 21.5906 7.07961 21.5906 7.07961 21.5906C7.07961 21.5906 7.07961 21.5906 7.07961 21.5906C7.07962 21.5906 7.07962 21.5906 7.07962 21.5906C7.07962 21.5906 7.07963 21.5906 7.07963 21.5906C7.07963 21.5906 7.07963 21.5906 7.07963 21.5906C7.07964 21.5906 7.07964 21.5906 7.07964 21.5906C7.07964 21.5906 7.07965 21.5906 7.07965 21.5906C7.07965 21.5906 7.07965 21.5906 7.07965 21.5906C7.07966 21.5906 7.07966 21.5906 7.07966 21.5906C7.07966 21.5906 7.07967 21.5906 7.07967 21.5906C7.07967 21.5906 7.07967 21.5906 7.07967 21.5906C7.07968 21.5906 7.07968 21.5906 7.07968 21.5906C7.07968 21.5906 7.07969 21.5906 7.07969 21.5906C7.07969 21.5906 7.07969 21.5906 7.07969 21.5906C7.0797 21.5906 7.0797 21.5906 7.0797 21.5906C7.0797 21.5906 7.07971 21.5906 7.07971 21.5906C7.07971 21.5906 7.07971 21.5906 7.07971 21.5906C7.07972 21.5906 7.07972 21.5906 7.07972 21.5906C7.07972 21.5906 7.07973 21.5906 7.07973 21.5906C7.07973 21.5906 7.07973 21.5906 7.07973 21.5906C7.07974 21.5906 7.07974 21.5906 7.07974 21.5906C7.07974 21.5906 7.07975 21.5906 7.07975 21.5906C7.07975 21.5906 7.07975 21.5906 7.07975 21.5906C7.07976 21.5906 7.07976 21.5906 7.07976 21.5906C7.07976 21.5906 7.07977 21.5906 7.07977 21.5906C7.07977 21.5906 7.07977 21.5906 7.07977 21.5906C7.07978 21.5906 7.07978 21.5906 7.07978 21.5906C7.07978 21.5906 7.07979 21.5906 7.07979 21.5906C7.07979 21.5906 7.07979 21.5906 7.07979 21.5906C7.0798 21.5906 7.0798 21.5906 7.0798 21.5906C7.0798 21.5906 7.07981 21.5906 7.07981 21.5906C7.07981 21.5906 7.07981 21.5906 7.07982 21.5906C7.07982 21.5906 7.07982 21.5906 7.07982 21.5906C7.07982 21.5906 7.07983 21.5906 7.07983 21.5906C7.07983 21.5906 7.07983 21.5906 7.07984 21.5906C7.07984 21.5906 7.07984 21.5906 7.07984 21.5906C7.07984 21.5906 7.07985 21.5906 7.07985 21.5906C7.07985 21.5906 7.07985 21.5906 7.07986 21.5906C7.07986 21.5906 7.07986 21.5906 7.07986 21.5906C7.07986 21.5906 7.07987 21.5906 7.07987 21.5906C7.07987 21.5906 7.07987 21.5906 7.07988 21.5906C7.07988 21.5906 7.07988 21.5906 7.07988 21.5906C7.07989 21.5906 7.07989 21.5906 7.07989 21.5906C7.07989 21.5906 7.07989 21.5906 7.0799 21.5906C7.0799 21.5906 7.0799 21.5906 7.0799 21.5906C7.07991 21.5906 7.07991 21.5906 7.07991 21.5906C7.07991 21.5906 7.07991 21.5906 7.07992 21.5906C7.07992 21.5906 7.07992 21.5906 7.07992 21.5906C7.07993 21.5906 7.07993 21.5906 7.07993 21.5906C7.07993 21.5906 7.07994 21.5906 7.07994 21.5906C7.07994 21.5906 7.07994 21.5906 7.07994 21.5906C7.07995 21.5906 7.07995 21.5906 7.07995 21.5906C7.07995 21.5906 7.07996 21.5906 7.07996 21.5906C7.07996 21.5906 7.07996 21.5906 7.07996 21.5906C7.07997 21.5906 7.07997 21.5906 7.07997 21.5906C7.07997 21.5906 7.07998 21.5906 7.07998 21.5906C7.07998 21.5906 7.07998 21.5906 7.07999 21.5906C7.07999 21.5906 7.07999 21.5906 7.07999 21.5906C7.07999 21.5906 7.08 21.5906 7.08 21.5906C7.08 21.5906 7.08 21.5906 7.08001 21.5906C7.08001 21.5906 7.08001 21.5906 7.08001 21.5906C7.08002 21.5906 7.08002 21.5906 7.08002 21.5906C7.08002 21.5906 7.08002 21.5906 7.08003 21.5906C7.08003 21.5906 7.08003 21.5906 7.08003 21.5906C7.08004 21.5906 7.08004 21.5906 7.08004 21.5906C7.08004 21.5906 7.08004 21.5906 7.08005 21.5906C7.08005 21.5906 7.08005 21.5906 7.08005 21.5906C7.08006 21.5906 7.08006 21.5906 7.08006 21.5906C7.08006 21.5906 7.08007 21.5906 7.08007 21.5906C7.08007 21.5906 7.08007 21.5906 7.08007 21.5906C7.08008 21.5906 7.08008 21.5906 7.08008 21.5906C7.08008 21.5906 7.08009 21.5906 7.08009 21.5906C7.08009 21.5906 7.08009 21.5906 7.0801 21.5906C7.0801 21.5906 7.0801 21.5906 7.0801 21.5906C7.0801 21.5906 7.08011 21.5906 7.08011 21.5906C7.08011 21.5906 7.08011 21.5906 7.08012 21.5906C7.08012 21.5906 7.08012 21.5906 7.08012 21.5906C7.08013 21.5906 7.08013 21.5906 7.08013 21.5906C7.08013 21.5906 7.08013 21.5906 7.08014 21.5906C7.08014 21.5906 7.08014 21.5906 7.08014 21.5906C7.08015 21.5906 7.08015 21.5906 7.08015 21.5906C7.08015 21.5906 7.08016 21.5906 7.08016 21.5906C7.08016 21.5906 7.08016 21.5906 7.08016 21.5906C7.08017 21.5906 7.08017 21.5906 7.08017 21.5906C7.08017 21.5906 7.08018 21.5906 7.08018 21.5906C7.08018 21.5906 7.08018 21.5906 7.08019 21.5906C7.08019 21.5906 7.08019 21.5906 7.08019 21.5906C7.08019 21.5906 7.0802 21.5906 7.0802 21.5906C7.0802 21.5906 7.0802 21.5906 7.08021 21.5906C7.08021 21.5906 7.08021 21.5906 7.08021 21.5906C7.08022 21.5906 7.08022 21.5906 7.08022 21.5906C7.08022 21.5906 7.08022 21.5906 7.08023 21.5906C7.08023 21.5906 7.08023 21.5906 7.08023 21.5906C7.08024 21.5906 7.08024 21.5906 7.08024 21.5906C7.08024 21.5906 7.08025 21.5906 7.08025 21.5906C7.08025 21.5906 7.08025 21.5906 7.08025 21.5906C7.08026 21.5906 7.08026 21.5906 7.08026 21.5906C7.08026 21.5906 7.08027 21.5906 7.08027 21.5906C7.08027 21.5906 7.08027 21.5906 7.08028 21.5906C7.08028 21.5906 7.08028 21.5906 7.08028 21.5906C7.08028 21.5906 7.08029 21.5906 7.08029 21.5906C7.08029 21.5906 7.08029 21.5906 7.0803 21.5906C7.0803 21.5906 7.0803 21.5906 7.0803 21.5906C7.08031 21.5906 7.08031 21.5906 7.08031 21.5906C7.08031 21.5906 7.08032 21.5906 7.08032 21.5906C7.08032 21.5906 7.08032 21.5906 7.08032 21.5906C7.08033 21.5906 7.08033 21.5906 7.08033 21.5906C7.08033 21.5906 7.08034 21.5906 7.08034 21.5906C7.08034 21.5906 7.08034 21.5906 7.08035 21.5906C7.08035 21.5906 7.08035 21.5906 7.08035 21.5906C7.08035 21.5906 7.08036 21.5906 7.08036 21.5906C7.08036 21.5906 7.08036 21.5906 7.08037 21.5906C7.08037 21.5906 7.08037 21.5906 7.08037 21.5906C7.08038 21.5906 7.08038 21.5906 7.08038 21.5906C7.08038 21.5906 7.08038 21.5906 7.08039 21.5906C7.08039 21.5906 7.08039 21.5906 7.08039 21.5906C7.0804 21.5906 7.0804 21.5906 7.0804 21.5906C7.0804 21.5906 7.08041 21.5906 7.08041 21.5906C7.08041 21.5906 7.08041 21.5906 7.08042 21.5906C7.08042 21.5906 7.08042 21.5906 7.08042 21.5906C7.08042 21.5906 7.08043 21.5906 7.08043 21.5906C7.08043 21.5906 7.08043 21.5906 7.08044 21.5906C7.08044 21.5906 7.08044 21.5906 7.08044 21.5906C7.08045 21.5906 7.08045 21.5906 7.08045 21.5906C7.08045 21.5906 7.08045 21.5906 7.08046 21.5906C7.08046 21.5906 7.08046 21.5906 7.08046 21.5906C7.08047 21.5906 7.08047 21.5906 7.08047 21.5906C7.08047 21.5906 7.08048 21.5906 7.08048 21.5906C7.08048 21.5906 7.08048 21.5906 7.08049 21.5906C7.08049 21.5906 7.08049 21.5906 7.08049 21.5906C7.08049 21.5906 7.0805 21.5906 7.0805 21.5906C7.0805 21.5906 7.0805 21.5906 7.08051 21.5906C7.08051 21.5906 7.08051 21.5906 7.08051 21.5906C7.08052 21.5906 7.08052 21.5906 7.08052 21.5906C7.08052 21.5906 7.08052 21.5906 7.08053 21.5906C7.08053 21.5906 7.08053 21.5906 7.08053 21.5906C7.08054 21.5906 7.08054 21.5906 7.08054 21.5906C7.08054 21.5906 7.08055 21.5906 7.08055 21.5906C7.08055 21.5906 7.08055 21.5906 7.08056 21.5906C7.08056 21.5906 7.08056 21.5906 7.08056 21.5906C7.08056 21.5906 7.08057 21.5906 7.08057 21.5906C7.08057 21.5906 7.08057 21.5906 7.08058 21.5906C7.08058 21.5906 7.08058 21.5906 7.08058 21.5906C7.08059 21.5906 7.08059 21.5906 7.08059 21.5906C7.08059 21.5906 7.0806 21.5906 7.0806 21.5906C7.0806 21.5906 7.0806 21.5906 7.0806 21.5906C7.08061 21.5906 7.08061 21.5906 7.08061 21.5906C7.08061 21.5906 7.08062 21.5906 7.08062 21.5906C7.08062 21.5906 7.08062 21.5906 7.08063 21.5906C7.08063 21.5906 7.08063 21.5906 7.08063 21.5906C7.08064 21.5906 7.08064 21.5906 7.08064 21.5906C7.08064 21.5906 7.08064 21.5906 7.08065 21.5906C7.08065 21.5906 7.08065 21.5906 7.08065 21.5906C7.08066 21.5906 7.08066 21.5906 7.08066 21.5906C7.08066 21.5906 7.08067 21.5906 7.08067 21.5906C7.08067 21.5906 7.08067 21.5906 7.08068 21.5906C7.08068 21.5906 7.08068 21.5906 7.08068 21.5906C7.08068 21.5906 7.08069 21.5906 7.08069 21.5906C7.08069 21.5906 7.08069 21.5906 7.0807 21.5906C7.0807 21.5906 7.0807 21.5906 7.0807 21.5906C7.08071 21.5906 7.08071 21.5906 7.08071 21.5906C7.08071 21.5906 7.08072 21.5906 7.08072 21.5906C7.08072 21.5906 7.08072 21.5906 7.08072 21.5906C7.08073 21.5906 7.08073 21.5906 7.08073 21.5906C7.08073 21.5906 7.08074 21.5906 7.08074 21.5906C7.08074 21.5906 7.08074 21.5906 7.08075 21.5906C7.08075 21.5906 7.08075 21.5906 7.08075 21.5906C7.08076 21.5906 7.08076 21.5906 7.08076 21.5906C7.08076 21.5906 7.08076 21.5906 7.08077 21.5906C7.08077 21.5906 7.08077 21.5906 7.08077 21.5906C7.08078 21.5906 7.08078 21.5906 7.08078 21.5906C7.08078 21.5906 7.08079 21.5906 7.08079 21.5906C7.08079 21.5906 7.08079 21.5906 7.0808 21.5906C7.0808 21.5906 7.0808 21.5906 7.0808 21.5906C7.0808 21.5906 7.08081 21.5906 7.08081 21.5906C7.08081 21.5906 7.08081 21.5906 7.08082 21.5906C7.08082 21.5906 7.08082 21.5906 7.08082 21.5906C7.08083 21.5906 7.08083 21.5906 7.08083 21.5906C7.08083 21.5906 7.08084 21.5906 7.08084 21.5906C7.08084 21.5906 7.08084 21.5906 7.08084 21.5906C7.08085 21.5906 7.08085 21.5906 7.08085 21.5906C7.08085 21.5906 7.08086 21.5906 7.08086 21.5906C7.08086 21.5906 7.08086 21.5906 7.08087 21.5906C7.08087 21.5906 7.08087 21.5906 7.08087 21.5906C7.08087 21.5906 7.08088 21.5906 7.08088 21.5906C7.08088 21.5906 7.08088 21.5906 7.08089 21.5906C7.08089 21.5906 7.08089 21.5906 7.08089 21.5906C7.0809 21.5906 7.0809 21.5906 7.0809 21.5906C7.0809 21.5906 7.08091 21.5906 7.08091 21.5906C7.08091 21.5906 7.08091 21.5906 7.08091 21.5906C7.08092 21.5906 7.08092 21.5906 7.08092 21.5906C7.08092 21.5906 7.08093 21.5906 7.08093 21.5906C7.08093 21.5906 7.08093 21.5906 7.08094 21.5906C7.08094 21.5906 7.08094 21.5906 7.08094 21.5906C7.08095 21.5906 7.08095 21.5906 7.08095 21.5906C7.08095 21.5906 7.08096 21.5906 7.08096 21.5906C7.08096 21.5906 7.08096 21.5906 7.08096 21.5906C7.08097 21.5906 7.08097 21.5906 7.08097 21.5906C7.08097 21.5906 7.08098 21.5906 7.08098 21.5906C7.08098 21.5906 7.08098 21.5906 7.08099 21.5906C7.08099 21.5906 7.08099 21.5906 7.08099 21.5906C7.081 21.5906 7.081 21.5906 7.081 21.5906C7.081 21.5906 7.081 21.5906 7.08101 21.5906C7.08101 21.5906 7.08101 21.5906 7.08101 21.5906C7.08102 21.5906 7.08102 21.5906 7.08102 21.5906C7.08102 21.5906 7.08103 21.5906 7.08103 21.5906C7.08103 21.5906 7.08103 21.5906 7.08104 21.5906C7.08104 21.5906 7.08104 21.5906 7.08104 21.5906C7.08104 21.5906 7.08105 21.5906 7.08105 21.5906C7.08105 21.5906 7.08105 21.5906 7.08106 21.5906C7.08106 21.5906 7.08106 21.5906 7.08106 21.5906C7.08107 21.5906 7.08107 21.5906 7.08107 21.5906C7.08107 21.5906 7.08108 21.5906 7.08108 21.5906C7.08108 21.5906 7.08108 21.5906 7.08108 21.5906C7.08109 21.5906 7.08109 21.5906 7.08109 21.5906C7.08109 21.5906 7.0811 21.5906 7.0811 21.5906C7.0811 21.5906 7.0811 21.5906 7.08111 21.5906C7.08111 21.5906 7.08111 21.5906 7.08111 21.5906C7.08112 21.5906 7.08112 21.5906 7.08112 21.5906C7.08112 21.5906 7.08112 21.5906 7.08113 21.5906C7.08113 21.5906 7.08113 21.5906 7.08113 21.5906C7.08114 21.5906 7.08114 21.5906 7.08114 21.5906C7.08114 21.5906 7.08115 21.5906 7.08115 21.5906C7.08115 21.5906 7.08115 21.5906 7.08116 21.5906C7.08116 21.5906 7.08116 21.5906 7.08116 21.5906C7.08116 21.5906 7.08117 21.5906 7.08117 21.5906C7.08117 21.5906 7.08117 21.5906 7.08118 21.5906C7.08118 21.5906 7.08118 21.5906 7.08118 21.5906C7.08119 21.5906 7.08119 21.5906 7.08119 21.5906C7.08119 21.5906 7.0812 21.5906 7.0812 21.5906C7.0812 21.5906 7.0812 21.5906 7.0812 21.5906C7.08121 21.5906 7.08121 21.5906 7.08121 21.5906C7.08121 21.5906 7.08122 21.5906 7.08122 21.5906C7.08122 21.5906 7.08122 21.5906 7.08123 21.5906C7.08123 21.5906 7.08123 21.5906 7.08123 21.5906C7.08123 21.5906 7.08124 21.5906 7.08124 21.5906C7.08124 21.5906 7.08124 21.5906 7.08125 21.5906C7.08125 21.5906 7.08125 21.5906 7.08125 21.5906C7.08126 21.5906 7.08126 21.5906 7.08126 21.5906C7.08126 21.5906 7.08127 21.5906 7.08127 21.5906C7.08127 21.5906 7.08127 21.5906 7.08127 21.5906C7.08128 21.5906 7.08128 21.5906 7.08128 21.5906C7.08128 21.5906 7.08129 21.5906 7.08129 21.5906C7.08129 21.5906 7.08129 21.5906 7.0813 21.5906C7.0813 21.5906 7.0813 21.5906 7.0813 21.5906C7.08131 21.5906 7.08131 21.5906 7.08131 21.5906C7.08131 21.5906 7.08131 21.5906 7.08132 21.5906C7.08132 21.5906 7.08132 21.5906 7.08132 21.5906C7.08133 21.5906 7.08133 21.5906 7.08133 21.5906C7.08133 21.5906 7.08134 21.5906 7.08134 21.5906C7.08134 21.5906 7.08134 21.5906 7.08135 21.5906C7.08135 21.5906 7.08135 21.5906 7.08135 21.5906C7.08135 21.5906 7.08136 21.5906 7.08136 21.5906C7.08136 21.5906 7.08136 21.5906 7.08137 21.5906C7.08137 21.5906 7.08137 21.5906 7.08137 21.5906C7.08138 21.5906 7.08138 21.5906 7.08138 21.5906C7.08138 21.5906 7.08139 21.5906 7.08139 21.5906C7.08139 21.5906 7.08139 21.5906 7.08139 21.5906C7.0814 21.5906 7.0814 21.5906 7.0814 21.5906C7.0814 21.5906 7.08141 21.5906 7.08141 21.5906C7.08141 21.5906 7.08141 21.5906 7.08142 21.5906C7.08142 21.5906 7.08142 21.5906 7.08142 21.5906C7.08142 21.5906 7.08143 21.5906 7.08143 21.5906C7.08143 21.5906 7.08143 21.5906 7.08144 21.5906C7.08144 21.5906 7.08144 21.5906 7.08144 21.5906C7.08145 21.5906 7.08145 21.5906 7.08145 21.5906C7.08145 21.5906 7.08145 21.5906 7.08146 21.5906C7.08146 21.5906 7.08146 21.5906 7.08146 21.5906C7.08147 21.5906 7.08147 21.5906 7.08147 21.5906C7.08147 21.5906 7.08148 21.5906 7.08148 21.5906C7.08148 21.5906 7.08148 21.5906 7.08149 21.5906C7.08149 21.5906 7.08149 21.5906 7.08149 21.5906C7.08149 21.5906 7.0815 21.5906 7.0815 21.5906C7.0815 21.5906 7.0815 21.5906 7.08151 21.5906C7.08151 21.5906 7.08151 21.5906 7.08151 21.5906C7.08152 21.5906 7.08152 21.5906 7.08152 21.5906C7.08152 21.5906 7.08152 21.5906 7.08153 21.5906C7.08153 21.5906 7.08153 21.5906 7.08153 21.5906C7.08154 21.5906 7.08154 21.5906 7.08154 21.5906C7.08154 21.5906 7.08155 21.5906 7.08155 21.5906C7.08155 21.5906 7.08155 21.5906 7.08155 21.5906C7.08156 21.5906 7.08156 21.5906 7.08156 21.5906C7.08156 21.5906 7.08157 21.5906 7.08157 21.5906C7.08157 21.5906 7.08157 21.5906 7.08158 21.5906C7.08158 21.5906 7.08158 21.5906 7.08158 21.5906C7.08159 21.5906 7.08159 21.5906 7.08159 21.5906C7.08159 21.5906 7.08159 21.5906 7.0816 21.5906C7.0816 21.5906 7.0816 21.5906 7.0816 21.5906C7.08161 21.5906 7.08161 21.5906 7.08161 21.5906C7.08161 21.5906 7.08162 21.5906 7.08162 21.5906C7.08162 21.5906 7.08162 21.5906 7.08162 21.5906C7.08163 21.5906 7.08163 21.5906 7.08163 21.5906C7.08163 21.5906 7.08164 21.5906 7.08164 21.5906C7.08164 21.5906 7.08164 21.5906 7.08165 21.5906C7.08165 21.5906 7.08165 21.5906 7.08165 21.5906C7.08165 21.5906 7.08166 21.5906 7.08166 21.5906C7.08166 21.5906 7.08166 21.5906 7.08167 21.5906C7.08167 21.5906 7.08167 21.5906 7.08167 21.5906C7.08168 21.5906 7.08168 21.5906 7.08168 21.5906C7.08168 21.5906 7.08168 21.5906 7.08169 21.5906C7.08169 21.5906 7.08169 21.5906 7.08169 21.5906C7.0817 21.5906 7.0817 21.5906 7.0817 21.5906C7.0817 21.5906 7.08171 21.5906 7.08171 21.5906C7.08171 21.5906 7.08171 21.5906 7.08171 21.5906C7.08172 21.5906 7.08172 21.5906 7.08172 21.5906C7.08172 21.5906 7.08173 21.5906 7.08173 21.5906C7.08173 21.5906 7.08173 21.5906 7.08174 21.5906C7.08174 21.5906 7.08174 21.5906 7.08174 21.5906C7.08174 21.5906 7.08175 21.5906 7.08175 21.5906C7.08175 21.5906 7.08175 21.5906 7.08176 21.5906C7.08176 21.5906 7.08176 21.5906 7.08176 21.5906C7.08177 21.5906 7.08177 21.5906 7.08177 21.5906C7.08177 21.5906 7.08177 21.5906 7.08178 21.5906C7.08178 21.5906 7.08178 21.5906 7.08178 21.5906C7.08179 21.5906 7.08179 21.5906 7.08179 21.5906C7.08179 21.5906 7.0818 21.5906 7.0818 21.5906C7.0818 21.5906 7.0818 21.5906 7.0818 21.5906C7.08181 21.5906 7.08181 21.5906 7.08181 21.5906C7.08181 21.5906 7.08182 21.5906 7.08182 21.5906C7.08182 21.5906 7.08182 21.5906 7.08182 21.5906C7.08183 21.5906 7.08183 21.5906 7.08183 21.5906C7.08183 21.5906 7.08184 21.5906 7.08184 21.5906C7.08184 21.5906 7.08184 21.5906 7.08185 21.5906C7.08185 21.5906 7.08185 21.5906 7.08185 21.5906C7.08185 21.5906 7.08186 21.5906 7.08186 21.5906C7.08186 21.5906 7.08186 21.5906 7.08187 21.5906C7.08187 21.5906 7.08187 21.5906 7.08187 21.5906C7.08187 21.5906 7.08188 21.5906 7.08188 21.5906C7.08188 21.5906 7.08188 21.5906 7.08189 21.5906C7.08189 21.5906 7.08189 21.5906 7.08189 21.5906C7.0819 21.5906 7.0819 21.5906 7.0819 21.5906C7.0819 21.5906 7.0819 21.5906 7.08191 21.5906C7.08191 21.5906 7.08191 21.5906 7.08191 21.5906C7.08192 21.5906 7.08192 21.5906 7.08192 21.5906C7.08192 21.5906 7.08192 21.5906 7.08193 21.5906C7.08193 21.5906 7.08193 21.5906 7.08193 21.5906C7.08194 21.5906 7.08194 21.5906 7.08194 21.5906C7.08194 21.5906 7.08195 21.5906 7.08195 21.5906C7.08195 21.5906 7.08195 21.5906 7.08195 21.5906C7.08196 21.5906 7.08196 21.5906 7.08196 21.5906C7.08196 21.5906 7.08197 21.5906 7.08197 21.5906C7.08197 21.5906 7.08197 21.5906 7.08197 21.5906C7.08198 21.5906 7.08198 21.5906 7.08198 21.5906C7.08198 21.5906 7.08199 21.5906 7.08199 21.5906C7.08199 21.5906 7.08199 21.5906 7.082 21.5906C7.082 21.5906 7.082 21.5906 7.082 21.5906C7.082 21.5906 7.08201 21.5906 7.08201 21.5906C7.08201 21.5906 7.08201 21.5906 7.08202 21.5906C7.08202 21.5906 7.08202 21.5906 7.08202 21.5906C7.08202 21.5906 7.08203 21.5906 7.08203 21.5906C7.08203 21.5906 7.08203 21.5906 7.08204 21.5906C7.08204 21.5906 7.08204 21.5906 7.08204 21.5906C7.08205 21.5906 7.08205 21.5906 7.08205 21.5906C7.08205 21.5906 7.08205 21.5906 7.08206 21.5906C7.08206 21.5906 7.08206 21.5906 7.08206 21.5906C7.08207 21.5906 7.08207 21.5906 7.08207 21.5906C7.08207 21.5906 7.08207 21.5906 7.08208 21.5906C7.08208 21.5906 7.08208 21.5906 7.08208 21.5906C7.08209 21.5906 7.08209 21.5906 7.08209 21.5906C7.08209 21.5906 7.08209 21.5906 7.0821 21.5906C7.0821 21.5906 7.0821 21.5906 7.0821 21.5906C7.08211 21.5906 7.08211 21.5906 7.08211 21.5906C7.08211 21.5906 7.08211 21.5906 7.08212 21.5906C7.08212 21.5906 7.08212 21.5906 7.08212 21.5906C7.08213 21.5906 7.08213 21.5906 7.08213 21.5906C7.08213 21.5906 7.08213 21.5906 7.08214 21.5906C7.08214 21.5906 7.08214 21.5906 7.08214 21.5906C7.08215 21.5906 7.08215 21.5906 7.08215 21.5906C7.08215 21.5906 7.08215 21.5906 7.08216 21.5906C7.08216 21.5906 7.08216 21.5906 7.08216 21.5906C7.08217 21.5906 7.08217 21.5906 7.08217 21.5906C7.08217 21.5906 7.08217 21.5906 7.08218 21.5906C7.08218 21.5906 7.08218 21.5906 7.08218 21.5906C7.08219 21.5906 7.08219 21.5906 7.08219 21.5906C7.08219 21.5906 7.08219 21.5906 7.0822 21.5906C7.0822 21.5906 7.0822 21.5906 7.0822 21.5906C7.08221 21.5906 7.08221 21.5906 7.08221 21.5906C7.08221 21.5906 7.08221 21.5906 7.08222 21.5906C7.08222 21.5906 7.08222 21.5906 7.08222 21.5906C7.08223 21.5906 7.08223 21.5906 7.08223 21.5906C7.08223 21.5906 7.08223 21.5906 7.08224 21.5906C7.08224 21.5906 7.08224 21.5906 7.08224 21.5906C7.08225 21.5906 7.08225 21.5906 7.08225 21.5906C7.08225 21.5906 7.08225 21.5906 7.08226 21.5906C7.08226 21.5906 7.08226 21.5906 7.08226 21.5906C7.08227 21.5906 7.08227 21.5906 7.08227 21.5906C7.08227 21.5906 7.08227 21.5906 7.08228 21.5906C7.08228 21.5906 7.08228 21.5906 7.08228 21.5906C7.08229 21.5906 7.08229 21.5906 7.08229 21.5906C7.08229 21.5906 7.08229 21.5906 7.0823 21.5906C7.0823 21.5906 7.0823 21.5906 7.0823 21.5906C7.0823 21.5906 7.08231 21.5906 7.08231 21.5906C7.08231 21.5906 7.08231 21.5906 7.08232 21.5906C7.08232 21.5906 7.08232 21.5906 7.08232 21.5906C7.08232 21.5906 7.08233 21.5906 7.08233 21.5906C7.08233 21.5906 7.08233 21.5906 7.08234 21.5906C7.08234 21.5906 7.08234 21.5906 7.08234 21.5906C7.08234 21.5906 7.08235 21.5906 7.08235 21.5906C7.08235 21.5906 7.08235 21.5906 7.08236 21.5906C7.08236 21.5906 7.08236 21.5906 7.08236 21.5906C7.08236 21.5906 7.08237 21.5906 7.08237 21.5906C7.08237 21.5906 7.08237 21.5906 7.08238 21.5906C7.08238 21.5906 7.08238 21.5906 7.08238 21.5906C7.08238 21.5906 7.08239 21.5906 7.08239 21.5906C7.08239 21.5906 7.08239 21.5906 7.08239 21.5906C7.0824 21.5906 7.0824 21.5906 7.0824 21.5906C7.0824 21.5906 7.08241 21.5906 7.08241 21.5906C7.08241 21.5906 7.08241 21.5906 7.08241 21.5906C7.08242 21.5906 7.08242 21.5906 7.08242 21.5906C7.08242 21.5906 7.08243 21.5906 7.08243 21.5906C7.08243 21.5906 7.08243 21.5906 7.08243 21.5906C7.08244 21.5906 7.08244 21.5906 7.08244 21.5906C7.08244 21.5906 7.08244 21.5906 7.08245 21.5906C7.08245 21.5906 7.08245 21.5906 7.08245 21.5906C7.08246 21.5906 7.08246 21.5906 7.08246 21.5906C7.08246 21.5906 7.08246 21.5906 7.08247 21.5906C7.08247 21.5906 7.08247 21.5906 7.08247 21.5906C7.08247 21.5906 7.08248 21.5906 7.08248 21.5906C7.08248 21.5906 7.08248 21.5906 7.08249 21.5906C7.08249 21.5906 7.08249 21.5906 7.08249 21.5906C7.08249 21.5906 7.0825 21.5906 7.0825 21.5906C7.0825 21.5906 7.0825 21.5906 7.0825 21.5906C7.08251 21.5906 7.08251 21.5906 7.08251 21.5906C7.08251 21.5906 7.08252 21.5906 7.08252 21.5906C7.08252 21.5906 7.08252 21.5906 7.08252 21.5906C7.08253 21.5906 7.08253 21.5906 7.08253 21.5906C7.08253 21.5906 7.08253 21.5906 7.08254 21.5906C7.08254 21.5906 7.08254 21.5906 7.08254 21.5906C7.08255 21.5906 7.08255 21.5906 7.08255 21.5906C7.08255 21.5906 7.08255 21.5906 7.08256 21.5906C7.08256 21.5906 7.08256 21.5906 7.08256 21.5906C7.08256 21.5906 7.08257 21.5906 7.08257 21.5906C7.08257 21.5906 7.08257 21.5906 7.08257 21.5906C7.08258 21.5906 7.08258 21.5906 7.08258 21.5906C7.08258 21.5906 7.08259 21.5906 7.08259 21.5906C7.08259 21.5906 7.08259 21.5906 7.08259 21.5906C7.0826 21.5906 7.0826 21.5906 7.0826 21.5906C7.0826 21.5906 7.0826 21.5906 7.08261 21.5906C7.08261 21.5906 7.08261 21.5906 7.08261 21.5906C7.08261 21.5906 7.08262 21.5906 7.08262 21.5906C7.08262 21.5906 7.08262 21.5906 7.08263 21.5906C7.08263 21.5906 7.08263 21.5906 7.08263 21.5906C7.08263 21.5906 7.08264 21.5906 7.08264 21.5906C7.08264 21.5906 7.08264 21.5906 7.08264 21.5906C7.08265 21.5906 7.08265 21.5906 7.08265 21.5906C7.08265 21.5906 7.08265 21.5906 7.08266 21.5906C7.08266 21.5906 7.08266 21.5906 7.08266 21.5906V20.5906V19.5906C7.08266 19.5906 7.08266 19.5906 7.08266 19.5906C7.08265 19.5906 7.08265 19.5906 7.08265 19.5906C7.08265 19.5906 7.08265 19.5906 7.08264 19.5906C7.08264 19.5906 7.08264 19.5906 7.08264 19.5906C7.08264 19.5906 7.08263 19.5906 7.08263 19.5906C7.08263 19.5906 7.08263 19.5906 7.08263 19.5906C7.08262 19.5906 7.08262 19.5906 7.08262 19.5906C7.08262 19.5906 7.08261 19.5906 7.08261 19.5906C7.08261 19.5906 7.08261 19.5906 7.08261 19.5906C7.0826 19.5906 7.0826 19.5906 7.0826 19.5906C7.0826 19.5906 7.0826 19.5906 7.08259 19.5906C7.08259 19.5906 7.08259 19.5906 7.08259 19.5906C7.08259 19.5906 7.08258 19.5906 7.08258 19.5906C7.08258 19.5906 7.08258 19.5906 7.08257 19.5906C7.08257 19.5906 7.08257 19.5906 7.08257 19.5906C7.08257 19.5906 7.08256 19.5906 7.08256 19.5906C7.08256 19.5906 7.08256 19.5906 7.08256 19.5906C7.08255 19.5906 7.08255 19.5906 7.08255 19.5906C7.08255 19.5906 7.08255 19.5906 7.08254 19.5906C7.08254 19.5906 7.08254 19.5906 7.08254 19.5906C7.08253 19.5906 7.08253 19.5906 7.08253 19.5906C7.08253 19.5906 7.08253 19.5906 7.08252 19.5906C7.08252 19.5906 7.08252 19.5906 7.08252 19.5906C7.08252 19.5906 7.08251 19.5906 7.08251 19.5906C7.08251 19.5906 7.08251 19.5906 7.0825 19.5906C7.0825 19.5906 7.0825 19.5906 7.0825 19.5906C7.0825 19.5906 7.08249 19.5906 7.08249 19.5906C7.08249 19.5906 7.08249 19.5906 7.08249 19.5906C7.08248 19.5906 7.08248 19.5906 7.08248 19.5906C7.08248 19.5906 7.08247 19.5906 7.08247 19.5906C7.08247 19.5906 7.08247 19.5906 7.08247 19.5906C7.08246 19.5906 7.08246 19.5906 7.08246 19.5906C7.08246 19.5906 7.08246 19.5906 7.08245 19.5906C7.08245 19.5906 7.08245 19.5906 7.08245 19.5906C7.08244 19.5906 7.08244 19.5906 7.08244 19.5906C7.08244 19.5906 7.08244 19.5906 7.08243 19.5906C7.08243 19.5906 7.08243 19.5906 7.08243 19.5906C7.08243 19.5906 7.08242 19.5906 7.08242 19.5906C7.08242 19.5906 7.08242 19.5906 7.08241 19.5906C7.08241 19.5906 7.08241 19.5906 7.08241 19.5906C7.08241 19.5906 7.0824 19.5906 7.0824 19.5906C7.0824 19.5906 7.0824 19.5906 7.08239 19.5906C7.08239 19.5906 7.08239 19.5906 7.08239 19.5906C7.08239 19.5906 7.08238 19.5906 7.08238 19.5906C7.08238 19.5906 7.08238 19.5906 7.08238 19.5906C7.08237 19.5906 7.08237 19.5906 7.08237 19.5906C7.08237 19.5906 7.08236 19.5906 7.08236 19.5906C7.08236 19.5906 7.08236 19.5906 7.08236 19.5906C7.08235 19.5906 7.08235 19.5906 7.08235 19.5906C7.08235 19.5906 7.08234 19.5906 7.08234 19.5906C7.08234 19.5906 7.08234 19.5906 7.08234 19.5906C7.08233 19.5906 7.08233 19.5906 7.08233 19.5906C7.08233 19.5906 7.08232 19.5906 7.08232 19.5906C7.08232 19.5906 7.08232 19.5906 7.08232 19.5906C7.08231 19.5906 7.08231 19.5906 7.08231 19.5906C7.08231 19.5906 7.0823 19.5906 7.0823 19.5906C7.0823 19.5906 7.0823 19.5906 7.0823 19.5906C7.08229 19.5906 7.08229 19.5906 7.08229 19.5906C7.08229 19.5906 7.08229 19.5906 7.08228 19.5906C7.08228 19.5906 7.08228 19.5906 7.08228 19.5906C7.08227 19.5906 7.08227 19.5906 7.08227 19.5906C7.08227 19.5906 7.08227 19.5906 7.08226 19.5906C7.08226 19.5906 7.08226 19.5906 7.08226 19.5906C7.08225 19.5906 7.08225 19.5906 7.08225 19.5906C7.08225 19.5906 7.08225 19.5906 7.08224 19.5906C7.08224 19.5906 7.08224 19.5906 7.08224 19.5906C7.08223 19.5906 7.08223 19.5906 7.08223 19.5906C7.08223 19.5906 7.08223 19.5906 7.08222 19.5906C7.08222 19.5906 7.08222 19.5906 7.08222 19.5906C7.08221 19.5906 7.08221 19.5906 7.08221 19.5906C7.08221 19.5906 7.08221 19.5906 7.0822 19.5906C7.0822 19.5906 7.0822 19.5906 7.0822 19.5906C7.08219 19.5906 7.08219 19.5906 7.08219 19.5906C7.08219 19.5906 7.08219 19.5906 7.08218 19.5906C7.08218 19.5906 7.08218 19.5906 7.08218 19.5906C7.08217 19.5906 7.08217 19.5906 7.08217 19.5906C7.08217 19.5906 7.08217 19.5906 7.08216 19.5906C7.08216 19.5906 7.08216 19.5906 7.08216 19.5906C7.08215 19.5906 7.08215 19.5906 7.08215 19.5906C7.08215 19.5906 7.08215 19.5906 7.08214 19.5906C7.08214 19.5906 7.08214 19.5906 7.08214 19.5906C7.08213 19.5906 7.08213 19.5906 7.08213 19.5906C7.08213 19.5906 7.08213 19.5906 7.08212 19.5906C7.08212 19.5906 7.08212 19.5906 7.08212 19.5906C7.08211 19.5906 7.08211 19.5906 7.08211 19.5906C7.08211 19.5906 7.08211 19.5906 7.0821 19.5906C7.0821 19.5906 7.0821 19.5906 7.0821 19.5906C7.08209 19.5906 7.08209 19.5906 7.08209 19.5906C7.08209 19.5906 7.08209 19.5906 7.08208 19.5906C7.08208 19.5906 7.08208 19.5906 7.08208 19.5906C7.08207 19.5906 7.08207 19.5906 7.08207 19.5906C7.08207 19.5906 7.08207 19.5906 7.08206 19.5906C7.08206 19.5906 7.08206 19.5906 7.08206 19.5906C7.08205 19.5906 7.08205 19.5906 7.08205 19.5906C7.08205 19.5906 7.08205 19.5906 7.08204 19.5906C7.08204 19.5906 7.08204 19.5906 7.08204 19.5906C7.08203 19.5906 7.08203 19.5906 7.08203 19.5906C7.08203 19.5906 7.08202 19.5906 7.08202 19.5906C7.08202 19.5906 7.08202 19.5906 7.08202 19.5906C7.08201 19.5906 7.08201 19.5906 7.08201 19.5906C7.08201 19.5906 7.082 19.5906 7.082 19.5906C7.082 19.5906 7.082 19.5906 7.082 19.5906C7.08199 19.5906 7.08199 19.5906 7.08199 19.5906C7.08199 19.5906 7.08198 19.5906 7.08198 19.5906C7.08198 19.5906 7.08198 19.5906 7.08197 19.5906C7.08197 19.5906 7.08197 19.5906 7.08197 19.5906C7.08197 19.5906 7.08196 19.5906 7.08196 19.5906C7.08196 19.5906 7.08196 19.5906 7.08195 19.5906C7.08195 19.5906 7.08195 19.5906 7.08195 19.5906C7.08195 19.5906 7.08194 19.5906 7.08194 19.5906C7.08194 19.5906 7.08194 19.5906 7.08193 19.5906C7.08193 19.5906 7.08193 19.5906 7.08193 19.5906C7.08192 19.5906 7.08192 19.5906 7.08192 19.5906C7.08192 19.5906 7.08192 19.5906 7.08191 19.5906C7.08191 19.5906 7.08191 19.5906 7.08191 19.5906C7.0819 19.5906 7.0819 19.5906 7.0819 19.5906C7.0819 19.5906 7.0819 19.5906 7.08189 19.5906C7.08189 19.5906 7.08189 19.5906 7.08189 19.5906C7.08188 19.5906 7.08188 19.5906 7.08188 19.5906C7.08188 19.5906 7.08187 19.5906 7.08187 19.5906C7.08187 19.5906 7.08187 19.5906 7.08187 19.5906C7.08186 19.5906 7.08186 19.5906 7.08186 19.5906C7.08186 19.5906 7.08185 19.5906 7.08185 19.5906C7.08185 19.5906 7.08185 19.5906 7.08185 19.5906C7.08184 19.5906 7.08184 19.5906 7.08184 19.5906C7.08184 19.5906 7.08183 19.5906 7.08183 19.5906C7.08183 19.5906 7.08183 19.5906 7.08182 19.5906C7.08182 19.5906 7.08182 19.5906 7.08182 19.5906C7.08182 19.5906 7.08181 19.5906 7.08181 19.5906C7.08181 19.5906 7.08181 19.5906 7.0818 19.5906C7.0818 19.5906 7.0818 19.5906 7.0818 19.5906C7.0818 19.5906 7.08179 19.5906 7.08179 19.5906C7.08179 19.5906 7.08179 19.5906 7.08178 19.5906C7.08178 19.5906 7.08178 19.5906 7.08178 19.5906C7.08177 19.5906 7.08177 19.5906 7.08177 19.5906C7.08177 19.5906 7.08177 19.5906 7.08176 19.5906C7.08176 19.5906 7.08176 19.5906 7.08176 19.5906C7.08175 19.5906 7.08175 19.5906 7.08175 19.5906C7.08175 19.5906 7.08174 19.5906 7.08174 19.5906C7.08174 19.5906 7.08174 19.5906 7.08174 19.5906C7.08173 19.5906 7.08173 19.5906 7.08173 19.5906C7.08173 19.5906 7.08172 19.5906 7.08172 19.5906C7.08172 19.5906 7.08172 19.5906 7.08171 19.5906C7.08171 19.5906 7.08171 19.5906 7.08171 19.5906C7.08171 19.5906 7.0817 19.5906 7.0817 19.5906C7.0817 19.5906 7.0817 19.5906 7.08169 19.5906C7.08169 19.5906 7.08169 19.5906 7.08169 19.5906C7.08168 19.5906 7.08168 19.5906 7.08168 19.5906C7.08168 19.5906 7.08168 19.5906 7.08167 19.5906C7.08167 19.5906 7.08167 19.5906 7.08167 19.5906C7.08166 19.5906 7.08166 19.5906 7.08166 19.5906C7.08166 19.5906 7.08165 19.5906 7.08165 19.5906C7.08165 19.5906 7.08165 19.5906 7.08165 19.5906C7.08164 19.5906 7.08164 19.5906 7.08164 19.5906C7.08164 19.5906 7.08163 19.5906 7.08163 19.5906C7.08163 19.5906 7.08163 19.5906 7.08162 19.5906C7.08162 19.5906 7.08162 19.5906 7.08162 19.5906C7.08162 19.5906 7.08161 19.5906 7.08161 19.5906C7.08161 19.5906 7.08161 19.5906 7.0816 19.5906C7.0816 19.5906 7.0816 19.5906 7.0816 19.5906C7.08159 19.5906 7.08159 19.5906 7.08159 19.5906C7.08159 19.5906 7.08159 19.5906 7.08158 19.5906C7.08158 19.5906 7.08158 19.5906 7.08158 19.5906C7.08157 19.5906 7.08157 19.5906 7.08157 19.5906C7.08157 19.5906 7.08156 19.5906 7.08156 19.5906C7.08156 19.5906 7.08156 19.5906 7.08155 19.5906C7.08155 19.5906 7.08155 19.5906 7.08155 19.5906C7.08155 19.5906 7.08154 19.5906 7.08154 19.5906C7.08154 19.5906 7.08154 19.5906 7.08153 19.5906C7.08153 19.5906 7.08153 19.5906 7.08153 19.5906C7.08152 19.5906 7.08152 19.5906 7.08152 19.5906C7.08152 19.5906 7.08152 19.5906 7.08151 19.5906C7.08151 19.5906 7.08151 19.5906 7.08151 19.5906C7.0815 19.5906 7.0815 19.5906 7.0815 19.5906C7.0815 19.5906 7.08149 19.5906 7.08149 19.5906C7.08149 19.5906 7.08149 19.5906 7.08149 19.5906C7.08148 19.5906 7.08148 19.5906 7.08148 19.5906C7.08148 19.5906 7.08147 19.5906 7.08147 19.5906C7.08147 19.5906 7.08147 19.5906 7.08146 19.5906C7.08146 19.5906 7.08146 19.5906 7.08146 19.5906C7.08145 19.5906 7.08145 19.5906 7.08145 19.5906C7.08145 19.5906 7.08145 19.5906 7.08144 19.5906C7.08144 19.5906 7.08144 19.5906 7.08144 19.5906C7.08143 19.5906 7.08143 19.5906 7.08143 19.5906C7.08143 19.5906 7.08142 19.5906 7.08142 19.5906C7.08142 19.5906 7.08142 19.5906 7.08142 19.5906C7.08141 19.5906 7.08141 19.5906 7.08141 19.5906C7.08141 19.5906 7.0814 19.5906 7.0814 19.5906C7.0814 19.5906 7.0814 19.5906 7.08139 19.5906C7.08139 19.5906 7.08139 19.5906 7.08139 19.5906C7.08139 19.5906 7.08138 19.5906 7.08138 19.5906C7.08138 19.5906 7.08138 19.5906 7.08137 19.5906C7.08137 19.5906 7.08137 19.5906 7.08137 19.5906C7.08136 19.5906 7.08136 19.5906 7.08136 19.5906C7.08136 19.5906 7.08135 19.5906 7.08135 19.5906C7.08135 19.5906 7.08135 19.5906 7.08135 19.5906C7.08134 19.5906 7.08134 19.5906 7.08134 19.5906C7.08134 19.5906 7.08133 19.5906 7.08133 19.5906C7.08133 19.5906 7.08133 19.5906 7.08132 19.5906C7.08132 19.5906 7.08132 19.5906 7.08132 19.5906C7.08131 19.5906 7.08131 19.5906 7.08131 19.5906C7.08131 19.5906 7.08131 19.5906 7.0813 19.5906C7.0813 19.5906 7.0813 19.5906 7.0813 19.5906C7.08129 19.5906 7.08129 19.5906 7.08129 19.5906C7.08129 19.5906 7.08128 19.5906 7.08128 19.5906C7.08128 19.5906 7.08128 19.5906 7.08127 19.5906C7.08127 19.5906 7.08127 19.5906 7.08127 19.5906C7.08127 19.5906 7.08126 19.5906 7.08126 19.5906C7.08126 19.5906 7.08126 19.5906 7.08125 19.5906C7.08125 19.5906 7.08125 19.5906 7.08125 19.5906C7.08124 19.5906 7.08124 19.5906 7.08124 19.5906C7.08124 19.5906 7.08123 19.5906 7.08123 19.5906C7.08123 19.5906 7.08123 19.5906 7.08123 19.5906C7.08122 19.5906 7.08122 19.5906 7.08122 19.5906C7.08122 19.5906 7.08121 19.5906 7.08121 19.5906C7.08121 19.5906 7.08121 19.5906 7.0812 19.5906C7.0812 19.5906 7.0812 19.5906 7.0812 19.5906C7.0812 19.5906 7.08119 19.5906 7.08119 19.5906C7.08119 19.5906 7.08119 19.5906 7.08118 19.5906C7.08118 19.5906 7.08118 19.5906 7.08118 19.5906C7.08117 19.5906 7.08117 19.5906 7.08117 19.5906C7.08117 19.5906 7.08116 19.5906 7.08116 19.5906C7.08116 19.5906 7.08116 19.5906 7.08116 19.5906C7.08115 19.5906 7.08115 19.5906 7.08115 19.5906C7.08115 19.5906 7.08114 19.5906 7.08114 19.5906C7.08114 19.5906 7.08114 19.5906 7.08113 19.5906C7.08113 19.5906 7.08113 19.5906 7.08113 19.5906C7.08112 19.5906 7.08112 19.5906 7.08112 19.5906C7.08112 19.5906 7.08112 19.5906 7.08111 19.5906C7.08111 19.5906 7.08111 19.5906 7.08111 19.5906C7.0811 19.5906 7.0811 19.5906 7.0811 19.5906C7.0811 19.5906 7.08109 19.5906 7.08109 19.5906C7.08109 19.5906 7.08109 19.5906 7.08108 19.5906C7.08108 19.5906 7.08108 19.5906 7.08108 19.5906C7.08108 19.5906 7.08107 19.5906 7.08107 19.5906C7.08107 19.5906 7.08107 19.5906 7.08106 19.5906C7.08106 19.5906 7.08106 19.5906 7.08106 19.5906C7.08105 19.5906 7.08105 19.5906 7.08105 19.5906C7.08105 19.5906 7.08104 19.5906 7.08104 19.5906C7.08104 19.5906 7.08104 19.5906 7.08104 19.5906C7.08103 19.5906 7.08103 19.5906 7.08103 19.5906C7.08103 19.5906 7.08102 19.5906 7.08102 19.5906C7.08102 19.5906 7.08102 19.5906 7.08101 19.5906C7.08101 19.5906 7.08101 19.5906 7.08101 19.5906C7.081 19.5906 7.081 19.5906 7.081 19.5906C7.081 19.5906 7.081 19.5906 7.08099 19.5906C7.08099 19.5906 7.08099 19.5906 7.08099 19.5906C7.08098 19.5906 7.08098 19.5906 7.08098 19.5906C7.08098 19.5906 7.08097 19.5906 7.08097 19.5906C7.08097 19.5906 7.08097 19.5906 7.08096 19.5906C7.08096 19.5906 7.08096 19.5906 7.08096 19.5906C7.08096 19.5906 7.08095 19.5906 7.08095 19.5906C7.08095 19.5906 7.08095 19.5906 7.08094 19.5906C7.08094 19.5906 7.08094 19.5906 7.08094 19.5906C7.08093 19.5906 7.08093 19.5906 7.08093 19.5906C7.08093 19.5906 7.08092 19.5906 7.08092 19.5906C7.08092 19.5906 7.08092 19.5906 7.08091 19.5906C7.08091 19.5906 7.08091 19.5906 7.08091 19.5906C7.08091 19.5906 7.0809 19.5906 7.0809 19.5906C7.0809 19.5906 7.0809 19.5906 7.08089 19.5906C7.08089 19.5906 7.08089 19.5906 7.08089 19.5906C7.08088 19.5906 7.08088 19.5906 7.08088 19.5906C7.08088 19.5906 7.08087 19.5906 7.08087 19.5906C7.08087 19.5906 7.08087 19.5906 7.08087 19.5906C7.08086 19.5906 7.08086 19.5906 7.08086 19.5906C7.08086 19.5906 7.08085 19.5906 7.08085 19.5906C7.08085 19.5906 7.08085 19.5906 7.08084 19.5906C7.08084 19.5906 7.08084 19.5906 7.08084 19.5906C7.08084 19.5906 7.08083 19.5906 7.08083 19.5906C7.08083 19.5906 7.08083 19.5906 7.08082 19.5906C7.08082 19.5906 7.08082 19.5906 7.08082 19.5906C7.08081 19.5906 7.08081 19.5906 7.08081 19.5906C7.08081 19.5906 7.0808 19.5906 7.0808 19.5906C7.0808 19.5906 7.0808 19.5906 7.0808 19.5906C7.08079 19.5906 7.08079 19.5906 7.08079 19.5906C7.08079 19.5906 7.08078 19.5906 7.08078 19.5906C7.08078 19.5906 7.08078 19.5906 7.08077 19.5906C7.08077 19.5906 7.08077 19.5906 7.08077 19.5906C7.08076 19.5906 7.08076 19.5906 7.08076 19.5906C7.08076 19.5906 7.08076 19.5906 7.08075 19.5906C7.08075 19.5906 7.08075 19.5906 7.08075 19.5906C7.08074 19.5906 7.08074 19.5906 7.08074 19.5906C7.08074 19.5906 7.08073 19.5906 7.08073 19.5906C7.08073 19.5906 7.08073 19.5906 7.08072 19.5906C7.08072 19.5906 7.08072 19.5906 7.08072 19.5906C7.08072 19.5906 7.08071 19.5906 7.08071 19.5906C7.08071 19.5906 7.08071 19.5906 7.0807 19.5906C7.0807 19.5906 7.0807 19.5906 7.0807 19.5906C7.08069 19.5906 7.08069 19.5906 7.08069 19.5906C7.08069 19.5906 7.08068 19.5906 7.08068 19.5906C7.08068 19.5906 7.08068 19.5906 7.08068 19.5906C7.08067 19.5906 7.08067 19.5906 7.08067 19.5906C7.08067 19.5906 7.08066 19.5906 7.08066 19.5906C7.08066 19.5906 7.08066 19.5906 7.08065 19.5906C7.08065 19.5906 7.08065 19.5906 7.08065 19.5906C7.08064 19.5906 7.08064 19.5906 7.08064 19.5906C7.08064 19.5906 7.08064 19.5906 7.08063 19.5906C7.08063 19.5906 7.08063 19.5906 7.08063 19.5906C7.08062 19.5906 7.08062 19.5906 7.08062 19.5906C7.08062 19.5906 7.08061 19.5906 7.08061 19.5906C7.08061 19.5906 7.08061 19.5906 7.0806 19.5906C7.0806 19.5906 7.0806 19.5906 7.0806 19.5906C7.0806 19.5906 7.08059 19.5906 7.08059 19.5906C7.08059 19.5906 7.08059 19.5906 7.08058 19.5906C7.08058 19.5906 7.08058 19.5906 7.08058 19.5906C7.08057 19.5906 7.08057 19.5906 7.08057 19.5906C7.08057 19.5906 7.08056 19.5906 7.08056 19.5906C7.08056 19.5906 7.08056 19.5906 7.08056 19.5906C7.08055 19.5906 7.08055 19.5906 7.08055 19.5906C7.08055 19.5906 7.08054 19.5906 7.08054 19.5906C7.08054 19.5906 7.08054 19.5906 7.08053 19.5906C7.08053 19.5906 7.08053 19.5906 7.08053 19.5906C7.08052 19.5906 7.08052 19.5906 7.08052 19.5906C7.08052 19.5906 7.08052 19.5906 7.08051 19.5906C7.08051 19.5906 7.08051 19.5906 7.08051 19.5906C7.0805 19.5906 7.0805 19.5906 7.0805 19.5906C7.0805 19.5906 7.08049 19.5906 7.08049 19.5906C7.08049 19.5906 7.08049 19.5906 7.08049 19.5906C7.08048 19.5906 7.08048 19.5906 7.08048 19.5906C7.08048 19.5906 7.08047 19.5906 7.08047 19.5906C7.08047 19.5906 7.08047 19.5906 7.08046 19.5906C7.08046 19.5906 7.08046 19.5906 7.08046 19.5906C7.08045 19.5906 7.08045 19.5906 7.08045 19.5906C7.08045 19.5906 7.08045 19.5906 7.08044 19.5906C7.08044 19.5906 7.08044 19.5906 7.08044 19.5906C7.08043 19.5906 7.08043 19.5906 7.08043 19.5906C7.08043 19.5906 7.08042 19.5906 7.08042 19.5906C7.08042 19.5906 7.08042 19.5906 7.08042 19.5906C7.08041 19.5906 7.08041 19.5906 7.08041 19.5906C7.08041 19.5906 7.0804 19.5906 7.0804 19.5906C7.0804 19.5906 7.0804 19.5906 7.08039 19.5906C7.08039 19.5906 7.08039 19.5906 7.08039 19.5906C7.08038 19.5906 7.08038 19.5906 7.08038 19.5906C7.08038 19.5906 7.08038 19.5906 7.08037 19.5906C7.08037 19.5906 7.08037 19.5906 7.08037 19.5906C7.08036 19.5906 7.08036 19.5906 7.08036 19.5906C7.08036 19.5906 7.08035 19.5906 7.08035 19.5906C7.08035 19.5906 7.08035 19.5906 7.08035 19.5906C7.08034 19.5906 7.08034 19.5906 7.08034 19.5906C7.08034 19.5906 7.08033 19.5906 7.08033 19.5906C7.08033 19.5906 7.08033 19.5906 7.08032 19.5906C7.08032 19.5906 7.08032 19.5906 7.08032 19.5906C7.08032 19.5906 7.08031 19.5906 7.08031 19.5906C7.08031 19.5906 7.08031 19.5906 7.0803 19.5906C7.0803 19.5906 7.0803 19.5906 7.0803 19.5906C7.08029 19.5906 7.08029 19.5906 7.08029 19.5906C7.08029 19.5906 7.08028 19.5906 7.08028 19.5906C7.08028 19.5906 7.08028 19.5906 7.08028 19.5906C7.08027 19.5906 7.08027 19.5906 7.08027 19.5906C7.08027 19.5906 7.08026 19.5906 7.08026 19.5906C7.08026 19.5906 7.08026 19.5906 7.08025 19.5906C7.08025 19.5906 7.08025 19.5906 7.08025 19.5906C7.08025 19.5906 7.08024 19.5906 7.08024 19.5906C7.08024 19.5906 7.08024 19.5906 7.08023 19.5906C7.08023 19.5906 7.08023 19.5906 7.08023 19.5906C7.08022 19.5906 7.08022 19.5906 7.08022 19.5906C7.08022 19.5906 7.08022 19.5906 7.08021 19.5906C7.08021 19.5906 7.08021 19.5906 7.08021 19.5906C7.0802 19.5906 7.0802 19.5906 7.0802 19.5906C7.0802 19.5906 7.08019 19.5906 7.08019 19.5906C7.08019 19.5906 7.08019 19.5906 7.08019 19.5906C7.08018 19.5906 7.08018 19.5906 7.08018 19.5906C7.08018 19.5906 7.08017 19.5906 7.08017 19.5906C7.08017 19.5906 7.08017 19.5906 7.08016 19.5906C7.08016 19.5906 7.08016 19.5906 7.08016 19.5906C7.08016 19.5906 7.08015 19.5906 7.08015 19.5906C7.08015 19.5906 7.08015 19.5906 7.08014 19.5906C7.08014 19.5906 7.08014 19.5906 7.08014 19.5906C7.08013 19.5906 7.08013 19.5906 7.08013 19.5906C7.08013 19.5906 7.08013 19.5906 7.08012 19.5906C7.08012 19.5906 7.08012 19.5906 7.08012 19.5906C7.08011 19.5906 7.08011 19.5906 7.08011 19.5906C7.08011 19.5906 7.0801 19.5906 7.0801 19.5906C7.0801 19.5906 7.0801 19.5906 7.0801 19.5906C7.08009 19.5906 7.08009 19.5906 7.08009 19.5906C7.08009 19.5906 7.08008 19.5906 7.08008 19.5906C7.08008 19.5906 7.08008 19.5906 7.08007 19.5906C7.08007 19.5906 7.08007 19.5906 7.08007 19.5906C7.08007 19.5906 7.08006 19.5906 7.08006 19.5906C7.08006 19.5906 7.08006 19.5906 7.08005 19.5906C7.08005 19.5906 7.08005 19.5906 7.08005 19.5906C7.08004 19.5906 7.08004 19.5906 7.08004 19.5906C7.08004 19.5906 7.08004 19.5906 7.08003 19.5906C7.08003 19.5906 7.08003 19.5906 7.08003 19.5906C7.08002 19.5906 7.08002 19.5906 7.08002 19.5906C7.08002 19.5906 7.08002 19.5906 7.08001 19.5906C7.08001 19.5906 7.08001 19.5906 7.08001 19.5906C7.08 19.5906 7.08 19.5906 7.08 19.5906C7.08 19.5906 7.07999 19.5906 7.07999 19.5906C7.07999 19.5906 7.07999 19.5906 7.07999 19.5906C7.07998 19.5906 7.07998 19.5906 7.07998 19.5906C7.07998 19.5906 7.07997 19.5906 7.07997 19.5906C7.07997 19.5906 7.07997 19.5906 7.07996 19.5906C7.07996 19.5906 7.07996 19.5906 7.07996 19.5906C7.07996 19.5906 7.07995 19.5906 7.07995 19.5906C7.07995 19.5906 7.07995 19.5906 7.07994 19.5906C7.07994 19.5906 7.07994 19.5906 7.07994 19.5906C7.07994 19.5906 7.07993 19.5906 7.07993 19.5906C7.07993 19.5906 7.07993 19.5906 7.07992 19.5906C7.07992 19.5906 7.07992 19.5906 7.07992 19.5906C7.07991 19.5906 7.07991 19.5906 7.07991 19.5906C7.07991 19.5906 7.07991 19.5906 7.0799 19.5906C7.0799 19.5906 7.0799 19.5906 7.0799 19.5906C7.07989 19.5906 7.07989 19.5906 7.07989 19.5906C7.07989 19.5906 7.07989 19.5906 7.07988 19.5906C7.07988 19.5906 7.07988 19.5906 7.07988 19.5906C7.07987 19.5906 7.07987 19.5906 7.07987 19.5906C7.07987 19.5906 7.07986 19.5906 7.07986 19.5906C7.07986 19.5906 7.07986 19.5906 7.07986 19.5906C7.07985 19.5906 7.07985 19.5906 7.07985 19.5906C7.07985 19.5906 7.07984 19.5906 7.07984 19.5906C7.07984 19.5906 7.07984 19.5906 7.07984 19.5906C7.07983 19.5906 7.07983 19.5906 7.07983 19.5906C7.07983 19.5906 7.07982 19.5906 7.07982 19.5906C7.07982 19.5906 7.07982 19.5906 7.07982 19.5906C7.07981 19.5906 7.07981 19.5906 7.07981 19.5906C7.07981 19.5906 7.0798 19.5906 7.0798 19.5906C7.0798 19.5906 7.0798 19.5906 7.07979 19.5906C7.07979 19.5906 7.07979 19.5906 7.07979 19.5906C7.07979 19.5906 7.07978 19.5906 7.07978 19.5906C7.07978 19.5906 7.07978 19.5906 7.07977 19.5906C7.07977 19.5906 7.07977 19.5906 7.07977 19.5906C7.07977 19.5906 7.07976 19.5906 7.07976 19.5906C7.07976 19.5906 7.07976 19.5906 7.07975 19.5906C7.07975 19.5906 7.07975 19.5906 7.07975 19.5906C7.07975 19.5906 7.07974 19.5906 7.07974 19.5906C7.07974 19.5906 7.07974 19.5906 7.07973 19.5906C7.07973 19.5906 7.07973 19.5906 7.07973 19.5906C7.07973 19.5906 7.07972 19.5906 7.07972 19.5906C7.07972 19.5906 7.07972 19.5906 7.07971 19.5906C7.07971 19.5906 7.07971 19.5906 7.07971 19.5906C7.07971 19.5906 7.0797 19.5906 7.0797 19.5906C7.0797 19.5906 7.0797 19.5906 7.07969 19.5906C7.07969 19.5906 7.07969 19.5906 7.07969 19.5906C7.07969 19.5906 7.07968 19.5906 7.07968 19.5906C7.07968 19.5906 7.07968 19.5906 7.07967 19.5906C7.07967 19.5906 7.07967 19.5906 7.07967 19.5906C7.07967 19.5906 7.07966 19.5906 7.07966 19.5906C7.07966 19.5906 7.07966 19.5906 7.07965 19.5906C7.07965 19.5906 7.07965 19.5906 7.07965 19.5906C7.07965 19.5906 7.07964 19.5906 7.07964 19.5906C7.07964 19.5906 7.07964 19.5906 7.07963 19.5906C7.07963 19.5906 7.07963 19.5906 7.07963 19.5906C7.07963 19.5906 7.07962 19.5906 7.07962 19.5906C7.07962 19.5906 7.07962 19.5906 7.07961 19.5906C7.07961 19.5906 7.07961 19.5906 7.07961 19.5906C7.07961 19.5906 7.0796 19.5906 7.0796 19.5906C7.0796 19.5906 7.0796 19.5906 7.07959 19.5906C7.07959 19.5906 7.07959 19.5906 7.07959 19.5906C7.07959 19.5906 7.07958 19.5906 7.07958 19.5906C7.07958 19.5906 7.07958 19.5906 7.07957 19.5906C7.07957 19.5906 7.07957 19.5906 7.07957 19.5906C7.07957 19.5906 7.07956 19.5906 7.07956 19.5906C7.07956 19.5906 7.07956 19.5906 7.07955 19.5906C7.07955 19.5906 7.07955 19.5906 7.07955 19.5906C7.07955 19.5906 7.07954 19.5906 7.07954 19.5906C7.07954 19.5906 7.07954 19.5906 7.07954 19.5906C7.07953 19.5906 7.07953 19.5906 7.07953 19.5906C7.07953 19.5906 7.07952 19.5906 7.07952 19.5906C7.07952 19.5906 7.07952 19.5906 7.07952 19.5906C7.07951 19.5906 7.07951 19.5906 7.07951 19.5906C7.07951 19.5906 7.0795 19.5906 7.0795 19.5906C7.0795 19.5906 7.0795 19.5906 7.0795 19.5906C7.07949 19.5906 7.07949 19.5906 7.07949 19.5906C7.07949 19.5906 7.07948 19.5906 7.07948 19.5906C7.07948 19.5906 7.07948 19.5906 7.07948 19.5906C7.07947 19.5906 7.07947 19.5906 7.07947 19.5906C7.07947 19.5906 7.07946 19.5906 7.07946 19.5906C7.07946 19.5906 7.07946 19.5906 7.07946 19.5906C7.07945 19.5906 7.07945 19.5906 7.07945 19.5906C7.07945 19.5906 7.07945 19.5906 7.07944 19.5906C7.07944 19.5906 7.07944 19.5906 7.07944 19.5906C7.07943 19.5906 7.07943 19.5906 7.07943 19.5906C7.07943 19.5906 7.07943 19.5906 7.07942 19.5906C7.07942 19.5906 7.07942 19.5906 7.07942 19.5906C7.07942 19.5906 7.07941 19.5906 7.07941 19.5906C7.07941 19.5906 7.07941 19.5906 7.0794 19.5906C7.0794 19.5906 7.0794 19.5906 7.0794 19.5906C7.0794 19.5906 7.07939 19.5906 7.07939 19.5906C7.07939 19.5906 7.07939 19.5906 7.07938 19.5906C7.07938 19.5906 7.07938 19.5906 7.07938 19.5906C7.07938 19.5906 7.07937 19.5906 7.07937 19.5906C7.07937 19.5906 7.07937 19.5906 7.07937 19.5906C7.07936 19.5906 7.07936 19.5906 7.07936 19.5906C7.07936 19.5906 7.07935 19.5906 7.07935 19.5906C7.07935 19.5906 7.07935 19.5906 7.07935 19.5906C7.07934 19.5906 7.07934 19.5906 7.07934 19.5906C7.07934 19.5906 7.07934 19.5906 7.07933 19.5906C7.07933 19.5906 7.07933 19.5906 7.07933 19.5906C7.07932 19.5906 7.07932 19.5906 7.07932 19.5906C7.07932 19.5906 7.07932 19.5906 7.07931 19.5906C7.07931 19.5906 7.07931 19.5906 7.07931 19.5906C7.07931 19.5906 7.0793 19.5906 7.0793 19.5906C7.0793 19.5906 7.0793 19.5906 7.0793 19.5906C7.07929 19.5906 7.07929 19.5906 7.07929 19.5906C7.07929 19.5906 7.07928 19.5906 7.07928 19.5906C7.07928 19.5906 7.07928 19.5906 7.07928 19.5906C7.07927 19.5906 7.07927 19.5906 7.07927 19.5906C7.07927 19.5906 7.07927 19.5906 7.07926 19.5906C7.07926 19.5906 7.07926 19.5906 7.07926 19.5906C7.07925 19.5906 7.07925 19.5906 7.07925 19.5906C7.07925 19.5906 7.07925 19.5906 7.07924 19.5906C7.07924 19.5906 7.07924 19.5906 7.07924 19.5906C7.07924 19.5906 7.07923 19.5906 7.07923 19.5906C7.07923 19.5906 7.07923 19.5906 7.07923 19.5906C7.07922 19.5906 7.07922 19.5906 7.07922 19.5906C7.07922 19.5906 7.07921 19.5906 7.07921 19.5906C7.07921 19.5906 7.07921 19.5906 7.07921 19.5906C7.0792 19.5906 7.0792 19.5906 7.0792 19.5906C7.0792 19.5906 7.0792 19.5906 7.07919 19.5906C7.07919 19.5906 7.07919 19.5906 7.07919 19.5906C7.07919 19.5906 7.07918 19.5906 7.07918 19.5906V20.5906ZM7.08266 20.5906V21.5906C7.56736 21.5906 8.01713 21.3402 8.27279 20.9296L7.42392 20.401L6.57506 19.8724C6.68393 19.6976 6.87547 19.5906 7.08266 19.5906V20.5906ZM7.42392 20.401L8.27308 20.9291L9.64456 18.7241L8.7954 18.1959L7.94625 17.6678L6.57477 19.8729L7.42392 20.401ZM8.7954 18.1959L8.6877 19.1901C9.95006 19.3269 11.0204 19.6352 11.7431 20.0005C12.1062 20.1839 12.3399 20.3609 12.4699 20.501C12.6001 20.6413 12.5696 20.6791 12.5696 20.6174H13.5696H14.5696C14.5696 20.0114 14.2795 19.5108 13.936 19.1406C13.5924 18.7703 13.1384 18.4647 12.6452 18.2154C11.6552 17.7152 10.3384 17.3572 8.9031 17.2017L8.7954 18.1959ZM13.5696 20.6174L12.5696 20.6177C12.5696 20.5343 12.611 20.5956 12.4107 20.7869C12.2202 20.9688 11.8899 21.1871 11.3974 21.3967C10.4187 21.8131 8.96056 22.1263 7.18686 22.1263V23.1263V24.1263C9.17482 24.1263 10.9082 23.7783 12.1805 23.237C12.8135 22.9677 13.3736 22.633 13.7921 22.2332C14.2007 21.8429 14.5697 21.2939 14.5696 20.6172L13.5696 20.6174Z" fill="#FEFDFF" mask="url(#path-1-inside-1_2190_303)"/>
<mask id="path-3-inside-2_2190_303" fill="white">
<path d="M9.79671 7.1757C9.79671 5.73698 8.62613 4.56641 7.18742 4.56641C5.7487 4.56641 4.57812 5.73698 4.57812 7.1757C4.57812 8.61441 5.7487 9.78499 7.18742 9.78499C8.62613 9.78499 9.79671 8.61441 9.79671 7.1757ZM5.38173 7.1757C5.38173 6.18003 6.19175 5.37001 7.18742 5.37001C8.18308 5.37001 8.9931 6.18003 8.9931 7.1757C8.9931 8.17136 8.18334 8.98138 7.18742 8.98138C6.19149 8.98138 5.38173 8.17136 5.38173 7.1757Z"/>
</mask>
<path d="M9.79671 7.1757C9.79671 5.73698 8.62613 4.56641 7.18742 4.56641C5.7487 4.56641 4.57812 5.73698 4.57812 7.1757C4.57812 8.61441 5.7487 9.78499 7.18742 9.78499C8.62613 9.78499 9.79671 8.61441 9.79671 7.1757ZM5.38173 7.1757C5.38173 6.18003 6.19175 5.37001 7.18742 5.37001C8.18308 5.37001 8.9931 6.18003 8.9931 7.1757C8.9931 8.17136 8.18334 8.98138 7.18742 8.98138C6.19149 8.98138 5.38173 8.17136 5.38173 7.1757Z" fill="#6A48CA"/>
<path d="M9.79671 7.1757H10.7967C10.7967 5.1847 9.17841 3.56641 7.18742 3.56641V4.56641V5.56641C8.07384 5.56641 8.79671 6.28927 8.79671 7.1757H9.79671ZM7.18742 4.56641V3.56641C5.19642 3.56641 3.57812 5.1847 3.57812 7.1757H4.57812H5.57812C5.57812 6.28927 6.30099 5.56641 7.18742 5.56641V4.56641ZM4.57812 7.1757H3.57812C3.57812 9.16669 5.19642 10.785 7.18742 10.785V9.78499V8.78499C6.30099 8.78499 5.57812 8.06212 5.57812 7.1757H4.57812ZM7.18742 9.78499V10.785C9.17841 10.785 10.7967 9.16669 10.7967 7.1757H9.79671H8.79671C8.79671 8.06212 8.07384 8.78499 7.18742 8.78499V9.78499ZM5.38173 7.1757H6.38173C6.38173 6.73232 6.74404 6.37001 7.18742 6.37001V5.37001V4.37001C5.63947 4.37001 4.38173 5.62775 4.38173 7.1757H5.38173ZM7.18742 5.37001V6.37001C7.63079 6.37001 7.99311 6.73232 7.99311 7.1757H8.9931H9.9931C9.9931 5.62775 8.73536 4.37001 7.18742 4.37001V5.37001ZM8.9931 7.1757H7.99311C7.99311 7.61917 7.63096 7.98138 7.18742 7.98138V8.98138V9.98138C8.73572 9.98138 9.9931 8.72354 9.9931 7.1757H8.9931ZM7.18742 8.98138V7.98138C6.74387 7.98138 6.38173 7.61917 6.38173 7.1757H5.38173H4.38173C4.38173 8.72354 5.63911 9.98138 7.18742 9.98138V8.98138Z" fill="#FEFDFF" mask="url(#path-3-inside-2_2190_303)"/>
</svg>
