<svg width="52" height="58" viewBox="0 0 52 58" fill="none" xmlns="http://www.w3.org/2000/svg">
<path d="M43.9444 13.7225C45.5818 12.111 47.7511 12.0542 49.3007 13.0821C50.7108 14.0118 51.3513 15.3754 51.1654 17.0386C50.9742 18.7173 50.0497 19.9208 48.433 20.489C48.0404 20.6284 47.9423 20.804 47.9423 21.1914C47.9526 26.3825 47.9526 31.5787 47.9423 36.7697C47.9423 37.1003 48.0249 37.2501 48.3606 37.3689C50.2098 37.9939 51.3203 39.7242 51.186 41.687C51.062 43.5155 49.6261 45.1115 47.746 45.4318C46.4289 45.6539 45.2202 45.3285 44.213 44.4194C43.9909 44.2179 43.8462 44.2179 43.6035 44.3626C39.0529 47.002 34.4972 49.6311 29.9363 52.255C29.6626 52.41 29.6161 52.5701 29.6729 52.8593C29.9828 54.538 29.487 55.9585 28.1388 56.9967C26.7959 58.0349 25.267 58.1795 23.7484 57.4305C22.2505 56.6919 21.4602 55.4264 21.4344 53.7271C21.4344 53.4895 21.4034 53.2364 21.4757 53.0195C21.6152 52.5959 21.4912 52.3841 21.1038 52.162C16.6359 49.6052 12.1783 47.0278 7.72077 44.4452C7.39537 44.2593 7.19392 44.2231 6.87368 44.4969C5.52556 45.6384 3.7229 45.8346 2.2095 45.0082C0.618612 44.1353 -0.140674 42.7407 0.0246124 40.9535C0.189899 39.1664 1.19195 37.9474 2.90163 37.3534C3.00494 37.3172 3.10824 37.2759 3.23737 37.2294V36.7594C3.23737 31.5683 3.23737 26.3721 3.24254 21.1811C3.24254 20.8402 3.19089 20.6594 2.81383 20.5354C1.20228 19.9724 0.0762645 18.4797 0.00395155 16.863C-0.0683614 15.0603 0.856211 13.4901 2.4161 12.7825C3.99149 12.0645 5.77349 12.3641 7.05446 13.5521C7.11128 13.6037 7.17326 13.6554 7.25074 13.7225C8.88811 12.7773 10.5203 11.8372 12.1474 10.8972C15.169 9.15649 18.1803 7.40549 21.2071 5.67514C21.517 5.49953 21.5584 5.32391 21.5016 4.99333C21.2226 3.3353 21.703 1.93037 23.0459 0.902489C24.3992 -0.135718 25.9126 -0.275178 27.4364 0.468612C28.9291 1.19691 29.6987 2.45205 29.7504 4.12558C29.7556 4.36318 29.7969 4.62661 29.7142 4.83321C29.518 5.3394 29.7607 5.54601 30.1636 5.77845C34.6573 8.35589 39.1459 10.9488 43.6345 13.5418C43.7274 13.5986 43.8256 13.6502 43.9341 13.7122L43.9444 13.7225ZM22.5191 7.06458C17.8188 9.77632 13.1391 12.4777 8.4594 15.174C8.21663 15.3134 8.20114 15.4684 8.25796 15.7163C8.70216 17.7927 7.55549 19.833 5.54106 20.5096C5.20015 20.6233 5.08135 20.7679 5.08135 21.1346C5.09168 26.3411 5.09168 31.5528 5.08135 36.7594C5.08135 37.0951 5.164 37.2501 5.5049 37.3637C7.51933 38.0248 8.70216 40.0703 8.26312 42.1364C8.19081 42.4721 8.27345 42.6167 8.54721 42.7717C13.1081 45.3956 17.6638 48.0247 22.2143 50.659C22.4416 50.7932 22.5811 50.7829 22.7877 50.6073C24.5025 49.1249 26.7184 49.1249 28.4074 50.6073C28.614 50.7881 28.7483 50.7932 28.9808 50.659C33.5468 48.0144 38.118 45.3749 42.6892 42.7458C42.932 42.6064 43.0095 42.4773 42.9475 42.1828C42.4981 40.0754 43.6603 38.0352 45.6902 37.3585C45.9898 37.2604 46.1189 37.1468 46.1189 36.8059C46.1086 31.5683 46.1086 26.3256 46.1189 21.0881C46.1189 20.7576 46.0105 20.6336 45.7057 20.5303C43.7016 19.8588 42.5033 17.8392 42.9268 15.8093C43.0043 15.4426 42.9372 15.2876 42.6169 15.1016C39.0426 13.0511 35.4786 10.9901 31.9094 8.92922C30.8299 8.30423 29.7504 7.68441 28.6812 7.06458C26.894 8.83109 24.2908 8.81559 22.5191 7.06458ZM25.6234 51.3666C24.3372 51.3614 23.2784 52.3945 23.2732 53.6703C23.2681 54.9357 24.3321 56.0101 25.5976 56.0204C26.8475 56.0256 27.9271 54.9409 27.9271 53.6754C27.9271 52.4255 26.8734 51.3717 25.6286 51.3666H25.6234ZM47.0177 43.6343C48.2987 43.6343 49.3679 42.5754 49.3575 41.3099C49.3524 40.0496 48.2625 38.9752 47.0074 38.9856C45.7367 38.9959 44.7037 40.0548 44.7088 41.3461C44.7088 42.6064 45.7522 43.6394 47.0177 43.6343ZM6.48629 41.3151C6.48629 40.0393 5.42226 38.9752 4.16194 38.9856C2.90163 38.9959 1.82727 40.0909 1.84277 41.3409C1.85826 42.5909 2.91196 43.6343 4.16194 43.6394C5.44808 43.6446 6.49145 42.6064 6.49145 41.3151H6.48629ZM25.6389 1.89937C24.3527 1.88388 23.2835 2.92209 23.2732 4.18756C23.2629 5.4582 24.3114 6.5274 25.5821 6.5429C26.8372 6.55839 27.9219 5.48403 27.9219 4.21855C27.9219 2.96857 26.8837 1.91487 25.6337 1.90454L25.6389 1.89937ZM6.49145 16.6047C6.49145 15.2979 5.48424 14.2649 4.19294 14.2597C2.92229 14.2546 1.8376 15.3186 1.8376 16.5686C1.8376 17.8289 2.92229 18.9032 4.18261 18.8981C5.44808 18.8877 6.48629 17.8547 6.49145 16.6047ZM47.0848 14.2649C45.84 14.2236 44.7502 15.2204 44.714 16.4343C44.6675 17.8031 45.6489 18.8619 46.9867 18.8981C48.2418 18.9291 49.3265 17.8805 49.3627 16.6047C49.3937 15.3857 48.3451 14.3062 47.09 14.2649H47.0848Z" fill="#6C757D"/>
<path d="M35.4735 17.9425C36.961 20.5251 38.4435 23.0923 39.9362 25.649C40.0085 25.7678 40.2306 25.8815 40.3701 25.866C42.1056 25.711 43.526 26.7802 43.8256 28.5002C44.0994 30.055 43.025 31.6097 41.4083 31.9712C41.1035 32.0384 40.773 32.0436 40.4631 32.0177C40.1738 31.9971 40.0085 32.0797 39.8639 32.338C38.4176 34.8689 36.9559 37.3895 35.4786 39.9567C36.0055 40.6023 36.3051 41.3409 36.2637 42.2087C36.1966 43.6756 35.2462 44.7965 33.7793 45.1115C32.4415 45.4008 31.0056 44.719 30.4219 43.4483C30.2411 43.0558 30.0293 42.9783 29.6368 42.9783C26.9044 42.9938 24.172 42.9886 21.4447 42.9835C21.202 42.9835 21.0212 42.9835 20.8817 43.2727C20.0553 45.0496 18.0977 45.6849 16.4655 44.7448C14.8643 43.8202 14.4666 41.7696 15.5822 40.1633C15.6287 40.0961 15.6752 40.0341 15.732 39.9515C14.5027 37.8183 13.2682 35.6747 12.0337 33.5363C11.9873 33.4537 11.9304 33.3762 11.8891 33.2884C11.5069 32.4826 11.0988 31.9557 9.98832 31.9609C8.38194 31.9661 7.17328 30.2306 7.36956 28.5932C7.56583 26.9403 9.07924 25.6749 10.6908 25.866C11.0369 25.9073 11.1918 25.8246 11.3571 25.5354C12.731 23.1284 14.1205 20.7266 15.5151 18.3299C15.67 18.0613 15.7062 17.8857 15.4944 17.5913C14.4614 16.1709 14.9056 14.079 16.3983 13.1854C17.9686 12.2401 19.9985 12.8032 20.7836 14.4354C20.9592 14.7969 21.1452 14.9106 21.5274 14.9054C24.2753 14.8899 27.0232 14.8951 29.7711 14.9054C30.0448 14.9054 30.2204 14.8744 30.3599 14.5748C30.9126 13.3868 31.8578 12.7567 33.1801 12.7515C34.4404 12.7515 35.3908 13.3197 35.9383 14.4405C36.5065 15.6079 36.3929 16.7442 35.5819 17.7876C35.5509 17.8237 35.5303 17.8651 35.4786 17.9477L35.4735 17.9425ZM25.5872 36.0208C29.4818 36.0259 32.6842 32.8648 32.6894 29.0064C32.6946 25.0757 29.5128 21.8629 25.6079 21.8526C21.7495 21.8423 18.5161 25.0499 18.5109 28.8928C18.5057 32.8442 21.6565 36.0156 25.5924 36.0208H25.5872ZM15.5048 35.8503C16.0988 36.8782 16.6669 37.8802 17.2609 38.8668C17.3126 38.9546 17.5244 38.9856 17.6587 38.9753C19.0533 38.8565 20.2774 39.5486 20.8508 40.8192C20.9592 41.0517 21.0625 41.1602 21.3311 41.155C24.172 41.1447 27.0128 41.155 29.8537 41.1343C30.0035 41.1343 30.2308 40.9897 30.2979 40.8502C30.9436 39.5228 32.1006 38.8565 33.5778 38.9753C33.6966 38.9856 33.8826 38.9443 33.9291 38.8668C34.5179 37.8802 35.0912 36.8782 35.6852 35.8451C34.7193 35.2873 33.7896 34.7501 32.865 34.2129C29.301 39.1251 21.827 39.0527 18.325 34.2129C17.4004 34.7501 16.4707 35.2873 15.5048 35.8451V35.8503ZM36.6253 34.2336C37.2141 33.2161 37.7823 32.245 38.3247 31.2636C38.3866 31.1551 38.3505 30.9279 38.273 30.8194C37.4414 29.6056 37.4414 28.3401 38.2575 27.085C38.3453 26.9558 38.366 26.6872 38.2885 26.5581C36.8784 24.0788 35.4476 21.6098 34.0065 19.1512C33.9291 19.0169 33.6915 18.8981 33.5365 18.9033C32.0386 18.9911 31.0004 18.3971 30.3134 17.0283C30.2618 16.9198 30.1275 16.7804 30.0293 16.7804C28.8775 16.7649 27.7205 16.77 26.517 16.77C26.517 17.8341 26.5067 18.8465 26.5325 19.8588C26.5325 19.9415 26.7288 20.0809 26.8476 20.0964C27.9426 20.2566 28.9653 20.6078 29.9364 21.1398C33.1491 22.8908 35.0189 26.6201 34.4353 30.1841C34.301 31.0054 34.0582 31.806 33.8567 32.6479C34.74 33.1592 35.6542 33.6861 36.6253 34.2439V34.2336ZM17.4107 32.5962C17.3384 32.3896 17.2713 32.214 17.2093 32.0384C16.543 30.1944 16.4293 28.3039 17.0233 26.4393C18.1648 22.8495 20.639 20.7369 24.3528 20.0809C24.4716 20.0603 24.6627 19.926 24.6627 19.8382C24.6833 18.8258 24.6782 17.8186 24.6782 16.7545C23.5522 16.7545 22.4778 16.77 21.4034 16.7442C21.078 16.739 20.9386 16.8527 20.8094 17.1368C20.2413 18.3506 19.0481 19.0272 17.7155 18.8826C17.4417 18.8516 17.2919 18.9136 17.1525 19.1615C15.7424 21.6202 14.3168 24.0736 12.9118 26.5323C12.8343 26.6666 12.8447 26.93 12.9273 27.0591C13.7589 28.3556 13.7538 29.5539 12.9015 30.8297C12.8343 30.9279 12.7827 31.1138 12.8343 31.1965C13.3974 32.2037 13.9759 33.1954 14.5699 34.2233C15.5358 33.6654 16.4603 33.1334 17.4056 32.5859L17.4107 32.5962ZM18.0305 17.0593C18.7175 17.0593 19.2599 16.5169 19.2599 15.83C19.2599 15.1482 18.7227 14.5955 18.0357 14.5852C17.3332 14.5748 16.7806 15.1327 16.7857 15.8455C16.7909 16.5376 17.3281 17.0645 18.0254 17.0645L18.0305 17.0593ZM33.1749 17.0541C33.8722 17.0541 34.4094 16.5273 34.4146 15.8351C34.4146 15.1482 33.8826 14.5903 33.2059 14.58C32.5035 14.5697 31.9405 15.1275 31.9405 15.83C31.9405 16.5221 32.4828 17.0541 33.1749 17.0541ZM10.4584 30.1944C11.1143 30.1892 11.698 29.6004 11.698 28.9444C11.698 28.2678 11.1402 27.7151 10.4532 27.7099C9.77138 27.7099 9.19804 28.2575 9.18771 28.9238C9.17738 29.5952 9.78171 30.1996 10.4584 30.1944ZM40.7678 27.7151C40.0808 27.7099 39.523 28.242 39.5023 28.9186C39.4817 29.5849 40.086 30.1996 40.7626 30.1944C41.4135 30.1944 42.0075 29.5952 42.0126 28.9496C42.0126 28.2833 41.4444 27.7203 40.7678 27.7099V27.7151ZM19.2599 42.0899C19.2702 41.4132 18.7278 40.8399 18.0512 40.8192C17.3901 40.7986 16.8012 41.3616 16.7857 42.0279C16.7702 42.7355 17.3229 43.3192 18.0151 43.3244C18.6814 43.3295 19.2495 42.7665 19.2599 42.0899ZM31.9405 42.0486C31.9301 42.7304 32.4725 43.3037 33.1388 43.3244C33.7999 43.3502 34.3939 42.782 34.4094 42.1157C34.4301 41.4132 33.8722 40.8244 33.1853 40.8141C32.5241 40.8038 31.9456 41.3771 31.9405 42.0486Z" fill="#6C757D"/>
<path d="M25.0712 29.9005H23.0774C23.0774 30.6856 23.0774 31.4553 23.0774 32.2249C23.0774 32.7259 22.8037 33.0823 22.3801 33.1701C21.7551 33.2992 21.2541 32.9377 21.249 32.2972C21.2335 30.6185 21.2231 28.9346 21.2645 27.2559C21.3006 25.8613 22.6126 24.6888 24.064 24.6837C25.4896 24.6733 26.8325 25.8045 26.8842 27.1836C26.9462 28.9088 26.9152 30.6392 26.8997 32.3695C26.8997 32.8757 26.4968 33.2063 25.9906 33.2063C25.4741 33.2063 25.0919 32.8447 25.0764 32.3127C25.0609 31.6774 25.0764 31.042 25.0764 30.4119C25.0764 30.2569 25.0764 30.102 25.0764 29.916L25.0712 29.9005ZM23.1084 27.9739H25.0454C25.221 27.008 24.6218 26.5328 24.0485 26.5431C23.3874 26.5586 23.0361 27.0855 23.1084 27.9739Z" fill="#6C757D"/>
<path d="M29.957 28.9776C29.957 30.0416 29.957 31.1005 29.957 32.1645C29.957 32.8205 29.6109 33.1975 29.0427 33.1975C28.4746 33.1975 28.1182 32.8101 28.1182 32.1697C28.1182 30.0313 28.1182 27.8929 28.1182 25.7493C28.1182 25.0882 28.5004 24.6646 29.0634 24.6801C29.6109 24.6956 29.9518 25.0933 29.957 25.7441C29.9621 26.8237 29.957 27.898 29.957 28.9776Z" fill="#6C757D"/>
</svg>
