<svg width="57" height="57" viewBox="0 0 57 57" fill="none" xmlns="http://www.w3.org/2000/svg">
<path d="M0 44.5134C0.0939412 44.1611 0.187882 43.8088 0.287695 43.4565C1.22124 40.2508 3.9925 38.0432 7.32741 37.8377C7.39787 37.8377 7.46245 37.8201 7.40374 37.826C7.11017 36.8631 6.65221 35.9236 6.56414 34.9431C6.45258 33.6456 6.45258 32.2893 6.71679 31.027C7.29218 28.2733 9.99299 26.5178 12.8758 26.829C15.5825 27.1225 17.7608 29.565 17.796 32.348C17.796 32.8118 17.7784 33.2757 17.796 33.7395C17.8664 35.1897 17.5846 36.5401 16.6746 37.7907H22.8394C22.5576 37.4443 22.2758 37.1273 22.0292 36.7926C21.0017 35.3894 20.4674 33.8276 20.4674 32.0779C20.4674 30.3165 20.4674 28.5551 20.4674 26.7937C20.485 22.537 24.0372 18.9555 28.2822 18.9144C32.9146 18.8733 36.4785 22.3902 36.4844 27.0168C36.4844 28.4083 36.4374 29.7999 36.4961 31.1914C36.6077 33.7043 35.9208 35.9119 34.0713 37.7849H40.0953C39.8134 36.9511 39.332 36.1057 39.2674 35.225C39.1617 33.7982 39.1265 32.3069 39.4259 30.9271C40.0013 28.2498 42.5436 26.6235 45.4323 26.8231C47.9159 26.9934 50.1646 29.1423 50.3877 31.7374C50.4993 33.0702 50.4171 34.4382 50.2644 35.771C50.1881 36.4579 49.7595 37.1038 49.4894 37.779C49.9532 37.8612 50.4934 37.9199 51.0218 38.0491C54.5329 38.8887 56.9636 41.9535 56.9694 45.5467C56.9694 46.903 56.9694 48.2534 56.9694 49.6097C56.9694 50.508 56.5585 50.9131 55.6249 50.919C52.9711 50.9249 50.3231 50.919 47.6693 50.919C47.452 50.919 47.2348 50.919 46.9588 50.919C46.9588 51.9171 46.9588 52.8565 46.9588 53.8018C46.9588 54.3772 46.9295 54.9526 46.9647 55.528C47.0117 56.1973 46.7827 56.6788 46.178 56.9782H23.9198C23.2328 56.532 23.0097 56.0916 23.18 55.5339C23.3503 54.9937 23.7671 54.7588 24.5539 54.7588C25.276 54.7588 25.9982 54.7588 26.7791 54.7588C26.691 54.524 26.6323 54.3361 26.556 54.1482C24.7124 49.6684 22.8512 45.1945 21.0311 40.7088C20.8256 40.2038 20.5731 40.104 20.0858 40.1686C16.4221 40.6794 13.0226 43.7149 12.5 47.3903C12.1595 49.7741 12.3122 52.2283 12.2476 54.6473C12.2476 54.6767 12.2946 54.7001 12.3357 54.753C12.9639 54.753 13.6097 54.7412 14.2614 54.753C14.8779 54.7706 15.3124 55.2109 15.3476 55.7981C15.3829 56.3852 15.0247 56.7081 14.5726 56.9723H10.7915C10.1867 56.6729 9.98125 56.1914 10.0047 55.5221C10.0458 54.1893 10.0165 52.8565 10.0165 51.5238C10.0165 51.33 10.0165 51.1362 10.0165 50.9131C9.7053 50.9131 9.48219 50.9131 9.26495 50.9131C6.69331 50.9131 4.12167 50.9014 1.55003 50.919C0.88657 50.919 0.364022 50.7487 0 50.1792C0 48.2886 0 46.3981 0 44.5016L0 44.5134ZM30.1845 54.7119H44.6455C44.6455 52.5043 44.7806 50.3319 44.6162 48.1771C44.3109 44.1787 40.8174 40.6735 36.8602 40.1627C36.3905 40.104 36.1439 40.2038 35.9501 40.6794C34.3883 44.5369 32.7913 48.3767 31.2061 52.2224C30.8714 53.0385 30.5368 53.8605 30.1845 54.7119ZM22.7161 29.1657C22.7161 30.2519 22.6692 31.2853 22.7279 32.3186C22.8571 34.814 24.5421 36.9276 26.873 37.597C29.2509 38.278 31.7521 37.3915 33.2082 35.3835C34.588 33.4812 34.2533 31.3147 34.265 29.1716C32.2629 29.154 30.4428 28.6784 28.7284 27.7801C28.5992 27.7097 28.3585 27.7331 28.2235 27.8036C26.5149 28.6843 24.7124 29.1599 22.7161 29.1716V29.1657ZM2.15478 48.6174H10.0106C10.3042 45.124 11.8425 42.3058 14.6666 40.0571C12.3357 40.0571 10.1691 40.0571 8.00261 40.0571C7.79712 40.0571 7.59162 40.0571 7.392 40.0747C4.90843 40.2802 2.86521 41.93 2.40724 44.349C2.1489 45.7288 2.22523 47.1731 2.15478 48.6174ZM46.9647 48.6057H54.756C54.756 47.7133 54.756 46.8619 54.756 46.0106C54.756 42.388 52.4309 40.0571 48.8259 40.0512C46.8766 40.0512 44.9332 40.0512 42.984 40.0512C42.8078 40.0512 42.6317 40.0512 42.3029 40.0512C45.1387 42.3058 46.6653 45.1181 46.9647 48.5998V48.6057ZM33.7836 40.0864H29.5973C29.5973 40.9436 29.5973 41.7715 29.5973 42.6052C29.5973 43.3685 29.157 43.8441 28.4818 43.8441C27.8066 43.8441 27.3839 43.3626 27.378 42.5935C27.378 41.7656 27.378 40.9378 27.378 40.0864H23.1917C24.9531 44.3549 26.691 48.5705 28.4877 52.9211C30.2902 48.5587 32.0163 44.3607 33.7836 40.0923V40.0864ZM48.2623 33.4518C48.2623 33.4518 48.2271 33.4518 48.2094 33.4518C48.2094 33.0467 48.2271 32.6357 48.2094 32.2306C48.1272 30.5396 46.7475 29.1423 45.0859 29.0425C43.3128 28.9368 41.7451 30.111 41.5044 31.8372C41.3752 32.7825 41.3576 33.763 41.4398 34.7141C41.5983 36.4697 42.937 37.7144 44.6455 37.8318C46.2249 37.9434 47.7397 36.8337 48.1155 35.2191C48.2447 34.6496 48.2153 34.0448 48.2564 33.4577L48.2623 33.4518ZM15.6118 33.4459C15.6118 33.4459 15.5825 33.4459 15.5708 33.4459C15.5708 33.0937 15.5884 32.7414 15.5708 32.3891C15.4768 30.4457 13.9796 29.0131 12.0714 29.0366C10.2396 29.0601 8.80698 30.5279 8.76001 32.4419C8.7424 33.1641 8.73653 33.8863 8.77176 34.6085C8.84808 36.3522 10.222 37.7144 11.9892 37.8318C13.645 37.9434 15.2067 36.7104 15.4886 35.0488C15.5766 34.5204 15.5766 33.9802 15.6177 33.4518L15.6118 33.4459ZM22.7396 26.9288C24.184 26.8935 25.5931 26.7115 26.7732 25.96C27.9886 25.1791 28.9809 25.1732 30.2021 25.96C31.3881 26.7174 32.809 26.917 34.2357 26.9229C34.3649 23.8639 31.6582 21.1573 28.517 21.1455C25.3524 21.1279 22.6105 23.8463 22.7396 26.9346V26.9288Z" fill="#6C757D"/>
<path d="M18.9169 56.9714C18.6645 56.672 18.3063 56.4137 18.1771 56.0673C17.9834 55.5506 18.365 54.9811 18.8993 54.799C19.4042 54.6288 19.9738 54.8519 20.2321 55.3216C20.4904 55.7854 20.373 56.3843 19.9562 56.7248C19.8446 56.8188 19.7096 56.8892 19.5921 56.9714H18.9228H18.9169Z" fill="#6C757D"/>
<path d="M23.4855 10.5038C22.5578 9.82272 21.636 9.19449 20.767 8.50755C19.493 7.49768 19.6867 5.55427 21.1311 4.85559C21.501 4.67945 21.9472 4.62073 22.364 4.59725C23.1802 4.55615 23.9963 4.55615 24.8124 4.59725C25.2586 4.62073 25.4758 4.48569 25.5933 4.04534C25.8223 3.22923 26.0982 2.42486 26.3683 1.61461C26.7323 0.557776 27.478 0 28.5054 0C29.5271 0 30.2551 0.557776 30.6191 1.6381C30.9009 2.4777 31.1886 3.3173 31.4352 4.16864C31.5351 4.50331 31.6936 4.59725 32.0224 4.59138C32.8913 4.57376 33.7662 4.57963 34.6351 4.59138C35.8211 4.60312 36.6314 5.16089 36.9425 6.14728C37.2537 7.12779 36.9308 7.99674 35.9796 8.7013C35.1753 9.29431 34.365 9.88144 33.5548 10.4686C33.543 10.4803 33.5372 10.4979 33.5137 10.5449C33.8425 11.5782 34.2065 12.6233 34.5118 13.6861C34.9463 15.2243 33.7251 16.6569 32.1457 16.4456C31.764 16.3927 31.3707 16.199 31.0419 15.9759C30.1846 15.3946 29.3627 14.7664 28.4937 14.1381C27.5836 14.7957 26.703 15.4709 25.787 16.0874C24.5012 16.9505 22.7868 16.2988 22.4521 14.8016C22.3523 14.3613 22.4404 13.8446 22.5578 13.3925C22.822 12.4296 23.1625 11.4902 23.4855 10.4979V10.5038ZM28.5583 2.56577C28.5172 2.56577 28.4702 2.56577 28.4291 2.5599C28.0827 3.62261 27.7304 4.69119 27.384 5.7539C27.0905 6.65221 26.8086 6.85771 25.8457 6.86358C24.8652 6.86358 23.8788 6.86358 22.8983 6.86358C22.7692 6.86358 22.6341 6.89881 22.3934 6.92816C23.3739 7.63859 24.2546 8.27857 25.1353 8.91854C25.9808 9.52916 26.0688 9.81098 25.7459 10.7974C25.3995 11.8601 25.0531 12.9228 24.6597 14.1381C25.6872 13.3866 26.5855 12.7408 27.478 12.0832C28.3352 11.455 28.6287 11.455 29.5036 12.0949C30.396 12.7466 31.2885 13.3925 32.3042 14.1323C31.9989 13.1987 31.7582 12.412 31.4881 11.6252C30.7953 9.58787 30.7542 9.67594 32.5273 8.41948C33.1966 7.9439 33.8542 7.45658 34.5177 6.97513C33.3434 6.86358 32.222 6.86358 31.0947 6.86358C30.1729 6.86358 29.8793 6.64634 29.5975 5.77738C29.2511 4.7088 28.8988 3.64022 28.5524 2.56577H28.5583Z" fill="#6C757D"/>
</svg>
