<svg width="58" height="58" viewBox="0 0 58 58" fill="none" xmlns="http://www.w3.org/2000/svg">
<path d="M31.0113 35.3722C31.0113 35.7587 31.0245 36.1496 31.0113 36.5362C30.9937 36.9667 31.0113 37.2785 31.5391 37.4938C32.2164 37.7705 32.3176 38.7764 31.6798 39.0663C30.8926 39.4265 31.0113 39.9844 31.0113 40.5862C31.0113 40.841 31.0113 41.0957 31.0113 41.4735C31.372 41.4735 31.671 41.4691 31.9701 41.4735C34.3804 41.5174 36.7994 41.4296 39.1965 41.636C43.7487 42.0313 47.8699 45.8705 48.7275 50.3949C49.1102 52.4243 49.3741 54.48 49.6644 56.527C49.8183 57.6163 49.4708 57.9897 48.3361 57.9897C43.0186 57.9985 37.7011 57.9985 32.3836 57.9985C22.1356 57.9985 11.892 57.9985 1.64404 57.9985C0.082657 57.9985 -0.141655 57.7789 0.0650638 56.2195C0.333358 54.2208 0.562069 52.2134 0.997497 50.2499C1.754 46.8149 3.82559 44.3287 6.93077 42.6946C7.13309 42.5892 7.33541 42.4794 7.45856 42.4091C6.69766 41.5526 5.87078 40.7707 5.21984 39.8614C4.38417 38.6974 4.10268 37.3181 4.10268 35.8905C4.10268 26.4596 4.10268 17.0286 4.10268 7.60208C4.09388 3.15677 7.11989 0.0555838 11.5841 0.0204429C16.9016 -0.0234832 22.2192 0.00726508 27.5367 0.00287247C31.1169 0.00287247 34.6971 -0.0190906 38.2772 0.0160503C41.7959 0.0467985 44.624 2.30899 45.3717 5.72205C45.5608 6.59618 45.5256 7.52302 45.5388 8.4279C45.5608 10.0356 45.552 11.6389 45.5388 13.2466C45.53 14.0592 45.1825 14.4633 44.5536 14.4677C43.929 14.4677 43.5244 14.0592 43.5156 13.2685C43.4892 11.2743 43.5068 9.28006 43.5024 7.28582C43.498 4.31202 41.2725 2.07618 38.308 2.07618C29.3576 2.07618 20.4115 2.07618 11.461 2.07618C8.369 2.07618 6.10389 4.3252 6.10389 7.40881C6.09509 16.8617 6.09509 26.319 6.10389 35.7719C6.10389 39.0268 8.54493 41.4559 11.8084 41.4735C13.9856 41.4823 16.1671 41.4691 18.3443 41.4647C18.3927 41.4647 18.441 41.434 18.6038 41.3769C18.6038 40.8585 18.6346 40.3007 18.5862 39.7428C18.573 39.5715 18.3619 39.3782 18.1947 39.2684C17.3767 38.7369 17.3899 37.955 18.2123 37.4147C18.4015 37.2917 18.5862 36.9974 18.5906 36.7822C18.5994 36.0882 18.8501 35.3414 17.9176 34.8802C17.3503 34.5991 17.5042 33.6415 18.1376 33.3472C18.6346 33.1187 18.6917 32.82 18.617 32.372C18.5818 32.1699 18.5774 31.9547 18.6082 31.7526C18.6873 31.1728 18.4806 30.839 17.9396 30.5315C17.0556 30.0264 16.6334 29.161 16.5542 28.1463C16.5278 27.8388 16.5146 27.5182 16.5542 27.2151C16.6817 26.2575 16.2595 25.5898 15.6305 24.887C12.477 21.3466 11.6017 17.2043 13.0312 12.7414C14.4562 8.29612 17.6054 5.50681 22.206 4.47016C28.8386 2.97667 35.5371 7.21993 36.9622 13.9406C37.8506 18.1443 36.7994 21.9044 33.879 25.0671C33.272 25.726 33.0433 26.3849 33.0961 27.2239C33.1665 28.3703 33.0169 29.4509 32.0713 30.2592C32.0317 30.2943 32.0053 30.3514 31.9613 30.369C30.9541 30.7072 30.9717 31.5067 30.9937 32.3588C31.0069 32.8332 31.0289 33.1583 31.5523 33.3823C31.803 33.4877 32.0977 34.0148 32.0273 34.2433C31.8954 34.6781 31.5083 35.0339 31.2312 35.4249C31.1564 35.4117 31.0861 35.3941 31.0113 35.3809V35.3722ZM2.13225 55.9164H47.5268C47.3157 54.4844 47.087 53.1139 46.9155 51.7346C46.3437 47.0565 42.3808 43.4897 37.6307 43.4809C29.1025 43.4589 20.5698 43.4721 12.0416 43.4853C11.4258 43.4853 10.7968 43.5512 10.1943 43.6786C6.24464 44.5132 3.42534 47.4958 2.78759 51.4886C2.55888 52.9338 2.35656 54.3878 2.13225 55.912V55.9164ZM24.8449 29.0468V29.038C26.5031 29.038 28.1612 29.0468 29.8194 29.038C30.677 29.0336 31.0377 28.669 31.0685 27.8169C31.0773 27.5577 31.0817 27.2985 31.0597 27.0394C30.9541 25.7128 31.4423 24.6674 32.3616 23.6966C34.7058 21.2367 35.5943 18.2849 35.0753 14.9202C34.4068 10.5583 30.8222 6.95198 26.5295 6.31505C21.9421 5.6298 17.5922 7.80854 15.5646 11.8102C13.5018 15.8734 14.2231 20.5998 17.4558 23.9118C18.2079 24.6805 18.6258 25.5327 18.551 26.6133C18.5246 26.9735 18.5422 27.3381 18.551 27.6983C18.5686 28.6207 18.9644 29.038 19.8705 29.0424C21.5286 29.0556 23.1868 29.0424 24.8449 29.0424V29.0468ZM28.9661 41.4427V39.3958H20.6974V41.4427H28.9661ZM28.9661 31.0235C26.2612 31.0235 23.653 31.0191 21.0492 31.041C20.9173 31.041 20.6842 31.2651 20.671 31.4012C20.627 31.9811 20.6534 32.5653 20.6534 33.1583H28.9661V31.0279V31.0235ZM28.9485 37.2654V35.2623H20.6886V37.2654H28.9485Z" fill="#6C757D"/>
<path d="M38.3343 30.1665C38.5234 30.8605 38.7082 31.5282 38.8885 32.1915C38.9413 32.1344 38.9941 32.0817 39.0424 32.0246C39.4251 32.2091 39.9925 32.2969 40.1508 32.6C40.3575 32.9997 40.2432 33.5664 40.2696 34.0627C40.186 34.0803 40.1068 34.0979 40.0233 34.1154C40.3223 34.4361 40.6082 34.7699 40.9205 35.073C41.246 35.3937 41.5187 35.6792 42.086 35.3058C42.627 34.95 43.4495 35.3981 43.4187 36.0131C43.3791 36.7861 43.819 36.9091 44.3731 37.0234C44.747 37.1024 45.1209 37.1947 45.5123 37.2869C45.6091 37.1024 45.6398 36.9048 45.7498 36.8476C46.1105 36.6544 46.5415 36.3161 46.8538 36.3952C47.1704 36.4743 47.5355 36.9531 47.6015 37.3089C47.7202 37.959 47.729 38.6662 47.6015 39.3163C47.5311 39.6941 47.1836 40.1553 46.8362 40.3134C46.3392 40.5418 45.9213 40.2168 45.653 39.7116C45.5475 39.514 45.3012 39.3339 45.0813 39.2636C44.5183 39.0835 43.9289 38.9693 43.3527 38.8243C42.8381 38.6925 42.4115 38.3851 41.809 38.877C41.2284 39.347 40.4367 38.6882 40.4235 37.8843C40.4191 37.6032 40.2696 37.2781 40.0848 37.0629C39.7374 36.65 39.3063 36.3074 38.9237 35.9208C38.5278 35.5211 38.2859 35.0467 37.503 35.1653C36.7729 35.2751 36.4343 34.3219 36.8125 33.6059C36.9445 33.3599 36.984 33.0041 36.9313 32.7274C36.8213 32.1212 36.619 31.5326 36.4651 30.9352C36.3507 30.4828 36.3771 29.9996 35.713 29.8414C35.493 29.7887 35.2423 29.1869 35.2863 28.8751C35.3347 28.5764 35.7217 28.1283 35.9988 28.0976C36.8609 28.0053 37.7581 27.9834 38.6114 28.1239C39.3855 28.2513 39.5438 29.2484 38.9413 29.7668C38.7873 29.8985 38.6026 29.9952 38.3299 30.1709L38.3343 30.1665Z" fill="#6C757D"/>
<path d="M53.8036 26.081C53.4386 25.7472 52.9855 25.5276 52.9152 25.2201C52.836 24.8731 52.9811 24.2976 53.2406 24.0868C53.8344 23.608 54.5293 23.2083 55.2462 22.9447C55.5541 22.8305 56.1435 23.015 56.3678 23.2698C56.5613 23.4894 56.5833 24.2054 56.3986 24.3547C55.6289 24.9785 54.7536 25.4661 53.7992 26.081H53.8036Z" fill="#6C757D"/>
<path d="M55.646 35.4258C54.6696 34.7977 53.7768 34.2925 52.9851 33.6556C52.8092 33.515 52.8663 32.8122 53.0643 32.5618C53.2622 32.3159 53.8384 32.1358 54.1286 32.25C54.8675 32.5399 55.5845 32.944 56.209 33.4272C56.4553 33.6161 56.5873 34.1783 56.5081 34.5034C56.4289 34.824 56.0111 35.0569 55.6504 35.4214L55.646 35.4258Z" fill="#6C757D"/>
<path d="M45.6397 19.6633C45.6397 19.3031 45.6221 18.9385 45.6397 18.5827C45.6748 18.0029 46.0091 17.691 46.5809 17.6691C47.1571 17.6471 47.5529 17.9546 47.6013 18.5081C47.6673 19.2768 47.6761 20.0586 47.6057 20.823C47.5529 21.394 47.1659 21.7542 46.5413 21.7015C45.9739 21.6532 45.6529 21.3237 45.6309 20.7439C45.6177 20.3837 45.6309 20.0235 45.6309 19.6633C45.6309 19.6633 45.6309 19.6633 45.6353 19.6633H45.6397Z" fill="#6C757D"/>
<path d="M37.6395 22.6055C38.5851 23.2424 39.4735 23.7871 40.2828 24.4328C40.4412 24.5602 40.4104 25.2015 40.2344 25.3948C40.0013 25.6495 39.4516 25.9043 39.1877 25.7989C38.3872 25.4651 37.6219 25.0126 36.9269 24.4899C36.7114 24.3274 36.6455 23.7563 36.7466 23.4576C36.8478 23.1589 37.248 22.9569 37.6395 22.6055Z" fill="#6C757D"/>
<path d="M55.9314 29.983C55.5444 29.983 55.1002 30.106 54.7879 29.9523C54.4316 29.7766 54.0094 29.3813 53.9698 29.0386C53.9346 28.7443 54.3613 28.1513 54.6471 28.1074C55.5004 27.98 56.3889 28.002 57.2553 28.0723C57.7919 28.1162 58.025 28.5818 57.9854 29.0957C57.9459 29.6185 57.6292 29.9523 57.0926 29.9962C56.7099 30.027 56.3185 30.0006 55.9314 30.0006C55.9314 29.9918 55.9314 29.983 55.9314 29.9787V29.983Z" fill="#6C757D"/>
<path d="M50.9002 22.8148C50.0425 22.8148 49.5543 22.1691 49.8622 21.4795C50.1877 20.7547 50.5747 20.0299 51.0761 19.4193C51.2784 19.1733 51.9338 19.0547 52.2285 19.1997C52.5143 19.3403 52.8354 19.9816 52.7299 20.2407C52.3956 21.0666 51.8898 21.8309 51.4016 22.5864C51.3004 22.7445 51.0013 22.7753 50.9002 22.8192V22.8148Z" fill="#6C757D"/>
<path d="M50.9225 35.2227C51.0017 35.2578 51.3008 35.2885 51.4019 35.4423C51.8901 36.1934 52.3783 36.9533 52.7522 37.7616C52.9677 38.2272 52.7126 38.7763 52.2156 38.8685C51.8373 38.9432 51.2436 38.8026 51.0105 38.5303C50.5355 37.9724 50.1968 37.2828 49.8801 36.6107C49.5458 35.8947 50.0077 35.2314 50.9269 35.227L50.9225 35.2227Z" fill="#6C757D"/>
<path d="M43.6695 21.8155C43.3397 22.2021 43.1461 22.6238 42.8603 22.7072C42.526 22.7995 41.941 22.7204 41.7607 22.4876C41.2549 21.8199 40.8283 21.0688 40.516 20.2913C40.4104 20.0233 40.6347 19.4611 40.8898 19.259C41.1141 19.0789 41.7827 19.0526 41.919 19.2283C42.548 20.0146 43.0582 20.8931 43.6695 21.8199V21.8155Z" fill="#6C757D"/>
<path d="M24.8227 45.645C27.1538 45.645 29.4849 45.645 31.8204 45.645C32.7748 45.645 33.0827 45.9437 33.0871 46.8925C33.0959 48.8077 33.0959 50.7229 33.0871 52.638C33.0827 53.5166 32.7352 53.8592 31.8555 53.8592C27.1934 53.8636 22.5268 53.8636 17.8646 53.8592C16.9058 53.8592 16.554 53.5034 16.5496 52.5458C16.5408 50.6833 16.5408 48.8209 16.5496 46.954C16.5496 45.9305 16.8618 45.6406 17.9086 45.6406C20.2133 45.6406 22.5224 45.6406 24.8271 45.6406L24.8227 45.645ZM31.0155 47.7183H18.6124V51.8035H31.0155V47.7183Z" fill="#6C757D"/>
<path d="M24.8229 18.3919C26.226 17.2718 27.5806 16.1956 28.9309 15.115C29.0717 15.0008 29.2036 14.8778 29.3575 14.7768C29.8853 14.4298 30.4043 14.4298 30.8002 14.9525C31.1872 15.4708 31.0729 15.9892 30.5803 16.3889C29.23 17.4783 27.8841 18.5676 26.5075 19.6262C26.0413 19.9864 25.8081 20.3554 25.8257 20.9748C25.8741 22.5254 25.8477 24.0803 25.8389 25.6309C25.8389 26.4392 25.4475 26.9092 24.8097 26.9004C24.1896 26.8872 23.8421 26.4611 23.8377 25.6705C23.8333 24.0408 23.8597 22.4068 23.8157 20.7815C23.8069 20.4564 23.6046 20.0392 23.3539 19.8283C22.0256 18.7126 20.6534 17.6496 19.2987 16.569C18.6038 16.0155 18.4498 15.4401 18.8545 14.9262C19.2547 14.421 19.8749 14.4386 20.561 14.9833C21.9729 16.1078 23.3847 17.2411 24.8273 18.3963L24.8229 18.3919Z" fill="#6C757D"/>
</svg>
