<svg width="106" height="44" viewBox="0 0 106 44" fill="none" xmlns="http://www.w3.org/2000/svg">
<path d="M47.7656 4.4375H53.5964C59.6129 4.4375 61.4466 6.85152 61.4466 12.1345V21.1453C61.4466 26.5815 59.585 29.1765 53.7821 29.1765H47.7656V4.4375ZM53.6614 26.029C56.7439 26.029 56.8693 24.381 56.8693 21.2938V11.8281C56.8693 8.8663 56.5629 7.64536 53.6011 7.64536H52.2594V26.029H53.666H53.6614Z" fill="white"/>
<path d="M68.2584 4.4375H72.9332L76.4475 21.5724L80.0824 4.4375H84.6319L85.0915 29.1765H81.7305L81.3637 11.9813L77.8495 29.1765H75.1337L71.5591 11.921L71.2249 29.1765H67.8359L68.263 4.4375H68.2584Z" fill="white"/>
<path d="M95.5628 4.4375H100.386L105.335 29.1765H101.152L100.173 23.4665H95.8645L94.8571 29.1765H90.6094L95.5581 4.4375H95.5628ZM99.6852 20.5929L98.0046 10.2079L96.3241 20.5929H99.6852Z" fill="white"/>
<path d="M21.6473 43.2945C33.6027 43.2945 43.2945 33.6027 43.2945 21.6473C43.2945 9.6918 33.6027 0 21.6473 0C9.6918 0 0 9.6918 0 21.6473C0 33.6027 9.6918 43.2945 21.6473 43.2945Z" fill="#F15A35"/>
<path d="M23.1888 4.53906H22.6131V5.56038L22.5156 5.63001L22.6131 5.76464V37.8897L22.5156 38.0243L22.6131 38.0939V38.7531H23.1888C32.622 38.7531 40.2958 31.0793 40.2958 21.6461C40.2958 12.2129 32.622 4.53906 23.1888 4.53906ZM23.7598 7.35697L30.4958 16.702L25.4774 21.8039L30.2683 27.268L23.7598 36.2973V7.35697ZM30.9554 26.3117L27.0419 21.8504L31.1736 17.649L34.1865 21.8272L30.9508 26.3117H30.9554ZM24.2751 37.5508L35.607 21.8272L23.9919 5.71358C32.4177 6.13603 39.1445 13.1135 39.1445 21.6415C39.1445 30.1694 32.5663 36.9844 24.2704 37.5461L24.2751 37.5508Z" fill="white"/>
<path d="M14.009 5.04575C12.4956 5.81638 11.4186 7.13945 10.8104 8.97781C10.0908 9.08459 7.55148 9.59525 6.04272 11.6611C4.97498 13.1234 4.66858 15.0314 5.13746 17.3294C4.67787 17.7704 3.15054 19.4231 3.00662 21.8C2.89985 23.5919 3.60549 25.3606 5.1096 27.0597C5.10032 27.9975 5.30923 33.9722 11.6971 35.286C11.8689 35.6342 12.3934 36.5394 13.5169 37.375C14.58 38.1642 16.3719 39.0184 19.1713 39.0184C19.7237 39.0184 20.3133 38.9859 20.9446 38.9117L21.2 38.8838V21.4239L18.2985 24.0794L18.4517 33.2387L17.1333 34.195V34.2043C16.9522 34.0511 16.7201 33.949 16.4601 33.949C15.8566 33.949 15.3692 34.4364 15.3692 35.0399C15.3692 35.6434 15.8566 36.1309 16.4601 36.1309C17.0636 36.1309 17.5511 35.6434 17.5511 35.0399C17.5511 34.9053 17.5186 34.78 17.4722 34.6593L19.0274 33.5312L18.8742 24.3347L20.6197 22.7377V38.3824C14.515 38.9952 12.5745 35.7874 12.2263 35.0771L13.7861 32.9184L10.3787 31.0289C10.4251 30.9082 10.4529 30.7829 10.4529 30.6529C10.4529 30.0494 9.9655 29.562 9.36199 29.562C8.75849 29.562 8.27104 30.0494 8.27104 30.6529C8.27104 31.2564 8.75849 31.7439 9.36199 31.7439C9.61732 31.7439 9.8448 31.6417 10.0305 31.4932L12.9412 33.1087L11.776 34.7243C5.83845 33.4755 5.66669 28.0532 5.68061 27.1201H9.99799L13.7769 30.4208C13.7583 30.4997 13.7304 30.574 13.7304 30.6529C13.7304 31.2564 14.2179 31.7439 14.8214 31.7439C15.4249 31.7439 15.9123 31.2564 15.9123 30.6529C15.9123 30.0494 15.4249 29.562 14.8214 29.562C14.515 29.562 14.2411 29.6873 14.0461 29.8916L10.8754 27.1201H15.0349C15.1649 27.5797 15.5688 27.9232 16.0702 27.9232C16.6737 27.9232 17.1611 27.4358 17.1611 26.8323C17.1611 26.2288 16.6737 25.7413 16.0702 25.7413C15.5688 25.7413 15.1649 26.0849 15.0349 26.5444H10.2208L10.0862 26.4237L9.98407 26.5444H5.42528C4.11614 25.0125 3.49407 23.4387 3.58692 21.8557C3.73083 19.4277 5.50885 17.7843 5.6249 17.6776H13.3869C13.438 18.2346 13.8883 18.6757 14.4593 18.6757C15.0628 18.6757 15.5502 18.1882 15.5502 17.5847C15.5502 16.9812 15.0628 16.4938 14.4593 16.4938C14.0322 16.4938 13.6747 16.7445 13.4937 17.1019H11.4186V15.1475L9.77052 13.4345C9.86336 13.272 9.933 13.0956 9.933 12.9006C9.933 12.2971 9.44555 11.8096 8.84205 11.8096C8.23854 11.8096 7.7511 12.2971 7.7511 12.9006C7.7511 13.5041 8.23854 13.9915 8.84205 13.9915C9.03703 13.9915 9.20879 13.9266 9.36199 13.8383L10.8429 15.3796V17.1019H5.68526C5.29066 15.0268 5.55991 13.3138 6.50695 12.0139C7.89037 10.1198 10.3137 9.64167 10.9218 9.55347L18.9299 18.4157L18.6374 8.28146C18.9484 8.09113 19.1666 7.76152 19.1666 7.36692C19.1666 6.76342 18.6792 6.27597 18.0757 6.27597C17.4722 6.27597 16.9847 6.76342 16.9847 7.36692C16.9847 7.97043 17.4722 8.45323 18.0664 8.45787L18.3078 16.8698L11.3582 9.17744C11.7342 8.03542 12.3052 7.11159 13.0573 6.41524V9.2285L14.5707 10.4402V10.4494C14.5707 11.0529 15.0582 11.5404 15.6617 11.5404C16.2652 11.5404 16.7526 11.0529 16.7526 10.4494C16.7526 9.84593 16.2652 9.35849 15.6617 9.35849C15.281 9.35849 14.9653 9.56275 14.7703 9.85986L13.6376 8.94996V5.94636C13.8419 5.80245 14.0508 5.67247 14.2782 5.55641C16.7572 4.29833 19.8398 5.05503 20.6336 5.28251V19.1538L19.0274 20.5605H12.5931C12.4631 20.1009 12.0592 19.7573 11.5578 19.7573C10.9543 19.7573 10.4669 20.2448 10.4669 20.8483C10.4669 21.4518 10.9543 21.9392 11.5578 21.9392C12.0592 21.9392 12.4631 21.5957 12.5931 21.1361H18.3681L16.0655 23.1509H9.95157C9.85408 22.6495 9.43163 22.2596 8.9024 22.2596C8.2989 22.2596 7.81145 22.747 7.81145 23.3505C7.81145 23.954 8.2989 24.4415 8.9024 24.4415C9.37128 24.4415 9.76588 24.1397 9.91907 23.7219H16.2837L21.2046 19.4092V4.8647L21.0096 4.7997C20.8518 4.744 17.0915 3.48128 14.0183 5.04575H14.009ZM16.4601 35.5506C16.177 35.5506 15.9448 35.3185 15.9448 35.0353C15.9448 34.7521 16.177 34.52 16.4601 34.52C16.7433 34.52 16.9754 34.7521 16.9754 35.0353C16.9754 35.3185 16.7433 35.5506 16.4601 35.5506ZM8.85133 30.639C8.85133 30.3558 9.08345 30.1237 9.36663 30.1237C9.64982 30.1237 9.88194 30.3558 9.88194 30.639C9.88194 30.6854 9.86801 30.7272 9.85408 30.769L9.7241 31.0057C9.63125 31.0939 9.5059 31.1543 9.36663 31.1543C9.08345 31.1543 8.85133 30.9222 8.85133 30.639ZM14.8214 30.1237C15.1046 30.1237 15.3367 30.3558 15.3367 30.639C15.3367 30.9222 15.1046 31.1543 14.8214 31.1543C14.5382 31.1543 14.3061 30.9222 14.3061 30.639C14.3061 30.3558 14.5382 30.1237 14.8214 30.1237ZM16.0609 26.2984C16.3441 26.2984 16.5762 26.5305 16.5762 26.8137C16.5762 27.0969 16.3441 27.329 16.0609 27.329C15.7777 27.329 15.5456 27.0969 15.5456 26.8137C15.5456 26.5305 15.7777 26.2984 16.0609 26.2984ZM14.4546 17.0555C14.7378 17.0555 14.9699 17.2876 14.9699 17.5708C14.9699 17.854 14.7378 18.0861 14.4546 18.0861C14.1715 18.0861 13.9393 17.854 13.9393 17.5708C13.9393 17.2876 14.1715 17.0555 14.4546 17.0555ZM8.31746 12.8867C8.31746 12.6035 8.54958 12.3714 8.83277 12.3714C9.11595 12.3714 9.34806 12.6035 9.34806 12.8867C9.34806 13.1699 9.11595 13.402 8.83277 13.402C8.54958 13.402 8.31746 13.1699 8.31746 12.8867ZM17.5511 7.36228C17.5511 7.0791 17.7832 6.84698 18.0664 6.84698C18.3496 6.84698 18.5817 7.0791 18.5817 7.36228C18.5817 7.64546 18.3496 7.87758 18.0664 7.87758C17.7832 7.87758 17.5511 7.64546 17.5511 7.36228ZM15.657 9.92949C15.9402 9.92949 16.1723 10.1616 16.1723 10.4448C16.1723 10.728 15.9402 10.9601 15.657 10.9601C15.3738 10.9601 15.1417 10.728 15.1417 10.4448C15.1417 10.3844 15.1556 10.3334 15.1742 10.2777L15.2206 10.2173L15.2067 10.2034C15.2949 10.0409 15.462 9.92485 15.657 9.92485V9.92949ZM11.5532 21.3682C11.27 21.3682 11.0379 21.1361 11.0379 20.8529C11.0379 20.5697 11.27 20.3376 11.5532 20.3376C11.7528 20.3376 11.9199 20.4537 12.0081 20.6208V21.0897C11.9199 21.2568 11.7528 21.3729 11.5532 21.3729V21.3682ZM8.89312 23.8705C8.60993 23.8705 8.37781 23.6383 8.37781 23.3552C8.37781 23.072 8.60993 22.8399 8.89312 22.8399C9.1763 22.8399 9.40842 23.072 9.40842 23.3552C9.40842 23.6383 9.1763 23.8705 8.89312 23.8705Z" fill="white"/>
<path d="M49.0498 32.2892H46.8633V31.5H52.1927V32.2892H49.9922V38.6956H49.0545V32.2892H49.0498Z" fill="white"/>
<path d="M52.769 36.2799C52.7922 37.5519 53.6 38.0718 54.5424 38.0718C55.2155 38.0718 55.6194 37.9557 55.9722 37.8026L56.1301 38.4757C55.8005 38.6242 55.2341 38.796 54.4124 38.796C52.8201 38.796 51.873 37.7515 51.873 36.1917C51.873 34.6318 52.7922 33.4062 54.2964 33.4062C55.9815 33.4062 56.4318 34.8918 56.4318 35.8388C56.4318 36.0292 56.4086 36.1824 56.3993 36.2752H52.769V36.2799ZM55.5266 35.6067C55.5359 35.0079 55.2805 34.0794 54.2221 34.0794C53.2704 34.0794 52.8572 34.9568 52.7783 35.6067H55.5219H55.5266Z" fill="white"/>
<path d="M61.3308 38.5052C61.0848 38.6352 60.5416 38.8024 59.8453 38.8024C58.2855 38.8024 57.2734 37.7439 57.2734 36.1655C57.2734 34.5871 58.3597 33.4219 60.0496 33.4219C60.602 33.4219 61.0941 33.5611 61.3541 33.6911L61.1405 34.4153C60.9177 34.2854 60.5649 34.1693 60.0542 34.1693C58.8704 34.1693 58.2298 35.0467 58.2298 36.1237C58.2298 37.3214 59.0004 38.0549 60.0217 38.0549C60.5556 38.0549 60.9084 37.9157 61.173 37.7996L61.3355 38.5052H61.3308Z" fill="white"/>
<path d="M62.4727 31.1133H63.4104V34.3397H63.4336C63.5822 34.0705 63.8189 33.8383 64.1068 33.6759C64.3853 33.5134 64.7149 33.4066 65.0677 33.4066C65.7594 33.4066 66.8736 33.8337 66.8736 35.6164V38.6896H65.9358V35.7231C65.9358 34.8921 65.6248 34.1865 64.7381 34.1865C64.13 34.1865 63.6472 34.6136 63.48 35.1243C63.429 35.2543 63.4151 35.3935 63.4151 35.5746V38.6942H62.4773V31.1133H62.4727Z" fill="white"/>
<path d="M68.4461 34.9275C68.4461 34.3936 68.4368 33.9572 68.4043 33.5301H69.2353L69.291 34.3843H69.3096C69.5649 33.8922 70.1637 33.4141 71.0179 33.4141C71.7329 33.4141 72.8424 33.8412 72.8424 35.6145V38.7017H71.9046V35.7213C71.9046 34.8903 71.5936 34.194 70.7069 34.194C70.0895 34.194 69.6067 34.6304 69.4488 35.1549C69.407 35.271 69.3838 35.4335 69.3838 35.5913V38.697H68.4461V34.9275Z" fill="white"/>
<path d="M79.0958 36.0663C79.0958 37.979 77.7727 38.8099 76.5239 38.8099C75.1266 38.8099 74.0449 37.784 74.0449 36.1499C74.0449 34.4183 75.1777 33.4062 76.6075 33.4062C78.0373 33.4062 79.0958 34.4833 79.0958 36.0663ZM74.9966 36.122C74.9966 37.2548 75.6465 38.1089 76.5657 38.1089C77.4849 38.1089 78.1348 37.264 78.1348 36.1035C78.1348 35.226 77.6984 34.1165 76.5889 34.1165C75.4794 34.1165 74.9966 35.1425 74.9966 36.122Z" fill="white"/>
<path d="M80.3242 31.1133H81.262V38.6942H80.3242V31.1133Z" fill="white"/>
<path d="M87.5685 36.0663C87.5685 37.979 86.2454 38.8099 84.9966 38.8099C83.5992 38.8099 82.5176 37.784 82.5176 36.1499C82.5176 34.4183 83.6503 33.4062 85.0802 33.4062C86.51 33.4062 87.5685 34.4833 87.5685 36.0663ZM83.4693 36.122C83.4693 37.2548 84.1192 38.1089 85.0384 38.1089C85.9576 38.1089 86.6075 37.264 86.6075 36.1035C86.6075 35.226 86.1711 34.1165 85.0616 34.1165C83.9521 34.1165 83.4693 35.1425 83.4693 36.122Z" fill="white"/>
<path d="M93.2504 33.5238C93.2272 33.8952 93.2086 34.313 93.2086 34.9443V37.9433C93.2086 39.1271 92.9719 39.8559 92.4705 40.3016C91.9691 40.7705 91.2449 40.919 90.5903 40.919C89.9358 40.919 89.2858 40.7705 88.8727 40.4919L89.1094 39.777C89.453 39.9906 89.9868 40.1809 90.6275 40.1809C91.5884 40.1809 92.2941 39.6795 92.2941 38.375V37.7994H92.2755C91.9877 38.2822 91.4306 38.6629 90.6321 38.6629C89.3508 38.6629 88.4316 37.5719 88.4316 36.1421C88.4316 34.3919 89.5737 33.3984 90.7575 33.3984C91.6534 33.3984 92.1455 33.8673 92.3683 34.2944H92.3916L92.4333 33.5145H93.255L93.2504 33.5238ZM92.2801 35.5618C92.2801 35.4039 92.2709 35.2647 92.2291 35.1347C92.0573 34.5915 91.5977 34.1412 90.9153 34.1412C90.0193 34.1412 89.3787 34.8979 89.3787 36.0956C89.3787 37.1123 89.8893 37.9526 90.906 37.9526C91.4817 37.9526 92.0062 37.5905 92.2105 36.9916C92.2662 36.8291 92.2848 36.6481 92.2848 36.4902V35.5618H92.2801Z" fill="white"/>
<path d="M95.798 32.074C95.8073 32.3943 95.5752 32.6496 95.1992 32.6496C94.8696 32.6496 94.6328 32.3943 94.6328 32.074C94.6328 31.7536 94.8789 31.4844 95.2224 31.4844C95.5659 31.4844 95.798 31.7397 95.798 32.074ZM94.7489 38.6939V33.527H95.6866V38.6939H94.7489Z" fill="white"/>
<path d="M97.8179 36.2799C97.8411 37.5519 98.6488 38.0718 99.5912 38.0718C100.264 38.0718 100.668 37.9557 101.021 37.8026L101.179 38.4757C100.849 38.6242 100.283 38.796 99.4612 38.796C97.8689 38.796 96.9219 37.7515 96.9219 36.1917C96.9219 34.6318 97.8411 33.4062 99.3452 33.4062C101.03 33.4062 101.481 34.8918 101.481 35.8388C101.481 36.0292 101.457 36.1824 101.448 36.2752H97.8179V36.2799ZM100.571 35.6067C100.58 35.0079 100.325 34.0794 99.2663 34.0794C98.3146 34.0794 97.9014 34.9568 97.8225 35.6067H100.566H100.571Z" fill="white"/>
<path d="M102.563 37.7329C102.841 37.914 103.334 38.1089 103.802 38.1089C104.485 38.1089 104.805 37.7654 104.805 37.3383C104.805 36.888 104.536 36.642 103.844 36.3866C102.916 36.057 102.479 35.5417 102.479 34.9243C102.479 34.0933 103.153 33.4062 104.262 33.4062C104.787 33.4062 105.246 33.5548 105.534 33.7266L105.297 34.409C105.093 34.279 104.722 34.1119 104.239 34.1119C103.686 34.1119 103.375 34.4322 103.375 34.8175C103.375 35.2446 103.686 35.435 104.355 35.6949C105.251 36.0385 105.71 36.4841 105.71 37.2548C105.71 38.1647 105.005 38.8053 103.779 38.8053C103.213 38.8053 102.693 38.666 102.326 38.4525L102.563 37.7376V37.7329Z" fill="white"/>
</svg>
