<svg width="1400" height="848" viewBox="0 0 1400 848" fill="none" xmlns="http://www.w3.org/2000/svg">
<path d="M-0.998851 211.078L332.732 211.078" stroke="white" stroke-opacity="0.5" stroke-linecap="round" stroke-linejoin="round"/>
<path d="M-0.994357 229.48L314.49 229.48" stroke="#F04835" stroke-opacity="0.6" stroke-linecap="round" stroke-linejoin="round"/>
<path d="M-0.99601 196.605L345.769 196.605" stroke="white" stroke-opacity="0.5" stroke-linecap="round" stroke-linejoin="round"/>
<path d="M-1.00007 253.148L301.451 253.148" stroke="white" stroke-opacity="0.5" stroke-linecap="round" stroke-linejoin="round"/>
<path d="M-0.997298 179.516L354.891 179.516" stroke="#F04835" stroke-opacity="0.6" stroke-linecap="round" stroke-linejoin="round"/>
<path d="M-0.996198 289.937L277.995 289.938" stroke="#F04835" stroke-opacity="0.6" stroke-linecap="round" stroke-linejoin="round"/>
<path d="M-0.997673 271.535L289.724 271.535" stroke="#F04835" stroke-opacity="0.6" stroke-linecap="round" stroke-linejoin="round"/>
<path d="M-0.998082 159.809L358.8 159.809" stroke="#F04835" stroke-opacity="0.6" stroke-linecap="round" stroke-linejoin="round"/>
<path d="M-0.993857 303.094L262.357 303.094" stroke="white" stroke-opacity="0.5" stroke-linecap="round" stroke-linejoin="round"/>
<path d="M-0.998361 142.715L263.656 142.715" stroke="white" stroke-opacity="0.5" stroke-linecap="round" stroke-linejoin="round"/>
<path d="M-0.996194 321.504L237.592 321.504" stroke="#F04835" stroke-opacity="0.6" stroke-linecap="round" stroke-linejoin="round"/>
<path d="M-0.999266 126.934L250.622 126.934" stroke="#F04835" stroke-opacity="0.6" stroke-linecap="round" stroke-linejoin="round"/>
<path d="M237.549 321.504L313.846 430.606" stroke="#F04835" stroke-opacity="0.6" stroke-linecap="round" stroke-linejoin="round"/>
<path d="M313.846 430.602L313.846 543.608" stroke="#F04835" stroke-opacity="0.6" stroke-linecap="round" stroke-linejoin="round"/>
<path d="M263.019 303.094L341.206 418.769" stroke="white" stroke-opacity="0.5" stroke-linecap="round" stroke-linejoin="round"/>
<path d="M341.206 418.773L341.206 590.321" stroke="white" stroke-opacity="0.5" stroke-linecap="round" stroke-linejoin="round"/>
<path d="M341.14 590.324L462.35 667.231" stroke="white" stroke-opacity="0.5" stroke-linecap="round" stroke-linejoin="round"/>
<path d="M278.307 289.883L354.891 402.942" stroke="#F04835" stroke-opacity="0.6" stroke-linecap="round" stroke-linejoin="round"/>
<path d="M354.891 402.941L354.891 580.458" stroke="#F04835" stroke-opacity="0.6" stroke-linecap="round" stroke-linejoin="round"/>
<path d="M354.818 580.461L472.065 651.425" stroke="#F04835" stroke-opacity="0.6" stroke-linecap="round" stroke-linejoin="round"/>
<path d="M302.119 253.148L384.216 374.74" stroke="white" stroke-opacity="0.5" stroke-linecap="round" stroke-linejoin="round"/>
<path d="M384.216 374.73L461.751 374.73" stroke="white" stroke-opacity="0.5" stroke-linecap="round" stroke-linejoin="round"/>
<path d="M315.152 229.48L386.822 342.527" stroke="#F04835" stroke-opacity="0.6" stroke-linecap="round" stroke-linejoin="round"/>
<path d="M388.125 342.527L483.255 342.527" stroke="#F04835" stroke-opacity="0.6" stroke-linecap="round" stroke-linejoin="round"/>
<path d="M333.384 211.078L401.809 326.044" stroke="white" stroke-opacity="0.5" stroke-linecap="round" stroke-linejoin="round"/>
<path d="M401.811 326.039L519.749 326.039" stroke="white" stroke-opacity="0.5" stroke-linecap="round" stroke-linejoin="round"/>
<path d="M462.35 667.227L462.35 743.673" stroke="white" stroke-opacity="0.5" stroke-linecap="round" stroke-linejoin="round"/>
<path d="M472.065 651.414L472.065 751.55" stroke="#F04835" stroke-opacity="0.6" stroke-linecap="round" stroke-linejoin="round"/>
<path d="M472.072 752.355L700.846 752.355" stroke="#F04835" stroke-opacity="0.6" stroke-linecap="round" stroke-linejoin="round"/>
<path d="M462.35 374.73L462.35 552.194" stroke="white" stroke-opacity="0.5" stroke-linecap="round" stroke-linejoin="round"/>
<path d="M462.349 552.195L700.846 552.195" stroke="white" stroke-opacity="0.5" stroke-linecap="round" stroke-linejoin="round"/>
<path d="M482.877 342.527L482.877 525.21" stroke="#F04835" stroke-opacity="0.6" stroke-linecap="round" stroke-linejoin="round"/>
<path d="M481.895 525.199L767.312 525.199" stroke="#F04835" stroke-opacity="0.6" stroke-linecap="round" stroke-linejoin="round"/>
<path d="M767.312 525.199L767.312 633.013" stroke="#F04835" stroke-opacity="0.6" stroke-linecap="round" stroke-linejoin="round"/>
<path d="M767.311 633.012L917.833 633.012" stroke="#F04835" stroke-opacity="0.6" stroke-linecap="round" stroke-linejoin="round"/>
<path d="M917.837 642.897C923.245 642.897 927.638 638.467 927.638 633.011C927.638 627.555 923.245 623.125 917.837 623.125C912.428 623.125 908.036 627.555 908.036 633.011C908.036 638.467 912.428 642.897 917.837 642.897Z" fill="#F04835" fill-opacity="0.6"/>
<path d="M700.846 552.195L700.846 674.457" stroke="white" stroke-opacity="0.5" stroke-linecap="round" stroke-linejoin="round"/>
<path d="M700.842 674.453L767.312 674.453" stroke="white" stroke-opacity="0.5" stroke-linecap="round" stroke-linejoin="round"/>
<path d="M767.316 684.346C772.725 684.346 777.117 679.916 777.117 674.46C777.117 669.005 772.725 664.574 767.316 664.574C761.907 664.574 757.515 669.005 757.515 674.46C757.515 679.916 761.907 684.346 767.316 684.346Z" fill="white" fill-opacity="0.5"/>
<path d="M313.846 543.613L221.961 543.613" stroke="#F04835" stroke-opacity="0.6" stroke-linecap="round" stroke-linejoin="round"/>
<path d="M221.964 543.613L221.964 628.776" stroke="#F04835" stroke-opacity="0.6" stroke-linecap="round" stroke-linejoin="round"/>
<path d="M212.166 628.765C212.166 634.221 216.559 638.651 221.967 638.651C227.376 638.651 231.769 634.221 231.769 628.765C231.769 623.309 227.376 618.879 221.967 618.879C216.559 618.879 212.166 623.309 212.166 628.765Z" fill="#F04835" fill-opacity="0.6"/>
<path d="M462.35 743.68L401.745 743.68" stroke="white" stroke-opacity="0.5" stroke-linecap="round" stroke-linejoin="round"/>
<path d="M401.809 743.68L401.809 813.146" stroke="white" stroke-opacity="0.5" stroke-linecap="round" stroke-linejoin="round"/>
<path d="M392.014 813.136C392.014 818.592 396.406 823.022 401.815 823.022C407.224 823.022 411.616 818.592 411.616 813.136C411.616 807.68 407.224 803.25 401.815 803.25C396.406 803.25 392.014 807.68 392.014 813.136Z" fill="white" fill-opacity="0.5"/>
<path d="M700.846 752.355L700.846 828.237" stroke="#F04835" stroke-opacity="0.6" stroke-linecap="round" stroke-linejoin="round"/>
<path d="M700.842 828.227L767.312 828.227" stroke="#F04835" stroke-opacity="0.6" stroke-linecap="round" stroke-linejoin="round"/>
<path d="M767.316 838.112C772.725 838.112 777.117 833.682 777.117 828.226C777.117 822.77 772.725 818.34 767.316 818.34C761.907 818.34 757.515 822.77 757.515 828.226C757.515 833.682 761.907 838.112 767.316 838.112Z" fill="#F04835" fill-opacity="0.6"/>
<path d="M520.268 326.039L520.268 504.883" stroke="white" stroke-opacity="0.5" stroke-linecap="round" stroke-linejoin="round"/>
<path d="M520.265 504.879L786.861 504.879" stroke="white" stroke-opacity="0.5" stroke-linecap="round" stroke-linejoin="round"/>
<path d="M786.861 504.879L786.861 613.324" stroke="white" stroke-opacity="0.5" stroke-linecap="round" stroke-linejoin="round"/>
<path d="M787.201 613.129H1305.91" stroke="white" stroke-opacity="0.5" stroke-linecap="round" stroke-linejoin="round"/>
<path d="M1306.13 623.331C1311.54 623.331 1315.93 618.9 1315.93 613.445C1315.93 607.989 1311.54 603.559 1306.13 603.559C1300.72 603.559 1296.33 607.989 1296.33 613.445C1296.33 618.9 1300.72 623.331 1306.13 623.331Z" fill="white" fill-opacity="0.5"/>
<path d="M289.725 271.535L379.003 402.934" stroke="#F04835" stroke-opacity="0.6" stroke-linecap="round" stroke-linejoin="round"/>
<path d="M379.003 402.941L377.7 569.941" stroke="#F04835" stroke-opacity="0.6" stroke-linecap="round" stroke-linejoin="round"/>
<path d="M377.633 569.941L482.877 633.018" stroke="#F04835" stroke-opacity="0.6" stroke-linecap="round" stroke-linejoin="round"/>
<path d="M477.869 641.512C482.522 644.299 488.531 642.761 491.307 638.068C494.07 633.375 492.545 627.314 487.892 624.514C483.239 621.727 477.231 623.265 474.455 627.958C471.692 632.652 473.216 638.712 477.869 641.512Z" fill="#F04835" fill-opacity="0.6"/>
<path d="M661.748 579.09L450.608 579.09" stroke="white" stroke-opacity="0.5" stroke-linecap="round" stroke-linejoin="round"/>
<path d="M450.536 569.219C445.127 569.219 440.735 573.649 440.735 579.105C440.735 584.561 445.127 588.991 450.536 588.991C455.945 588.991 460.337 584.561 460.337 579.105C460.337 573.649 455.945 569.219 450.536 569.219Z" fill="white" fill-opacity="0.5"/>
<path d="M661.748 579.09L661.748 700.037" stroke="white" stroke-opacity="0.5" stroke-linecap="round" stroke-linejoin="round"/>
<path d="M651.874 700.054C651.874 705.51 656.267 709.94 661.675 709.94C667.084 709.94 671.477 705.51 671.477 700.054C671.477 694.598 667.084 690.168 661.675 690.168C656.267 690.168 651.874 694.598 651.874 700.054Z" fill="white" fill-opacity="0.5"/>
<path d="M413.444 402.941L442.795 402.941" stroke="#F04835" stroke-opacity="0.6" stroke-linecap="round" stroke-linejoin="round"/>
<path d="M413.515 412.827C408.107 412.827 403.714 408.397 403.714 402.941C403.714 397.485 408.107 393.055 413.515 393.055C418.924 393.055 423.316 397.485 423.316 402.941C423.316 408.397 418.924 412.827 413.515 412.827Z" fill="#F04835" fill-opacity="0.6"/>
<path d="M442.795 402.941L442.795 559.095" stroke="#F04835" stroke-opacity="0.6" stroke-linecap="round" stroke-linejoin="round"/>
<path d="M442.795 559.098L413.444 559.098" stroke="#F04835" stroke-opacity="0.6" stroke-linecap="round" stroke-linejoin="round"/>
<path d="M413.515 549.203C408.107 549.203 403.714 553.633 403.714 559.089C403.714 564.545 408.107 568.975 413.515 568.975C418.924 568.975 423.316 564.545 423.316 559.089C423.316 553.633 418.924 549.203 413.515 549.203Z" fill="#F04835" fill-opacity="0.6"/>
<path d="M632.418 733.945L493.626 733.945" stroke="#F04835" stroke-opacity="0.6" stroke-linecap="round" stroke-linejoin="round"/>
<path d="M622.689 733.953C622.689 739.413 627.077 743.839 632.49 743.839C637.903 743.839 642.291 739.413 642.291 733.953C642.291 728.493 637.903 724.066 632.49 724.066C627.077 724.066 622.689 728.493 622.689 733.953Z" fill="#F04835" fill-opacity="0.6"/>
<path d="M493.694 733.941L493.694 674.453" stroke="#F04835" stroke-opacity="0.6" stroke-linecap="round" stroke-linejoin="round"/>
<path d="M503.495 674.46C503.495 669.005 499.103 664.574 493.694 664.574C488.285 664.574 483.893 669.005 483.893 674.46C483.893 679.916 488.285 684.346 493.694 684.346C499.103 684.346 503.495 679.916 503.495 674.46Z" fill="#F04835" fill-opacity="0.6"/>
<path d="M665.72 778.402L435.03 778.402" stroke="white" stroke-opacity="0.5" stroke-linecap="round" stroke-linejoin="round"/>
<path d="M434.315 778.402L434.315 838.114" stroke="white" stroke-opacity="0.5" stroke-linecap="round" stroke-linejoin="round"/>
<path d="M424.449 838.113C424.449 843.568 428.841 847.999 434.25 847.999C439.659 847.999 444.051 843.568 444.051 838.113C444.051 832.657 439.659 828.227 434.25 828.227C428.841 828.227 424.449 832.657 424.449 838.113Z" fill="white" fill-opacity="0.5"/>
<path d="M665.72 778.402L665.72 838.114" stroke="white" stroke-opacity="0.5" stroke-linecap="round" stroke-linejoin="round"/>
<path d="M655.855 838.113C655.855 843.568 660.247 847.999 665.656 847.999C671.065 847.999 675.457 843.568 675.457 838.113C675.457 832.657 671.065 828.227 665.656 828.227C660.247 828.227 655.855 832.657 655.855 838.113Z" fill="white" fill-opacity="0.5"/>
<path d="M625.969 613.32L520.334 613.32" stroke="#F04835" stroke-opacity="0.6" stroke-linecap="round" stroke-linejoin="round"/>
<path d="M510.532 613.328C510.532 618.787 514.92 623.214 520.333 623.214C525.746 623.214 530.134 618.787 530.134 613.328C530.134 607.868 525.746 603.441 520.333 603.441C514.92 603.441 510.532 607.868 510.532 613.328Z" fill="#F04835" fill-opacity="0.6"/>
<path d="M627.21 613.32L627.21 684.587" stroke="#F04835" stroke-opacity="0.6" stroke-linecap="round" stroke-linejoin="round"/>
<path d="M617.473 684.597C617.473 690.053 621.865 694.483 627.274 694.483C632.683 694.483 637.075 690.053 637.075 684.597C637.075 679.141 632.683 674.711 627.274 674.711C621.865 674.711 617.473 679.141 617.473 684.597Z" fill="#F04835" fill-opacity="0.6"/>
<path d="M346.42 196.594L413.516 303.093" stroke="white" stroke-opacity="0.5" stroke-linecap="round" stroke-linejoin="round"/>
<path d="M413.444 303.094L653.557 303.094" stroke="white" stroke-opacity="0.5" stroke-linecap="round" stroke-linejoin="round"/>
<path d="M653.557 303.105L653.557 253.148" stroke="white" stroke-opacity="0.5" stroke-linecap="round" stroke-linejoin="round"/>
<path d="M653.019 252.633L1033.59 252.633" stroke="white" stroke-opacity="0.5" stroke-linecap="round" stroke-linejoin="round"/>
<path d="M1033.7 263.018C1039.11 263.018 1043.51 258.588 1043.51 253.132C1043.51 247.676 1039.11 243.246 1033.7 243.246C1028.3 243.246 1023.9 247.676 1023.9 253.132C1023.9 258.588 1028.3 263.018 1033.7 263.018Z" fill="white" fill-opacity="0.5"/>
<path d="M354.892 179.516L417.777 278.114" stroke="#F04835" stroke-opacity="0.6" stroke-linecap="round" stroke-linejoin="round"/>
<path d="M419.01 278.117L632.418 278.117" stroke="#F04835" stroke-opacity="0.6" stroke-linecap="round" stroke-linejoin="round"/>
<path d="M632.418 278.115L632.418 238.676" stroke="#F04835" stroke-opacity="0.6" stroke-linecap="round" stroke-linejoin="round"/>
<path d="M632.42 238.676L818.145 238.676" stroke="#F04835" stroke-opacity="0.6" stroke-linecap="round" stroke-linejoin="round"/>
<path d="M818.145 238.681L818.145 159.789" stroke="#F04835" stroke-opacity="0.6" stroke-linecap="round" stroke-linejoin="round"/>
<path d="M818.35 159.773L1389.88 159.773" stroke="#F04835" stroke-opacity="0.6" stroke-linecap="round" stroke-linejoin="round"/>
<path d="M1390.2 172.729C1395.61 172.729 1400 168.299 1400 162.843C1400 157.387 1395.61 152.957 1390.2 152.957C1384.79 152.957 1380.4 157.387 1380.4 162.843C1380.4 168.299 1384.79 172.729 1390.2 172.729Z" fill="#F04835" fill-opacity="0.6"/>
<path d="M857.299 278.117L673.542 278.117" stroke="white" stroke-opacity="0.5" stroke-linecap="round" stroke-linejoin="round"/>
<path d="M857.229 268.223C862.638 268.223 867.03 272.653 867.03 278.109C867.03 283.565 862.638 287.995 857.229 287.995C851.82 287.995 847.428 283.565 847.428 278.109C847.428 272.653 851.82 268.223 857.229 268.223Z" fill="white" fill-opacity="0.5"/>
<path d="M673.539 278.117L673.539 358.271" stroke="white" stroke-opacity="0.5" stroke-linecap="round" stroke-linejoin="round"/>
<path d="M663.672 358.273C663.672 363.729 668.065 368.159 673.473 368.159C678.882 368.159 683.274 363.729 683.274 358.273C683.274 352.817 678.882 348.387 673.473 348.387C668.065 348.387 663.672 352.817 663.672 358.273Z" fill="white" fill-opacity="0.5"/>
<path d="M639.29 326.039L533.577 326.039" stroke="#F04835" stroke-opacity="0.6" stroke-linecap="round" stroke-linejoin="round"/>
<path d="M629.494 326.038C629.494 331.498 633.882 335.925 639.295 335.925C644.708 335.925 649.096 331.498 649.096 326.038C649.096 320.579 644.708 316.152 639.295 316.152C633.882 316.152 629.494 320.579 629.494 326.038Z" fill="#F04835" fill-opacity="0.6"/>
<path d="M533.578 326.039L533.578 491.711" stroke="#F04835" stroke-opacity="0.6" stroke-linecap="round" stroke-linejoin="round"/>
<path d="M533.51 491.707L818.145 491.707" stroke="#F04835" stroke-opacity="0.6" stroke-linecap="round" stroke-linejoin="round"/>
<path d="M808.412 491.706C808.412 497.166 812.8 501.593 818.213 501.593C823.626 501.593 828.014 497.166 828.014 491.706C828.014 486.246 823.626 481.82 818.213 481.82C812.8 481.82 808.412 486.246 808.412 491.706Z" fill="#F04835" fill-opacity="0.6"/>
<path d="M614.893 365.812L550.378 365.812" stroke="#F04835" stroke-opacity="0.6" stroke-linecap="round" stroke-linejoin="round"/>
<path d="M605.025 365.812C605.025 371.272 609.413 375.698 614.826 375.698C620.239 375.698 624.627 371.272 624.627 365.812C624.627 360.352 620.239 355.926 614.826 355.926C609.413 355.926 605.025 360.352 605.025 365.812Z" fill="#F04835" fill-opacity="0.6"/>
<path d="M550.308 365.812L550.308 463.464" stroke="#F04835" stroke-opacity="0.6" stroke-linecap="round" stroke-linejoin="round"/>
<path d="M550.378 463.469L725.351 463.469" stroke="#F04835" stroke-opacity="0.6" stroke-linecap="round" stroke-linejoin="round"/>
<path d="M715.482 463.472C715.482 468.932 719.87 473.358 725.283 473.358C730.696 473.358 735.084 468.932 735.084 463.472C735.084 458.012 730.696 453.586 725.283 453.586C719.87 453.586 715.482 458.012 715.482 463.472Z" fill="#F04835" fill-opacity="0.6"/>
<path d="M806.153 525.199L806.153 588.328" stroke="#F04835" stroke-opacity="0.6" stroke-linecap="round" stroke-linejoin="round"/>
<path d="M796.287 525.21C796.287 519.755 800.679 515.324 806.088 515.324C811.496 515.324 815.889 519.755 815.889 525.21C815.889 530.666 811.496 535.096 806.088 535.096C800.679 535.096 796.287 530.666 796.287 525.21Z" fill="#F04835" fill-opacity="0.6"/>
<path d="M806.412 588.332L902.194 588.332" stroke="#F04835" stroke-opacity="0.6" stroke-linecap="round" stroke-linejoin="round"/>
<path d="M902.193 598.218C907.602 598.218 911.994 593.787 911.994 588.331C911.994 582.876 907.602 578.445 902.193 578.445C896.784 578.445 892.392 582.876 892.392 588.331C892.392 593.787 896.784 598.218 902.193 598.218Z" fill="#F04835" fill-opacity="0.6"/>
<path d="M359.776 159.926L424.278 258.393" stroke="#F04835" stroke-opacity="0.6" stroke-linecap="round" stroke-linejoin="round"/>
<path d="M424.28 258.391L614.893 258.391" stroke="#F04835" stroke-opacity="0.6" stroke-linecap="round" stroke-linejoin="round"/>
<path d="M614.893 258.405L614.893 211.078" stroke="#F04835" stroke-opacity="0.6" stroke-linecap="round" stroke-linejoin="round"/>
<path d="M614.825 211.078L786.865 211.078" stroke="#F04835" stroke-opacity="0.6" stroke-linecap="round" stroke-linejoin="round"/>
<path d="M786.865 211.067L786.865 9.88672" stroke="#F04835" stroke-opacity="0.6" stroke-linecap="round" stroke-linejoin="round"/>
<path d="M786.865 9.88671L898.287 9.88672" stroke="#F04835" stroke-opacity="0.6" stroke-linecap="round" stroke-linejoin="round"/>
<path d="M898.283 19.7723C903.692 19.7723 908.084 15.3419 908.084 9.88613C908.084 4.43035 903.705 -1.93003e-07 898.283 -4.3196e-07C892.861 -6.70917e-07 888.482 4.43035 888.482 9.88613C888.482 15.3419 892.874 19.7723 898.283 19.7723Z" fill="#F04835" fill-opacity="0.6"/>
<path d="M958.887 32.0195L806.41 32.0195" stroke="white" stroke-opacity="0.5" stroke-linecap="round" stroke-linejoin="round"/>
<path d="M958.791 22.1328C964.2 22.1328 968.592 26.5632 968.592 32.0189C968.592 37.4747 964.2 41.9051 958.791 41.9051C953.382 41.9051 948.99 37.4747 948.99 32.0189C948.99 26.5632 953.382 22.1328 958.791 22.1328Z" fill="white" fill-opacity="0.5"/>
<path d="M806.483 32.4102L806.483 137.227" stroke="white" stroke-opacity="0.5" stroke-linecap="round" stroke-linejoin="round"/>
<path d="M806.415 137.227L898.287 137.227" stroke="white" stroke-opacity="0.5" stroke-linecap="round" stroke-linejoin="round"/>
<path d="M898.283 147.112C903.692 147.112 908.084 142.682 908.084 137.226C908.084 131.77 903.692 127.34 898.283 127.34C892.874 127.34 888.482 131.77 888.482 137.226C888.482 142.682 892.874 147.112 898.283 147.112Z" fill="white" fill-opacity="0.5"/>
<path d="M263.654 142.706L275.696 118.109" stroke="white" stroke-opacity="0.5" stroke-linecap="round" stroke-linejoin="round"/>
<path d="M275.633 118.109L563.031 118.109" stroke="white" stroke-opacity="0.5" stroke-linecap="round" stroke-linejoin="round"/>
<path d="M563.031 118.112L563.031 32.4102" stroke="white" stroke-opacity="0.5" stroke-linecap="round" stroke-linejoin="round"/>
<path d="M563.097 32.4101L734.146 32.4102" stroke="white" stroke-opacity="0.5" stroke-linecap="round" stroke-linejoin="round"/>
<path d="M734.081 42.2957C739.49 42.2957 743.882 37.8653 743.882 32.4096C743.882 26.9538 739.49 22.5234 734.081 22.5234C728.672 22.5234 724.28 26.9538 724.28 32.4096C724.28 37.8653 728.672 42.2957 734.081 42.2957Z" fill="white" fill-opacity="0.5"/>
<path d="M250.635 126.905L263.017 102.637" stroke="#F04835" stroke-opacity="0.6" stroke-linecap="round" stroke-linejoin="round"/>
<path d="M263.019 101.637L533.578 101.637" stroke="#F04835" stroke-opacity="0.6" stroke-linecap="round" stroke-linejoin="round"/>
<path d="M533.578 100.65L533.578 9.88672" stroke="#F04835" stroke-opacity="0.6" stroke-linecap="round" stroke-linejoin="round"/>
<path d="M543.307 9.88613C543.307 4.43035 538.914 -1.93577e-07 533.506 -4.31959e-07C528.097 -6.70342e-07 523.705 4.43035 523.705 9.88613C523.705 15.3419 528.097 19.7723 533.506 19.7723C538.914 19.7723 543.307 15.3419 543.307 9.88613Z" fill="#F04835" fill-opacity="0.6"/>
<path d="M488.403 35.5547L488.403 86.6418" stroke="white" stroke-opacity="0.5" stroke-linecap="round" stroke-linejoin="round"/>
<path d="M478.537 35.5736C478.537 30.1178 482.929 25.6875 488.338 25.6875C493.746 25.6875 498.139 30.1178 498.139 35.5736C498.139 41.0294 493.746 45.4598 488.338 45.4598C482.929 45.4598 478.537 41.0294 478.537 35.5736Z" fill="white" fill-opacity="0.5"/>
<path d="M488.403 86.6562L274.813 86.6562" stroke="white" stroke-opacity="0.5" stroke-linecap="round" stroke-linejoin="round"/>
<path d="M274.893 86.6588L274.893 28.4727" stroke="white" stroke-opacity="0.5" stroke-linecap="round" stroke-linejoin="round"/>
<path d="M284.692 28.4799C284.692 23.0241 280.3 18.5937 274.891 18.5937C269.482 18.5937 265.09 23.0241 265.09 28.4799C265.09 33.9356 269.482 38.366 274.891 38.366C280.3 38.366 284.692 33.9356 284.692 28.4799Z" fill="white" fill-opacity="0.5"/>
<path d="M238.867 9.88672L238.867 110.47" stroke="#478CAD" stroke-linecap="round" stroke-linejoin="round"/>
<path d="M229.068 9.88613C229.068 4.43035 233.46 -6.70344e-07 238.869 -4.31961e-07C244.278 -1.93579e-07 248.67 4.43035 248.67 9.88613C248.67 15.3419 244.278 19.7723 238.869 19.7723C233.46 19.7723 229.068 15.3419 229.068 9.88613Z" fill="white" fill-opacity="0.5"/>
<path d="M237.551 110.477L-0.998072 110.477" stroke="#478CAD" stroke-linecap="round" stroke-linejoin="round"/>
<path d="M765.362 54.3242L586.467 55.2708" stroke="#F04835" stroke-opacity="0.6" stroke-linecap="round" stroke-linejoin="round"/>
<path d="M765.374 44.4376C770.783 44.4113 775.201 48.8154 775.227 54.2712C775.253 59.7269 770.887 64.1836 765.479 64.2099C760.07 64.2362 755.651 59.8321 755.625 54.3763C755.599 48.9206 759.965 44.4639 765.374 44.4376Z" fill="#F04835" fill-opacity="0.6"/>
<path d="M586.53 55.2734L586.53 143.986" stroke="#F04835" stroke-opacity="0.6" stroke-linecap="round" stroke-linejoin="round"/>
<path d="M586.53 143.984L401.809 143.984" stroke="#F04835" stroke-opacity="0.6" stroke-linecap="round" stroke-linejoin="round"/>
<path d="M401.815 134.098C396.406 134.098 392.014 138.528 392.014 143.984C392.014 149.44 396.406 153.87 401.815 153.87C407.224 153.87 411.616 149.44 411.616 143.984C411.616 138.528 407.224 134.098 401.815 134.098Z" fill="#F04835" fill-opacity="0.6"/>
<path d="M691.138 75.2656L605.118 75.2656" stroke="#F04835" stroke-opacity="0.6" stroke-linecap="round" stroke-linejoin="round"/>
<path d="M691.137 65.3828C696.546 65.3828 700.938 69.8132 700.938 75.2689C700.938 80.7247 696.546 85.1551 691.137 85.1551C685.729 85.1551 681.336 80.7247 681.336 75.2689C681.336 69.8132 685.729 65.3828 691.137 65.3828Z" fill="#F04835" fill-opacity="0.6"/>
<path d="M605.047 75.2656L605.047 153.211" stroke="#F04835" stroke-opacity="0.6" stroke-linecap="round" stroke-linejoin="round"/>
<path d="M595.33 153.222C595.33 158.678 599.722 163.108 605.131 163.108C610.539 163.108 614.932 158.678 614.932 153.222C614.932 147.766 610.539 143.336 605.131 143.336C599.722 143.336 595.33 147.766 595.33 153.222Z" fill="#F04835" fill-opacity="0.6"/>
<path d="M750.695 84.8242L750.695 194.281" stroke="#F04835" stroke-opacity="0.6" stroke-linecap="round" stroke-linejoin="round"/>
<path d="M740.896 84.8158C740.896 79.36 745.288 74.9297 750.697 74.9297C756.106 74.9297 760.498 79.36 760.498 84.8158C760.498 90.2716 756.106 94.7019 750.697 94.7019C745.288 94.7019 740.896 90.2716 740.896 84.8158Z" fill="#F04835" fill-opacity="0.6"/>
<path d="M749.719 194.27L637.802 194.27" stroke="#F04835" stroke-opacity="0.6" stroke-linecap="round" stroke-linejoin="round"/>
<path d="M637.867 194.268L637.867 123.527" stroke="#F04835" stroke-opacity="0.6" stroke-linecap="round" stroke-linejoin="round"/>
<path d="M647.672 123.542C647.672 118.087 643.28 113.656 637.871 113.656C632.462 113.656 628.07 118.087 628.07 123.542C628.07 128.998 632.462 133.429 637.871 133.429C643.28 133.429 647.672 128.998 647.672 123.542Z" fill="#F04835" fill-opacity="0.6"/>
<path d="M586.53 192.328L586.53 238.669" stroke="#F04835" stroke-opacity="0.6" stroke-linecap="round" stroke-linejoin="round"/>
<path d="M576.661 192.32C576.661 186.864 581.053 182.434 586.462 182.434C591.87 182.434 596.263 186.864 596.263 192.32C596.263 197.775 591.87 202.206 586.462 202.206C581.053 202.206 576.661 197.775 576.661 192.32Z" fill="#F04835" fill-opacity="0.6"/>
<path d="M586.53 238.668L442.864 238.668" stroke="#F04835" stroke-opacity="0.6" stroke-linecap="round" stroke-linejoin="round"/>
<path d="M442.795 238.67L413.444 184.125" stroke="#F04835" stroke-opacity="0.6" stroke-linecap="round" stroke-linejoin="round"/>
<path d="M422.128 179.4C419.547 174.601 413.591 172.827 408.834 175.43C404.077 178.033 402.317 184.04 404.898 188.839C407.478 193.637 413.434 195.412 418.192 192.809C422.949 190.206 424.708 184.198 422.128 179.4Z" fill="#F04835" fill-opacity="0.6"/>
<path d="M462.237 182.162C467.289 175.639 477.456 170.691 489.178 170.691C500.9 170.691 511.467 175.836 516.411 182.55" stroke="#F04835" stroke-opacity="0.6" stroke-miterlimit="10" stroke-linecap="round"/>
<path d="M475.499 194.84C478.078 191.51 483.268 188.984 489.251 188.984C495.233 188.984 500.628 191.61 503.152 195.038" stroke="#F04835" stroke-opacity="0.6" stroke-miterlimit="10" stroke-linecap="round"/>
<path d="M468.621 188.834C472.482 183.848 480.253 180.066 489.211 180.066C498.168 180.066 506.246 183.998 510.024 189.129" stroke="#F04835" stroke-opacity="0.6" stroke-miterlimit="10" stroke-linecap="round"/>
<path d="M482.283 201.805C483.596 200.11 486.238 198.824 489.283 198.824C492.328 198.824 495.075 200.161 496.359 201.905" stroke="#F04835" stroke-opacity="0.6" stroke-miterlimit="10" stroke-linecap="round"/>
</svg>
