<svg width="17" height="17" viewBox="0 0 17 17" fill="none" xmlns="http://www.w3.org/2000/svg">
<path d="M15.525 0H0.675C0.302208 0 0 0.302208 0 0.675V15.525C0 15.8978 0.302208 16.2 0.675 16.2H8.65292V9.92652H6.54176V7.48161H8.65292V5.67857C8.65292 3.58614 9.9309 2.44678 11.7975 2.44678C12.6916 2.44678 13.46 2.51335 13.684 2.5431V4.72981L12.3894 4.73039C11.3743 4.73039 11.1777 5.21278 11.1777 5.92065V7.48161H13.5987L13.2835 9.92652H11.1777V16.2H15.525C15.8978 16.2 16.2 15.8978 16.2 15.525V0.675C16.2 0.302208 15.8978 0 15.525 0Z" fill="#7D818D"/>
</svg>
