<svg width="17" height="17" viewBox="0 0 17 17" fill="none" xmlns="http://www.w3.org/2000/svg">
<path fill-rule="evenodd" clip-rule="evenodd" d="M4.76044 0.0486C5.62444 0.00945 5.90018 0 8.1 0C10.2998 0 10.5756 0.00945 11.4396 0.0486C12.7565 0.108675 13.9124 0.431325 14.8406 1.35945C15.769 2.28791 16.0913 3.44419 16.1514 4.76044C16.1905 5.62444 16.2 5.90018 16.2 8.1C16.2 10.2998 16.1905 10.5756 16.1514 11.4396C16.0913 12.7565 15.7687 13.9124 14.8406 14.8406C13.9121 15.769 12.7555 16.0913 11.4396 16.1514C10.5756 16.1905 10.2998 16.2 8.1 16.2C5.90018 16.2 5.62444 16.1905 4.76044 16.1514C3.44351 16.0913 2.28758 15.7687 1.35945 14.8406C0.430987 13.9121 0.108675 12.7558 0.0486 11.4396C0.00945 10.5756 0 10.2998 0 8.1C0 5.90018 0.00945 5.62444 0.0486 4.76044C0.108675 3.44351 0.431325 2.28758 1.35945 1.35945C2.28791 0.430987 3.44419 0.108675 4.76044 0.0486ZM11.3747 1.50819C10.5204 1.46904 10.2643 1.46094 8.10159 1.46094C5.93889 1.46094 5.68272 1.46938 4.82851 1.50819C3.9068 1.55037 3.05124 1.73499 2.39311 2.39311C1.73499 3.05124 1.55037 3.9068 1.50819 4.82851C1.46904 5.68272 1.46094 5.93889 1.46094 8.10159C1.46094 10.2643 1.46938 10.5204 1.50819 11.3747C1.55037 12.2964 1.73499 13.1519 2.39311 13.8101C3.05124 14.4682 3.9068 14.6528 4.82851 14.695C5.68239 14.7341 5.93855 14.7422 8.10159 14.7422C10.2646 14.7422 10.5208 14.7338 11.3747 14.695C12.2964 14.6528 13.1519 14.4682 13.8101 13.8101C14.4682 13.1519 14.6528 12.2964 14.695 11.3747C14.7341 10.5204 14.7422 10.2643 14.7422 8.10159C14.7422 5.93889 14.7338 5.68272 14.695 4.82851C14.6528 3.9068 14.4682 3.05124 13.8101 2.39311C13.1519 1.73499 12.2964 1.55037 11.3747 1.50819Z" fill="#7D818D"/>
<path fill-rule="evenodd" clip-rule="evenodd" d="M4.42188 8.46797C4.42188 6.23133 6.23491 4.41797 8.47188 4.41797C10.7088 4.41797 12.5219 6.231 12.5219 8.46797C12.5219 10.7049 10.7088 12.518 8.47188 12.518C6.23491 12.518 4.42188 10.7046 4.42188 8.46797ZM5.84375 8.46886C5.84375 9.92073 7.02089 11.0979 8.47277 11.0979C9.92464 11.0979 11.1018 9.92073 11.1018 8.46886C11.1018 7.01699 9.92464 5.83984 8.47277 5.83984C7.02089 5.83984 5.84375 7.01699 5.84375 8.46886Z" fill="#7D818D"/>
<circle cx="12.1514" cy="4.04986" r="1.10455" fill="#7D818D"/>
</svg>
