<svg width="17" height="17" viewBox="0 0 17 17" fill="none" xmlns="http://www.w3.org/2000/svg">
<path fill-rule="evenodd" clip-rule="evenodd" d="M0.675 0H15.525C15.8963 0 16.2 0.30375 16.2 0.675V15.525C16.2 15.8963 15.8963 16.2 15.525 16.2H0.675C0.30375 16.2 0 15.8963 0 15.525V0.675C0 0.30375 0.30375 0 0.675 0ZM2.39844 13.803H4.79469V6.07422H2.39844V13.803ZM3.61031 5.02922C2.83406 5.02922 2.22656 4.42172 2.22656 3.64547C2.22656 2.86922 2.83406 2.26172 3.61031 2.26172C4.38656 2.26172 4.99406 2.86922 4.99406 3.64547C4.99406 4.38797 4.38656 5.02922 3.61031 5.02922ZM11.4087 13.8063H13.7712V9.55375C13.7712 7.46125 13.3325 5.875 10.9025 5.875C9.755 5.875 8.945 6.51625 8.64125 7.12375H8.6075V6.0775H6.3125V13.8063H8.70875V9.9925C8.70875 8.98 8.91125 8.00125 10.16 8.00125C11.4087 8.00125 11.4087 9.14875 11.4087 10.06V13.8063Z" fill="#7D818D"/>
</svg>
