<svg width="22" height="22" viewBox="0 0 22 22" fill="none" xmlns="http://www.w3.org/2000/svg">
<mask id="path-1-inside-1_2190_309" fill="white">
<path d="M21.3386 17.0417L17.2136 14.2853C16.527 13.8261 15.8657 13.8421 15.2937 14.3124C13.6877 15.6292 12.7353 15.2515 12.5803 15.1736C11.6719 14.7189 10.8139 14.2899 9.49071 12.9676C7.84804 11.324 7.25496 10.2749 6.82688 9.42013C6.65592 9.07821 6.45883 7.92871 7.58313 6.73017C8.10883 6.17054 8.15742 5.48304 7.72017 4.79554C7.38329 4.26571 7.38329 4.26571 7.11838 3.87613C6.85713 3.49112 6.33508 2.72204 4.95825 0.661375C4.66079 0.216792 4.23821 0 3.66667 0C3.01858 0 2.69042 0.328625 2.42596 0.592625L1.05096 1.96763C0.0774583 2.94067 0 3.49846 0 4.125C0 4.91379 1.13896 10.0554 6.5505 15.4481C11.9446 20.8606 17.0812 22 17.8695 22H17.8998C18.5208 21.9908 19.0726 21.9088 20.0319 20.949L21.4069 19.574C21.6714 19.31 22 18.9814 22 18.3333C22 17.7613 21.7832 17.3388 21.3386 17.0417ZM20.7593 18.926L19.3843 20.301C18.6125 21.0728 18.277 21.0778 17.8695 21.0833C17.8131 21.0815 12.8778 20.4999 7.19858 14.8C1.56521 9.18638 0.917583 4.169 0.916667 4.125C0.916667 3.71846 0.916667 3.39808 1.69858 2.61571L3.07358 1.24071C3.31512 1.00008 3.41138 0.916667 3.66667 0.916667C3.96596 0.916667 4.09154 1.01429 4.1965 1.17104C5.57563 3.23538 6.09858 4.00629 6.36029 4.39083C6.61833 4.77033 6.61833 4.77033 6.94696 5.28779C7.20729 5.69708 7.08538 5.92167 6.91488 6.10317C5.48442 7.62667 5.69571 9.20654 6.00692 9.82987C6.46663 10.7493 7.10233 11.8754 8.84262 13.6157C10.2703 15.0434 11.2365 15.526 12.1701 15.9935C12.4272 16.1214 12.7627 16.1925 13.1157 16.1925C13.7234 16.1925 14.6946 15.9894 15.8748 15.0214C16.0421 14.8835 16.1613 14.8674 16.2365 14.8674C16.368 14.8674 16.5257 14.9284 16.7044 15.0485L20.8294 17.804C20.9857 17.908 21.0833 18.0336 21.0833 18.3333C21.0833 18.5886 20.9999 18.6853 20.7593 18.926Z"/>
</mask>
<path d="M21.3386 17.0417L17.2136 14.2853C16.527 13.8261 15.8657 13.8421 15.2937 14.3124C13.6877 15.6292 12.7353 15.2515 12.5803 15.1736C11.6719 14.7189 10.8139 14.2899 9.49071 12.9676C7.84804 11.324 7.25496 10.2749 6.82688 9.42013C6.65592 9.07821 6.45883 7.92871 7.58313 6.73017C8.10883 6.17054 8.15742 5.48304 7.72017 4.79554C7.38329 4.26571 7.38329 4.26571 7.11838 3.87613C6.85713 3.49112 6.33508 2.72204 4.95825 0.661375C4.66079 0.216792 4.23821 0 3.66667 0C3.01858 0 2.69042 0.328625 2.42596 0.592625L1.05096 1.96763C0.0774583 2.94067 0 3.49846 0 4.125C0 4.91379 1.13896 10.0554 6.5505 15.4481C11.9446 20.8606 17.0812 22 17.8695 22H17.8998C18.5208 21.9908 19.0726 21.9088 20.0319 20.949L21.4069 19.574C21.6714 19.31 22 18.9814 22 18.3333C22 17.7613 21.7832 17.3388 21.3386 17.0417ZM20.7593 18.926L19.3843 20.301C18.6125 21.0728 18.277 21.0778 17.8695 21.0833C17.8131 21.0815 12.8778 20.4999 7.19858 14.8C1.56521 9.18638 0.917583 4.169 0.916667 4.125C0.916667 3.71846 0.916667 3.39808 1.69858 2.61571L3.07358 1.24071C3.31512 1.00008 3.41138 0.916667 3.66667 0.916667C3.96596 0.916667 4.09154 1.01429 4.1965 1.17104C5.57563 3.23538 6.09858 4.00629 6.36029 4.39083C6.61833 4.77033 6.61833 4.77033 6.94696 5.28779C7.20729 5.69708 7.08538 5.92167 6.91488 6.10317C5.48442 7.62667 5.69571 9.20654 6.00692 9.82987C6.46663 10.7493 7.10233 11.8754 8.84262 13.6157C10.2703 15.0434 11.2365 15.526 12.1701 15.9935C12.4272 16.1214 12.7627 16.1925 13.1157 16.1925C13.7234 16.1925 14.6946 15.9894 15.8748 15.0214C16.0421 14.8835 16.1613 14.8674 16.2365 14.8674C16.368 14.8674 16.5257 14.9284 16.7044 15.0485L20.8294 17.804C20.9857 17.908 21.0833 18.0336 21.0833 18.3333C21.0833 18.5886 20.9999 18.6853 20.7593 18.926Z" fill="#6A48CA"/>
<path d="M21.3386 17.0417L20.783 17.8732L20.7831 17.8733L21.3386 17.0417ZM17.2136 14.2853L16.6576 15.1165L16.658 15.1168L17.2136 14.2853ZM15.2937 14.3124L15.9277 15.0857L15.9287 15.0848L15.2937 14.3124ZM12.5803 15.1736L13.0297 14.2802L13.0279 14.2793L12.5803 15.1736ZM9.49071 12.9676L8.7834 13.6745L8.78385 13.675L9.49071 12.9676ZM6.82688 9.42013L5.93245 9.86734L5.93274 9.86791L6.82688 9.42013ZM7.58313 6.73017L6.85428 6.04549L6.85379 6.04601L7.58313 6.73017ZM7.72017 4.79554L6.8763 5.33209L6.87637 5.3322L7.72017 4.79554ZM7.11838 3.87613L6.2909 4.43763L6.29145 4.43844L7.11838 3.87613ZM4.95825 0.661375L5.78973 0.105821L5.78938 0.105291L4.95825 0.661375ZM2.42596 0.592625L1.71947 -0.115095L1.71885 -0.114482L2.42596 0.592625ZM1.05096 1.96763L1.7579 2.6749L1.75807 2.67473L1.05096 1.96763ZM6.5505 15.4481L7.25881 14.7422L7.25638 14.7398L6.5505 15.4481ZM17.8998 22V23H17.9071L17.9145 22.9999L17.8998 22ZM20.0319 20.949L19.3248 20.2419L19.3246 20.2421L20.0319 20.949ZM21.4069 19.574L20.7004 18.8663L20.6998 18.8669L21.4069 19.574ZM17.8695 21.0833L17.837 22.0828L17.86 22.0836L17.883 22.0832L17.8695 21.0833ZM7.19858 14.8L7.90698 14.0942L7.90445 14.0917L7.19858 14.8ZM0.916667 4.125H-0.0833333V4.13542L-0.0831164 4.14583L0.916667 4.125ZM1.69858 2.61571L0.991477 1.9086L0.991269 1.90881L1.69858 2.61571ZM3.07358 1.24071L2.36782 0.532257L2.36648 0.533602L3.07358 1.24071ZM4.1965 1.17104L5.02801 0.615532L5.02743 0.614661L4.1965 1.17104ZM6.36029 4.39083L7.18724 3.82855L7.187 3.8282L6.36029 4.39083ZM6.94696 5.28779L6.1028 5.82389L6.10318 5.82448L6.94696 5.28779ZM6.91488 6.10317L6.18603 5.41849L6.18586 5.41867L6.91488 6.10317ZM6.00692 9.82987L5.11223 10.2766L5.11249 10.2771L6.00692 9.82987ZM12.1701 15.9935L11.7224 16.8877L11.7248 16.8889L12.1701 15.9935ZM15.8748 15.0214L16.509 15.7946L16.5111 15.7929L15.8748 15.0214ZM16.7044 15.0485L16.1468 15.8785L16.1489 15.88L16.7044 15.0485ZM20.8294 17.804L20.2739 18.6355L20.2753 18.6364L20.8294 17.804ZM21.3386 17.0417L21.8942 16.2103L17.7692 13.4539L17.2136 14.2853L16.658 15.1168L20.783 17.8732L21.3386 17.0417ZM17.2136 14.2853L17.7696 13.4541C17.2997 13.1398 16.7661 12.9409 16.194 12.9504C15.6133 12.9601 15.0926 13.1831 14.6586 13.5399L15.2937 14.3124L15.9287 15.0848C16.0668 14.9714 16.1627 14.9512 16.2274 14.9502C16.3005 14.9489 16.441 14.9716 16.6576 15.1165L17.2136 14.2853ZM15.2937 14.3124L14.6596 13.5391C13.9686 14.1057 13.4982 14.2434 13.2621 14.2746C13.0291 14.3053 12.9533 14.2418 13.0297 14.2802L12.5803 15.1736L12.131 16.0669C12.3622 16.1833 12.8402 16.3476 13.5236 16.2574C14.204 16.1677 15.0128 15.8359 15.9277 15.0857L15.2937 14.3124ZM12.5803 15.1736L13.0279 14.2793C12.1671 13.8485 11.4144 13.4762 10.1976 12.2603L9.49071 12.9676L8.78385 13.675C10.2135 15.1036 11.1767 15.5893 12.1328 16.0678L12.5803 15.1736ZM9.49071 12.9676L10.198 12.2607C8.6388 10.7006 8.10623 9.74154 7.72101 8.97234L6.82688 9.42013L5.93274 9.86791C6.40368 10.8083 7.05729 11.9475 8.78341 13.6745L9.49071 12.9676ZM6.82688 9.42013L7.7213 8.97291C7.73739 9.00509 7.47493 8.30716 8.31246 7.41432L7.58313 6.73017L6.85379 6.04601C5.44273 7.55026 5.57444 9.15133 5.93245 9.86734L6.82688 9.42013ZM7.58313 6.73017L8.31197 7.41484C8.70901 6.99219 8.96856 6.47053 9.01026 5.88142C9.05155 5.29812 8.87276 4.74441 8.56397 4.25888L7.72017 4.79554L6.87637 5.3322C7.00482 5.53417 7.02037 5.66796 7.01525 5.74019C7.01055 5.80662 6.98295 5.90852 6.85428 6.04549L7.58313 6.73017ZM7.72017 4.79554L8.56404 4.259C8.22333 3.72314 8.21753 3.71415 7.9453 3.31381L7.11838 3.87613L6.29145 4.43844C6.54905 4.81727 6.54325 4.80828 6.8763 5.33209L7.72017 4.79554ZM7.11838 3.87613L7.94585 3.31462C7.68599 2.93167 7.16528 2.16457 5.78973 0.105822L4.95825 0.661375L4.12677 1.21693C5.50489 3.27952 6.02826 4.05058 6.2909 4.43763L7.11838 3.87613ZM4.95825 0.661375L5.78938 0.105291C5.29215 -0.637862 4.54567 -1 3.66667 -1V0V1C3.93075 1 4.02943 1.07145 4.12712 1.21746L4.95825 0.661375ZM3.66667 0V-1C2.58768 -1 2.00653 -0.401662 1.71947 -0.115095L2.42596 0.592625L3.13245 1.30034C3.27284 1.1602 3.33775 1.10136 3.40881 1.05964C3.4573 1.03116 3.52738 1 3.66667 1V0ZM2.42596 0.592625L1.71885 -0.114482L0.343852 1.26052L1.05096 1.96763L1.75807 2.67473L3.13307 1.29973L2.42596 0.592625ZM1.05096 1.96763L0.344018 1.26035C-0.196082 1.8002 -0.554027 2.28963 -0.76301 2.79248C-0.978777 3.31165 -1 3.76248 -1 4.125H0H1C1 3.86098 1.01751 3.71964 1.08384 3.56002C1.15696 3.38408 1.3245 3.10809 1.7579 2.6749L1.05096 1.96763ZM0 4.125H-1C-1 4.46426 -0.897313 5.0415 -0.699811 5.74054C-0.493682 6.47012 -0.163301 7.40585 0.339864 8.48323C1.34695 10.6396 3.0501 13.3716 5.84462 16.1565L6.5505 15.4481L7.25638 14.7398C4.63935 12.1319 3.06726 9.59672 2.15198 7.63693C1.69396 6.65622 1.40138 5.8216 1.22485 5.19677C1.1365 4.88408 1.07836 4.62795 1.04299 4.43579C1.0253 4.33969 1.01397 4.26321 1.00729 4.2063C1.00017 4.14563 1 4.12127 1 4.125H0ZM6.5505 15.4481L5.84219 16.154C8.62756 18.9489 11.3585 20.6523 13.5137 21.6597C14.5905 22.163 15.5256 22.4934 16.2547 22.6996C16.9532 22.8972 17.5302 23 17.8695 23V22V21C17.8733 21 17.8491 20.9998 17.7885 20.9927C17.7317 20.986 17.6553 20.9747 17.5593 20.957C17.3673 20.9217 17.1115 20.8635 16.799 20.7751C16.1747 20.5986 15.3408 20.3059 14.3606 19.8478C12.4019 18.9323 9.86757 17.3598 7.25881 14.7422L6.5505 15.4481ZM17.8695 22V23H17.8998V22V21H17.8695V22ZM17.8998 22L17.9145 22.9999C18.2724 22.9946 18.7169 22.968 19.2279 22.7523C19.7236 22.543 20.2063 22.1891 20.7392 21.656L20.0319 20.949L19.3246 20.2421C18.8982 20.6687 18.6254 20.8357 18.4501 20.9097C18.2901 20.9773 18.1481 20.9962 17.885 21.0001L17.8998 22ZM20.0319 20.949L20.739 21.6561L22.114 20.2811L21.4069 19.574L20.6998 18.8669L19.3248 20.2419L20.0319 20.949ZM21.4069 19.574L22.1134 20.2818C22.402 19.9937 23 19.4123 23 18.3333H22H21C21 18.4727 20.9688 18.5428 20.9404 18.5913C20.8988 18.662 20.8399 18.7271 20.7004 18.8663L21.4069 19.574ZM22 18.3333H23C23 17.4542 22.6381 16.7072 21.8941 16.2102L21.3386 17.0417L20.7831 17.8733C20.9284 17.9703 21 18.0685 21 18.3333H22ZM20.7593 18.926L20.0522 18.2189L18.6772 19.5939L19.3843 20.301L20.0914 21.0081L21.4664 19.6331L20.7593 18.926ZM19.3843 20.301L18.6772 19.5939C18.3316 19.9394 18.1608 20.0329 18.0987 20.0594C18.0642 20.0741 18.0541 20.0808 17.856 20.0834L17.8695 21.0833L17.883 22.0832C18.0923 22.0804 18.4538 22.0818 18.8818 21.8997C19.2823 21.7293 19.6651 21.4343 20.0914 21.0081L19.3843 20.301ZM17.8695 21.0833L17.902 20.0839C18.1066 20.0905 13.4111 19.6183 7.90697 14.0942L7.19858 14.8L6.4902 15.5059C12.3445 21.3814 17.5197 22.0725 17.837 22.0828L17.8695 21.0833ZM7.19858 14.8L7.90445 14.0917C5.18192 11.3787 3.67997 8.82628 2.86023 6.96994C2.44992 6.04076 2.20975 5.28414 2.07333 4.76703C2.0051 4.50843 1.96292 4.31005 1.9384 4.18036C1.92613 4.11543 1.9184 4.0683 1.91409 4.04001C1.91192 4.0257 1.91078 4.01729 1.91044 4.01465C1.90533 3.97534 1.91505 4.03713 1.91645 4.10417L0.916667 4.125L-0.0831164 4.14583C-0.0825699 4.17206 -0.081071 4.19262 -0.080646 4.19845C-0.0799881 4.20748 -0.0793284 4.21487 -0.0789006 4.21948C-0.0780336 4.22881 -0.0771761 4.23672 -0.0766029 4.24185C-0.0753995 4.2526 -0.0740929 4.26312 -0.0728758 4.27248C-0.0703711 4.29174 -0.0671313 4.31469 -0.0631404 4.34092C-0.0551078 4.3937 -0.0433303 4.46436 -0.0268032 4.5518C0.00628121 4.72684 0.058849 4.97152 0.139491 5.2772C0.300799 5.88865 0.574793 6.74548 1.03067 7.77785C1.94333 9.84461 3.58187 12.6077 6.49272 15.5084L7.19858 14.8ZM0.916667 4.125H1.91667C1.91667 3.92741 1.92358 3.92855 1.93396 3.90427C1.95852 3.84679 2.05125 3.67747 2.4059 3.32261L1.69858 2.61571L0.991269 1.90881C0.564004 2.33632 0.265773 2.71838 0.0948567 3.11832C-0.0902441 3.55145 -0.0833333 3.91605 -0.0833333 4.125H0.916667ZM1.69858 2.61571L2.40569 3.32282L3.78069 1.94782L3.07358 1.24071L2.36648 0.533602L0.991477 1.9086L1.69858 2.61571ZM3.07358 1.24071L3.77934 1.94916C3.80857 1.92004 3.83185 1.89705 3.85208 1.87754C3.87225 1.8581 3.88607 1.84533 3.89572 1.83677C3.91647 1.81837 3.90601 1.83028 3.87381 1.84931C3.85647 1.85956 3.83441 1.87099 3.80822 1.88168C3.78189 1.89241 3.75594 1.90055 3.73161 1.90633C3.68374 1.91771 3.65604 1.91667 3.66667 1.91667V0.916667V-0.0833333C3.40909 -0.0833333 3.13377 -0.0365189 2.85612 0.127595C2.64159 0.254407 2.4672 0.433256 2.36782 0.532259L3.07358 1.24071ZM3.66667 0.916667V1.91667C3.71112 1.91667 3.63981 1.92433 3.53131 1.86606C3.41642 1.80435 3.36349 1.72432 3.36557 1.72742L4.1965 1.17104L5.02743 0.614661C4.92455 0.461017 4.75635 0.253794 4.4776 0.104088C4.20525 -0.0421817 3.9215 -0.0833333 3.66667 -0.0833333V0.916667ZM4.1965 1.17104L3.36499 1.72655C4.74512 3.7924 5.26977 4.56583 5.53359 4.95347L6.36029 4.39083L7.187 3.8282C6.9274 3.44676 6.40613 2.67835 5.02801 0.615532L4.1965 1.17104ZM6.36029 4.39083L5.53335 4.95312C5.78395 5.32167 5.77805 5.31253 6.1028 5.82389L6.94696 5.28779L7.79111 4.75169C7.45861 4.22813 7.45272 4.21899 7.18724 3.82855L6.36029 4.39083ZM6.94696 5.28779L6.10318 5.82448C6.15377 5.90402 6.07582 5.81979 6.10327 5.63442C6.12871 5.46263 6.22222 5.37997 6.18603 5.41849L6.91488 6.10317L7.64372 6.78784C7.77803 6.64487 8.01775 6.35916 8.08169 5.92739C8.14764 5.48203 8.00048 5.08085 7.79074 4.7511L6.94696 5.28779ZM6.91488 6.10317L6.18586 5.41867C4.45245 7.26483 4.62493 9.30054 5.11223 10.2766L6.00692 9.82987L6.90161 9.38319C6.76648 9.11254 6.51638 7.98851 7.64389 6.78766L6.91488 6.10317ZM6.00692 9.82987L5.11249 10.2771C5.61449 11.2811 6.3106 12.4979 8.13552 14.3228L8.84262 13.6157L9.54973 12.9086C7.89407 11.2529 7.31876 10.2175 6.90134 9.38266L6.00692 9.82987ZM8.84262 13.6157L8.13552 14.3228C9.67048 15.8578 10.7428 16.3972 11.7224 16.8877L12.1701 15.9935L12.6179 15.0994C11.7302 14.6549 10.8702 14.2291 9.54973 12.9086L8.84262 13.6157ZM12.1701 15.9935L11.7248 16.8889C12.1472 17.099 12.6414 17.1925 13.1157 17.1925V16.1925V15.1925C12.8841 15.1925 12.7073 15.1439 12.6154 15.0982L12.1701 15.9935ZM13.1157 16.1925V17.1925C13.9679 17.1925 15.1605 16.9007 16.509 15.7946L15.8748 15.0214L15.2407 14.2482C14.2288 15.0782 13.4789 15.1925 13.1157 15.1925V16.1925ZM15.8748 15.0214L16.5111 15.7929C16.5185 15.7868 16.4895 15.8122 16.4236 15.8355C16.3913 15.8469 16.3564 15.8556 16.3203 15.861C16.2844 15.8664 16.2547 15.8674 16.2365 15.8674V14.8674V13.8674C15.9361 13.8674 15.5903 13.9599 15.2386 14.2499L15.8748 15.0214ZM16.2365 14.8674V15.8674C16.1497 15.8674 16.0981 15.8479 16.092 15.8456C16.0849 15.8428 16.1029 15.8491 16.1468 15.8785L16.7044 15.0485L17.2621 14.2184C17.0134 14.0513 16.6564 13.8674 16.2365 13.8674V14.8674ZM16.7044 15.0485L16.1489 15.88L20.2739 18.6355L20.8294 17.804L21.3849 16.9724L17.2599 14.2169L16.7044 15.0485ZM20.8294 17.804L20.2753 18.6364C20.2768 18.6374 20.1959 18.5838 20.1339 18.4682C20.0755 18.3595 20.0833 18.2883 20.0833 18.3333H21.0833H22.0833C22.0833 18.0786 22.0423 17.7948 21.8961 17.5223C21.7461 17.243 21.5384 17.0746 21.3836 16.9715L20.8294 17.804ZM21.0833 18.3333H20.0833C20.0833 18.344 20.0823 18.3163 20.0936 18.2686C20.0994 18.2443 20.1075 18.2184 20.1183 18.192C20.1289 18.1658 20.1404 18.1437 20.1507 18.1263C20.1698 18.0939 20.1819 18.0832 20.1638 18.1036C20.1554 18.1131 20.1428 18.1267 20.1235 18.1467C20.1041 18.1667 20.0812 18.1898 20.0522 18.2189L20.7593 18.926L21.4664 19.6331C21.566 19.5335 21.7452 19.3592 21.8724 19.144C22.0366 18.8662 22.0833 18.5907 22.0833 18.3333H21.0833Z" fill="#FEFDFF" mask="url(#path-1-inside-1_2190_309)"/>
</svg>
